G04 #@! TF.GenerationSoftware,KiCad,Pcbnew,(5.1.0-1548-g3fefe01d2)*
G04 #@! TF.CreationDate,2019-08-20T19:22:30-04:00*
G04 #@! TF.ProjectId,MotorcycleSpeedo,4d6f746f-7263-4796-936c-655370656564,rev?*
G04 #@! TF.SameCoordinates,Original*
G04 #@! TF.FileFunction,Paste,Top*
G04 #@! TF.FilePolarity,Positive*
%FSLAX46Y46*%
G04 Gerber Fmt 4.6, Leading zero omitted, Abs format (unit mm)*
G04 Created by KiCad (PCBNEW (5.1.0-1548-g3fefe01d2)) date 2019-08-20 19:22:30*
%MOMM*%
%LPD*%
G04 APERTURE LIST*
%ADD10C,0.100000*%
%ADD11C,0.875000*%
%ADD12R,0.800000X0.800000*%
%ADD13R,0.600000X0.800000*%
G04 APERTURE END LIST*
D10*
G36*
X97339962Y-87591651D02*
G01*
X97410930Y-87639070D01*
X97458349Y-87710038D01*
X97475000Y-87793750D01*
X97475000Y-88231250D01*
X97458349Y-88314962D01*
X97410930Y-88385930D01*
X97339962Y-88433349D01*
X97256250Y-88450000D01*
X96743750Y-88450000D01*
X96660038Y-88433349D01*
X96589070Y-88385930D01*
X96541651Y-88314962D01*
X96525000Y-88231250D01*
X96525000Y-87793750D01*
X96541651Y-87710038D01*
X96589070Y-87639070D01*
X96660038Y-87591651D01*
X96743750Y-87575000D01*
X97256250Y-87575000D01*
X97339962Y-87591651D01*
X97339962Y-87591651D01*
G37*
D11*
X97000000Y-88012500D03*
D10*
G36*
X97339962Y-89166651D02*
G01*
X97410930Y-89214070D01*
X97458349Y-89285038D01*
X97475000Y-89368750D01*
X97475000Y-89806250D01*
X97458349Y-89889962D01*
X97410930Y-89960930D01*
X97339962Y-90008349D01*
X97256250Y-90025000D01*
X96743750Y-90025000D01*
X96660038Y-90008349D01*
X96589070Y-89960930D01*
X96541651Y-89889962D01*
X96525000Y-89806250D01*
X96525000Y-89368750D01*
X96541651Y-89285038D01*
X96589070Y-89214070D01*
X96660038Y-89166651D01*
X96743750Y-89150000D01*
X97256250Y-89150000D01*
X97339962Y-89166651D01*
X97339962Y-89166651D01*
G37*
D11*
X97000000Y-89587500D03*
D10*
G36*
X132789962Y-103041651D02*
G01*
X132860930Y-103089070D01*
X132908349Y-103160038D01*
X132925000Y-103243750D01*
X132925000Y-103756250D01*
X132908349Y-103839962D01*
X132860930Y-103910930D01*
X132789962Y-103958349D01*
X132706250Y-103975000D01*
X132268750Y-103975000D01*
X132185038Y-103958349D01*
X132114070Y-103910930D01*
X132066651Y-103839962D01*
X132050000Y-103756250D01*
X132050000Y-103243750D01*
X132066651Y-103160038D01*
X132114070Y-103089070D01*
X132185038Y-103041651D01*
X132268750Y-103025000D01*
X132706250Y-103025000D01*
X132789962Y-103041651D01*
X132789962Y-103041651D01*
G37*
D11*
X132487500Y-103500000D03*
D10*
G36*
X131214962Y-103041651D02*
G01*
X131285930Y-103089070D01*
X131333349Y-103160038D01*
X131350000Y-103243750D01*
X131350000Y-103756250D01*
X131333349Y-103839962D01*
X131285930Y-103910930D01*
X131214962Y-103958349D01*
X131131250Y-103975000D01*
X130693750Y-103975000D01*
X130610038Y-103958349D01*
X130539070Y-103910930D01*
X130491651Y-103839962D01*
X130475000Y-103756250D01*
X130475000Y-103243750D01*
X130491651Y-103160038D01*
X130539070Y-103089070D01*
X130610038Y-103041651D01*
X130693750Y-103025000D01*
X131131250Y-103025000D01*
X131214962Y-103041651D01*
X131214962Y-103041651D01*
G37*
D11*
X130912500Y-103500000D03*
D12*
X134000000Y-94600000D03*
X132500000Y-94600000D03*
X130650000Y-99500000D03*
X129150000Y-99500000D03*
X125950000Y-105200000D03*
X124450000Y-105200000D03*
D10*
G36*
X136302462Y-90541651D02*
G01*
X136373430Y-90589070D01*
X136420849Y-90660038D01*
X136437500Y-90743750D01*
X136437500Y-91256250D01*
X136420849Y-91339962D01*
X136373430Y-91410930D01*
X136302462Y-91458349D01*
X136218750Y-91475000D01*
X135781250Y-91475000D01*
X135697538Y-91458349D01*
X135626570Y-91410930D01*
X135579151Y-91339962D01*
X135562500Y-91256250D01*
X135562500Y-90743750D01*
X135579151Y-90660038D01*
X135626570Y-90589070D01*
X135697538Y-90541651D01*
X135781250Y-90525000D01*
X136218750Y-90525000D01*
X136302462Y-90541651D01*
X136302462Y-90541651D01*
G37*
D11*
X136000000Y-91000000D03*
D10*
G36*
X134727462Y-90541651D02*
G01*
X134798430Y-90589070D01*
X134845849Y-90660038D01*
X134862500Y-90743750D01*
X134862500Y-91256250D01*
X134845849Y-91339962D01*
X134798430Y-91410930D01*
X134727462Y-91458349D01*
X134643750Y-91475000D01*
X134206250Y-91475000D01*
X134122538Y-91458349D01*
X134051570Y-91410930D01*
X134004151Y-91339962D01*
X133987500Y-91256250D01*
X133987500Y-90743750D01*
X134004151Y-90660038D01*
X134051570Y-90589070D01*
X134122538Y-90541651D01*
X134206250Y-90525000D01*
X134643750Y-90525000D01*
X134727462Y-90541651D01*
X134727462Y-90541651D01*
G37*
D11*
X134425000Y-91000000D03*
D10*
G36*
X128089962Y-94541651D02*
G01*
X128160930Y-94589070D01*
X128208349Y-94660038D01*
X128225000Y-94743750D01*
X128225000Y-95256250D01*
X128208349Y-95339962D01*
X128160930Y-95410930D01*
X128089962Y-95458349D01*
X128006250Y-95475000D01*
X127568750Y-95475000D01*
X127485038Y-95458349D01*
X127414070Y-95410930D01*
X127366651Y-95339962D01*
X127350000Y-95256250D01*
X127350000Y-94743750D01*
X127366651Y-94660038D01*
X127414070Y-94589070D01*
X127485038Y-94541651D01*
X127568750Y-94525000D01*
X128006250Y-94525000D01*
X128089962Y-94541651D01*
X128089962Y-94541651D01*
G37*
D11*
X127787500Y-95000000D03*
D10*
G36*
X126514962Y-94541651D02*
G01*
X126585930Y-94589070D01*
X126633349Y-94660038D01*
X126650000Y-94743750D01*
X126650000Y-95256250D01*
X126633349Y-95339962D01*
X126585930Y-95410930D01*
X126514962Y-95458349D01*
X126431250Y-95475000D01*
X125993750Y-95475000D01*
X125910038Y-95458349D01*
X125839070Y-95410930D01*
X125791651Y-95339962D01*
X125775000Y-95256250D01*
X125775000Y-94743750D01*
X125791651Y-94660038D01*
X125839070Y-94589070D01*
X125910038Y-94541651D01*
X125993750Y-94525000D01*
X126431250Y-94525000D01*
X126514962Y-94541651D01*
X126514962Y-94541651D01*
G37*
D11*
X126212500Y-95000000D03*
D10*
G36*
X120089962Y-98541651D02*
G01*
X120160930Y-98589070D01*
X120208349Y-98660038D01*
X120225000Y-98743750D01*
X120225000Y-99256250D01*
X120208349Y-99339962D01*
X120160930Y-99410930D01*
X120089962Y-99458349D01*
X120006250Y-99475000D01*
X119568750Y-99475000D01*
X119485038Y-99458349D01*
X119414070Y-99410930D01*
X119366651Y-99339962D01*
X119350000Y-99256250D01*
X119350000Y-98743750D01*
X119366651Y-98660038D01*
X119414070Y-98589070D01*
X119485038Y-98541651D01*
X119568750Y-98525000D01*
X120006250Y-98525000D01*
X120089962Y-98541651D01*
X120089962Y-98541651D01*
G37*
D11*
X119787500Y-99000000D03*
D10*
G36*
X118514962Y-98541651D02*
G01*
X118585930Y-98589070D01*
X118633349Y-98660038D01*
X118650000Y-98743750D01*
X118650000Y-99256250D01*
X118633349Y-99339962D01*
X118585930Y-99410930D01*
X118514962Y-99458349D01*
X118431250Y-99475000D01*
X117993750Y-99475000D01*
X117910038Y-99458349D01*
X117839070Y-99410930D01*
X117791651Y-99339962D01*
X117775000Y-99256250D01*
X117775000Y-98743750D01*
X117791651Y-98660038D01*
X117839070Y-98589070D01*
X117910038Y-98541651D01*
X117993750Y-98525000D01*
X118431250Y-98525000D01*
X118514962Y-98541651D01*
X118514962Y-98541651D01*
G37*
D11*
X118212500Y-99000000D03*
D10*
G36*
X112089962Y-102541651D02*
G01*
X112160930Y-102589070D01*
X112208349Y-102660038D01*
X112225000Y-102743750D01*
X112225000Y-103256250D01*
X112208349Y-103339962D01*
X112160930Y-103410930D01*
X112089962Y-103458349D01*
X112006250Y-103475000D01*
X111568750Y-103475000D01*
X111485038Y-103458349D01*
X111414070Y-103410930D01*
X111366651Y-103339962D01*
X111350000Y-103256250D01*
X111350000Y-102743750D01*
X111366651Y-102660038D01*
X111414070Y-102589070D01*
X111485038Y-102541651D01*
X111568750Y-102525000D01*
X112006250Y-102525000D01*
X112089962Y-102541651D01*
X112089962Y-102541651D01*
G37*
D11*
X111787500Y-103000000D03*
D10*
G36*
X110514962Y-102541651D02*
G01*
X110585930Y-102589070D01*
X110633349Y-102660038D01*
X110650000Y-102743750D01*
X110650000Y-103256250D01*
X110633349Y-103339962D01*
X110585930Y-103410930D01*
X110514962Y-103458349D01*
X110431250Y-103475000D01*
X109993750Y-103475000D01*
X109910038Y-103458349D01*
X109839070Y-103410930D01*
X109791651Y-103339962D01*
X109775000Y-103256250D01*
X109775000Y-102743750D01*
X109791651Y-102660038D01*
X109839070Y-102589070D01*
X109910038Y-102541651D01*
X109993750Y-102525000D01*
X110431250Y-102525000D01*
X110514962Y-102541651D01*
X110514962Y-102541651D01*
G37*
D11*
X110212500Y-103000000D03*
D10*
G36*
X104089962Y-106541651D02*
G01*
X104160930Y-106589070D01*
X104208349Y-106660038D01*
X104225000Y-106743750D01*
X104225000Y-107256250D01*
X104208349Y-107339962D01*
X104160930Y-107410930D01*
X104089962Y-107458349D01*
X104006250Y-107475000D01*
X103568750Y-107475000D01*
X103485038Y-107458349D01*
X103414070Y-107410930D01*
X103366651Y-107339962D01*
X103350000Y-107256250D01*
X103350000Y-106743750D01*
X103366651Y-106660038D01*
X103414070Y-106589070D01*
X103485038Y-106541651D01*
X103568750Y-106525000D01*
X104006250Y-106525000D01*
X104089962Y-106541651D01*
X104089962Y-106541651D01*
G37*
D11*
X103787500Y-107000000D03*
D10*
G36*
X102514962Y-106541651D02*
G01*
X102585930Y-106589070D01*
X102633349Y-106660038D01*
X102650000Y-106743750D01*
X102650000Y-107256250D01*
X102633349Y-107339962D01*
X102585930Y-107410930D01*
X102514962Y-107458349D01*
X102431250Y-107475000D01*
X101993750Y-107475000D01*
X101910038Y-107458349D01*
X101839070Y-107410930D01*
X101791651Y-107339962D01*
X101775000Y-107256250D01*
X101775000Y-106743750D01*
X101791651Y-106660038D01*
X101839070Y-106589070D01*
X101910038Y-106541651D01*
X101993750Y-106525000D01*
X102431250Y-106525000D01*
X102514962Y-106541651D01*
X102514962Y-106541651D01*
G37*
D11*
X102212500Y-107000000D03*
D12*
X134750000Y-84000000D03*
X133250000Y-84000000D03*
X126750000Y-79000000D03*
X125250000Y-79000000D03*
X127000000Y-88000000D03*
X125500000Y-88000000D03*
X118950000Y-83000000D03*
X117450000Y-83000000D03*
X118750000Y-92000000D03*
X117250000Y-92000000D03*
X111750000Y-87000000D03*
X110250000Y-87000000D03*
X103750000Y-91000000D03*
X102250000Y-91000000D03*
X110750000Y-96000000D03*
X109250000Y-96000000D03*
D13*
X101300000Y-100000000D03*
X102700000Y-100000000D03*
M02*
