M48
; DRILL file {KiCad (5.1.0-1548-g3fefe01d2)} date Tue 20 Aug 2019 07:22:34 PM EDT
; FORMAT={-:-/ absolute / inch / decimal}
; #@! TF.CreationDate,2019-08-20T19:22:34-04:00
; #@! TF.GenerationSoftware,Kicad,Pcbnew,(5.1.0-1548-g3fefe01d2)
; #@! TF.FileFunction,Plated,1,2,PTH
FMAT,2
INCH
T1C0.0118
T2C0.0157
T3C0.0394
%
G90
G05
T1
X4.4882Y-3.6309
X4.5038Y-3.5626
X4.5038Y-3.6992
X4.5152Y-3.6011
X4.5152Y-3.6607
X4.541Y-3.5474
X4.541Y-3.7143
X4.5475Y-3.5078
X4.5475Y-3.754
X4.5876Y-3.5103
X4.5876Y-3.7515
X4.6106Y-3.4774
X4.6106Y-3.7844
X4.6457Y-3.497
X4.6457Y-3.7647
X4.6807Y-3.4774
X4.6807Y-3.7844
X4.7037Y-3.5103
X4.7037Y-3.7515
X4.7439Y-3.5078
X4.7439Y-3.754
X4.7503Y-3.5474
X4.7503Y-3.7143
X4.7762Y-3.6011
X4.7762Y-3.6607
X4.7876Y-3.5626
X4.7876Y-3.6992
X4.8031Y-3.6309
X4.1732Y-3.7894
X4.2033Y-3.6969
X4.2033Y-3.882
X4.2034Y-3.7481
X4.2034Y-3.8308
X4.252Y-3.6811
X4.252Y-3.8977
X4.282Y-3.6397
X4.282Y-3.9392
X4.3307Y-3.6556
X4.3307Y-3.9233
X4.3794Y-3.6397
X4.3794Y-3.9392
X4.4094Y-3.6811
X4.4094Y-3.8977
X4.458Y-3.7481
X4.458Y-3.8308
X4.4581Y-3.6969
X4.4581Y-3.882
X4.4882Y-3.7894
X4.2126Y-3.434
X4.2282Y-3.3657
X4.2282Y-3.5024
X4.2396Y-3.4042
X4.2396Y-3.4638
X4.2654Y-3.3506
X4.2654Y-3.5175
X4.2719Y-3.3109
X4.2719Y-3.5572
X4.312Y-3.3134
X4.312Y-3.5546
X4.335Y-3.2805
X4.335Y-3.5876
X4.3701Y-3.3002
X4.3701Y-3.5679
X4.4051Y-3.2805
X4.4051Y-3.5876
X4.4282Y-3.3134
X4.4282Y-3.5546
X4.4683Y-3.3109
X4.4683Y-3.5572
X4.4747Y-3.3506
X4.4747Y-3.5175
X4.5006Y-3.4042
X4.5006Y-3.4638
X4.512Y-3.3657
X4.512Y-3.5024
X4.5276Y-3.434
X5.1188Y-3.3301
X5.1241Y-3.2724
X5.1346Y-3.3857
X5.1423Y-3.3032
X5.1468Y-3.3522
X5.1499Y-3.2206
X5.1558Y-3.2559
X5.1688Y-3.3962
X5.1695Y-3.4319
X5.1854Y-3.2166
X5.1927Y-3.1817
X5.2051Y-3.4294
X5.2187Y-3.4624
X5.2272Y-3.1907
X5.2467Y-3.1607
X5.251Y-3.4471
X5.2756Y-3.1817
X5.2756Y-3.473
X5.3002Y-3.4471
X5.3045Y-3.1607
X5.3239Y-3.1907
X5.3325Y-3.4624
X5.3461Y-3.4294
X5.3585Y-3.1817
X5.3658Y-3.2166
X5.3817Y-3.4319
X5.3824Y-3.3962
X5.3954Y-3.2559
X5.4013Y-3.2206
X5.4043Y-3.3522
X5.4089Y-3.3032
X5.4166Y-3.3857
X5.4271Y-3.2724
X5.4324Y-3.3301
X3.8976Y-3.5926
X3.9277Y-3.5
X3.9277Y-3.6852
X3.9278Y-3.5512
X3.9278Y-3.634
X3.9764Y-3.4843
X3.9764Y-3.7009
X4.0065Y-3.4428
X4.0065Y-3.7424
X4.0551Y-3.4587
X4.0551Y-3.7264
X4.1038Y-3.4428
X4.1038Y-3.7424
X4.1338Y-3.4843
X4.1338Y-3.7009
X4.1824Y-3.5512
X4.1824Y-3.634
X4.1825Y-3.5
X4.1825Y-3.6852
X4.2126Y-3.5926
X4.8156Y-3.1208
X4.821Y-3.0632
X4.8315Y-3.1765
X4.8392Y-3.0939
X4.8437Y-3.1429
X4.8468Y-3.0114
X4.8526Y-3.0466
X4.8656Y-3.187
X4.8663Y-3.2227
X4.8823Y-3.0074
X4.8895Y-2.9724
X4.902Y-3.2201
X4.9156Y-3.2531
X4.9241Y-2.9815
X4.9435Y-2.9515
X4.9478Y-3.2379
X4.9724Y-2.9724
X4.9724Y-3.2638
X4.997Y-3.2379
X5.0014Y-2.9515
X5.0208Y-2.9815
X5.0293Y-3.2531
X5.0429Y-3.2201
X5.0553Y-2.9724
X5.0626Y-3.0074
X5.0785Y-3.2227
X5.0793Y-3.187
X5.0923Y-3.0466
X5.0981Y-3.0114
X5.1012Y-3.1429
X5.1057Y-3.0939
X5.1134Y-3.1765
X5.1239Y-3.0632
X5.1292Y-3.1208
X4.5Y-3.2638
X4.5156Y-3.1955
X4.5156Y-3.3321
X4.527Y-3.234
X4.527Y-3.2936
X4.5528Y-3.1803
X4.5528Y-3.3472
X4.5593Y-3.1407
X4.5593Y-3.3869
X4.5994Y-3.1432
X4.5994Y-3.3844
X4.6224Y-3.1102
X4.6224Y-3.4173
X4.6575Y-3.1299
X4.6575Y-3.3976
X4.6925Y-3.1102
X4.6925Y-3.4173
X4.7156Y-3.1432
X4.7156Y-3.3844
X4.7557Y-3.1407
X4.7557Y-3.3869
X4.7621Y-3.1803
X4.7621Y-3.3472
X4.788Y-3.234
X4.788Y-3.2936
X4.7994Y-3.1955
X4.7994Y-3.3321
X4.815Y-3.2638
X3.8425Y-3.2578
X3.8726Y-3.1652
X3.8726Y-3.3504
X3.8727Y-3.2164
X3.8727Y-3.2992
X3.9213Y-3.1495
X3.9213Y-3.3661
X3.9513Y-3.108
X3.9513Y-3.4076
X4.0Y-3.1239
X4.0487Y-3.108
X4.0487Y-3.4076
X4.0787Y-3.1495
X4.0787Y-3.3661
X4.1273Y-3.2164
X4.1273Y-3.2992
X4.1274Y-3.1652
X4.1274Y-3.3504
X4.1575Y-3.2578
X3.8583Y-3.9469
X3.8883Y-3.8544
X3.8883Y-4.0395
X3.8884Y-3.9056
X3.8884Y-3.9883
X3.9371Y-3.8386
X3.9371Y-4.0552
X3.9671Y-3.7971
X3.9671Y-4.0967
X4.0157Y-3.8131
X4.0157Y-4.0808
X4.0644Y-3.7971
X4.0644Y-4.0967
X4.0944Y-3.8386
X4.0944Y-4.0552
X4.1431Y-3.9056
X4.1431Y-3.9883
X4.1432Y-3.8544
X4.1432Y-4.0395
X4.1732Y-3.9469
X4.8038Y-3.4876
X4.8092Y-3.4299
X4.8197Y-3.5432
X4.8273Y-3.4607
X4.8319Y-3.5097
X4.835Y-3.3781
X4.8408Y-3.4134
X4.8538Y-3.5537
X4.8545Y-3.5894
X4.8705Y-3.3741
X4.8777Y-3.3391
X4.8902Y-3.5868
X4.9037Y-3.6199
X4.9123Y-3.3482
X4.9317Y-3.3182
X4.936Y-3.6046
X4.9606Y-3.3392
X4.9606Y-3.6305
X4.9852Y-3.6046
X4.9896Y-3.3182
X5.009Y-3.3482
X5.0175Y-3.6199
X5.0311Y-3.5868
X5.0435Y-3.3391
X5.0508Y-3.3741
X5.0667Y-3.5894
X5.0675Y-3.5537
X5.0805Y-3.4134
X5.0863Y-3.3781
X5.0894Y-3.5097
X5.0939Y-3.4607
X5.1016Y-3.5432
X5.1121Y-3.4299
X5.1174Y-3.4876
T2
X3.8307Y-3.5669
X3.8583Y-3.4528
T3
X4.6457Y-4.1339
X4.6457Y-4.2339
T0
M30
