G04 #@! TF.GenerationSoftware,KiCad,Pcbnew,(5.99.0-3329-ga80190e20)*
G04 #@! TF.CreationDate,2020-09-20T16:31:59-04:00*
G04 #@! TF.ProjectId,MotorcycleSpeedo,4d6f746f-7263-4796-936c-655370656564,rev?*
G04 #@! TF.SameCoordinates,Original*
G04 #@! TF.FileFunction,Legend,Top*
G04 #@! TF.FilePolarity,Positive*
%FSLAX46Y46*%
G04 Gerber Fmt 4.6, Leading zero omitted, Abs format (unit mm)*
G04 Created by KiCad (PCBNEW (5.99.0-3329-ga80190e20)) date 2020-09-20 16:31:59*
%MOMM*%
%LPD*%
G01*
G04 APERTURE LIST*
%ADD10C,0.120000*%
%ADD11C,0.250000*%
%ADD12C,0.300000*%
%ADD13C,0.080000*%
%ADD14C,0.500000*%
%ADD15C,0.420000*%
%ADD16C,0.150000*%
G04 APERTURE END LIST*
D10*
X203850000Y-113373641D02*
X154110000Y-126280000D01*
X223860000Y-113430000D02*
X260260000Y-77030000D01*
X223860000Y-113330000D02*
X237260000Y-63430000D01*
X203850000Y-113373641D02*
X159360000Y-87780000D01*
X223860000Y-113330000D02*
X268260000Y-87730000D01*
X203850000Y-113373641D02*
X203792083Y-62059193D01*
X203850000Y-113378640D02*
X178110000Y-69030000D01*
X203850000Y-113378640D02*
X152610000Y-113280000D01*
X203850000Y-113378640D02*
X167610000Y-77030000D01*
X223860000Y-113430000D02*
X275160000Y-113430000D01*
X203850000Y-113373641D02*
X190610000Y-63780000D01*
X223860000Y-113430000D02*
X223860000Y-61430000D01*
X223860000Y-113430000D02*
X249660000Y-68630000D01*
X223860000Y-113330000D02*
X273360000Y-100030000D01*
X223860000Y-113430000D02*
X273360000Y-126730000D01*
X223860000Y-61430000D02*
X223860000Y-113430000D01*
X203850000Y-113373641D02*
X154360000Y-100030000D01*
D11*
X228402761Y-169854571D02*
X228545619Y-169902190D01*
X228593238Y-169949809D01*
X228640857Y-170045047D01*
X228640857Y-170187904D01*
X228593238Y-170283142D01*
X228545619Y-170330761D01*
X228450380Y-170378380D01*
X228069428Y-170378380D01*
X228069428Y-169378380D01*
X228402761Y-169378380D01*
X228498000Y-169426000D01*
X228545619Y-169473619D01*
X228593238Y-169568857D01*
X228593238Y-169664095D01*
X228545619Y-169759333D01*
X228498000Y-169806952D01*
X228402761Y-169854571D01*
X228069428Y-169854571D01*
X229069428Y-169854571D02*
X229402761Y-169854571D01*
X229545619Y-170378380D02*
X229069428Y-170378380D01*
X229069428Y-169378380D01*
X229545619Y-169378380D01*
X229926571Y-170092666D02*
X230402761Y-170092666D01*
X229831333Y-170378380D02*
X230164666Y-169378380D01*
X230498000Y-170378380D01*
X230688476Y-169378380D02*
X231259904Y-169378380D01*
X230974190Y-170378380D02*
X230974190Y-169378380D01*
X232355142Y-170378380D02*
X232355142Y-169378380D01*
X232355142Y-169854571D02*
X232926571Y-169854571D01*
X232926571Y-170378380D02*
X232926571Y-169378380D01*
X233259904Y-169378380D02*
X233593238Y-170378380D01*
X233926571Y-169378380D01*
X234926571Y-169378380D02*
X235545619Y-169378380D01*
X235212285Y-169759333D01*
X235355142Y-169759333D01*
X235450380Y-169806952D01*
X235498000Y-169854571D01*
X235545619Y-169949809D01*
X235545619Y-170187904D01*
X235498000Y-170283142D01*
X235450380Y-170330761D01*
X235355142Y-170378380D01*
X235069428Y-170378380D01*
X234974190Y-170330761D01*
X234926571Y-170283142D01*
X235878952Y-169711714D02*
X236117047Y-170378380D01*
X236355142Y-169711714D01*
X236640857Y-169378380D02*
X237259904Y-169378380D01*
X236926571Y-169759333D01*
X237069428Y-169759333D01*
X237164666Y-169806952D01*
X237212285Y-169854571D01*
X237259904Y-169949809D01*
X237259904Y-170187904D01*
X237212285Y-170283142D01*
X237164666Y-170330761D01*
X237069428Y-170378380D01*
X236783714Y-170378380D01*
X236688476Y-170330761D01*
X236640857Y-170283142D01*
X238926571Y-169378380D02*
X238450380Y-169378380D01*
X238402761Y-169854571D01*
X238450380Y-169806952D01*
X238545619Y-169759333D01*
X238783714Y-169759333D01*
X238878952Y-169806952D01*
X238926571Y-169854571D01*
X238974190Y-169949809D01*
X238974190Y-170187904D01*
X238926571Y-170283142D01*
X238878952Y-170330761D01*
X238783714Y-170378380D01*
X238545619Y-170378380D01*
X238450380Y-170330761D01*
X238402761Y-170283142D01*
X239307523Y-169711714D02*
X239545619Y-170378380D01*
X239783714Y-169711714D01*
X241450380Y-170378380D02*
X240878952Y-170378380D01*
X241164666Y-170378380D02*
X241164666Y-169378380D01*
X241069428Y-169521238D01*
X240974190Y-169616476D01*
X240878952Y-169664095D01*
X241831333Y-169473619D02*
X241878952Y-169426000D01*
X241974190Y-169378380D01*
X242212285Y-169378380D01*
X242307523Y-169426000D01*
X242355142Y-169473619D01*
X242402761Y-169568857D01*
X242402761Y-169664095D01*
X242355142Y-169806952D01*
X241783714Y-170378380D01*
X242402761Y-170378380D01*
X242736095Y-169711714D02*
X242974190Y-170378380D01*
X243212285Y-169711714D01*
X244878952Y-170378380D02*
X244307523Y-170378380D01*
X244593238Y-170378380D02*
X244593238Y-169378380D01*
X244498000Y-169521238D01*
X244402761Y-169616476D01*
X244307523Y-169664095D01*
X245259904Y-169473619D02*
X245307523Y-169426000D01*
X245402761Y-169378380D01*
X245640857Y-169378380D01*
X245736095Y-169426000D01*
X245783714Y-169473619D01*
X245831333Y-169568857D01*
X245831333Y-169664095D01*
X245783714Y-169806952D01*
X245212285Y-170378380D01*
X245831333Y-170378380D01*
X246164666Y-169711714D02*
X246402761Y-170378380D01*
X246640857Y-169711714D01*
X247021809Y-170378380D02*
X247021809Y-169711714D01*
X247021809Y-169378380D02*
X246974190Y-169426000D01*
X247021809Y-169473619D01*
X247069428Y-169426000D01*
X247021809Y-169378380D01*
X247021809Y-169473619D01*
X247498000Y-169711714D02*
X247498000Y-170378380D01*
X247498000Y-169806952D02*
X247545619Y-169759333D01*
X247640857Y-169711714D01*
X247783714Y-169711714D01*
X247878952Y-169759333D01*
X247926571Y-169854571D01*
X247926571Y-170378380D01*
D12*
X207567142Y-90128928D02*
X207638571Y-90057500D01*
X207781428Y-89986071D01*
X208138571Y-89986071D01*
X208281428Y-90057500D01*
X208352857Y-90128928D01*
X208424285Y-90271785D01*
X208424285Y-90414642D01*
X208352857Y-90628928D01*
X207495714Y-91486071D01*
X208424285Y-91486071D01*
X209352857Y-89986071D02*
X209495714Y-89986071D01*
X209638571Y-90057500D01*
X209710000Y-90128928D01*
X209781428Y-90271785D01*
X209852857Y-90557500D01*
X209852857Y-90914642D01*
X209781428Y-91200357D01*
X209710000Y-91343214D01*
X209638571Y-91414642D01*
X209495714Y-91486071D01*
X209352857Y-91486071D01*
X209210000Y-91414642D01*
X209138571Y-91343214D01*
X209067142Y-91200357D01*
X208995714Y-90914642D01*
X208995714Y-90557500D01*
X209067142Y-90271785D01*
X209138571Y-90128928D01*
X209210000Y-90057500D01*
X209352857Y-89986071D01*
X210424285Y-90128928D02*
X210495714Y-90057500D01*
X210638571Y-89986071D01*
X210995714Y-89986071D01*
X211138571Y-90057500D01*
X211210000Y-90128928D01*
X211281428Y-90271785D01*
X211281428Y-90414642D01*
X211210000Y-90628928D01*
X210352857Y-91486071D01*
X211281428Y-91486071D01*
X212210000Y-89986071D02*
X212352857Y-89986071D01*
X212495714Y-90057500D01*
X212567142Y-90128928D01*
X212638571Y-90271785D01*
X212710000Y-90557500D01*
X212710000Y-90914642D01*
X212638571Y-91200357D01*
X212567142Y-91343214D01*
X212495714Y-91414642D01*
X212352857Y-91486071D01*
X212210000Y-91486071D01*
X212067142Y-91414642D01*
X211995714Y-91343214D01*
X211924285Y-91200357D01*
X211852857Y-90914642D01*
X211852857Y-90557500D01*
X211924285Y-90271785D01*
X211995714Y-90128928D01*
X212067142Y-90057500D01*
X212210000Y-89986071D01*
X214424285Y-91057500D02*
X215138571Y-91057500D01*
X214281428Y-91486071D02*
X214781428Y-89986071D01*
X215281428Y-91486071D01*
X216281428Y-90700357D02*
X216495714Y-90771785D01*
X216567142Y-90843214D01*
X216638571Y-90986071D01*
X216638571Y-91200357D01*
X216567142Y-91343214D01*
X216495714Y-91414642D01*
X216352857Y-91486071D01*
X215781428Y-91486071D01*
X215781428Y-89986071D01*
X216281428Y-89986071D01*
X216424285Y-90057500D01*
X216495714Y-90128928D01*
X216567142Y-90271785D01*
X216567142Y-90414642D01*
X216495714Y-90557500D01*
X216424285Y-90628928D01*
X216281428Y-90700357D01*
X215781428Y-90700357D01*
X218067142Y-91486071D02*
X217210000Y-91486071D01*
X217638571Y-91486071D02*
X217638571Y-89986071D01*
X217495714Y-90200357D01*
X217352857Y-90343214D01*
X217210000Y-90414642D01*
X218495714Y-89986071D02*
X219352857Y-89986071D01*
X218924285Y-91486071D02*
X218924285Y-89986071D01*
X220281428Y-89986071D02*
X220281428Y-91057500D01*
X220210000Y-91271785D01*
X220067142Y-91414642D01*
X219852857Y-91486071D01*
X219710000Y-91486071D01*
X200531428Y-93901071D02*
X200531428Y-92401071D01*
X201031428Y-93472500D01*
X201531428Y-92401071D01*
X201531428Y-93901071D01*
X202460000Y-93901071D02*
X202317142Y-93829642D01*
X202245714Y-93758214D01*
X202174285Y-93615357D01*
X202174285Y-93186785D01*
X202245714Y-93043928D01*
X202317142Y-92972500D01*
X202460000Y-92901071D01*
X202674285Y-92901071D01*
X202817142Y-92972500D01*
X202888571Y-93043928D01*
X202960000Y-93186785D01*
X202960000Y-93615357D01*
X202888571Y-93758214D01*
X202817142Y-93829642D01*
X202674285Y-93901071D01*
X202460000Y-93901071D01*
X203388571Y-92901071D02*
X203960000Y-92901071D01*
X203602857Y-92401071D02*
X203602857Y-93686785D01*
X203674285Y-93829642D01*
X203817142Y-93901071D01*
X203960000Y-93901071D01*
X204674285Y-93901071D02*
X204531428Y-93829642D01*
X204460000Y-93758214D01*
X204388571Y-93615357D01*
X204388571Y-93186785D01*
X204460000Y-93043928D01*
X204531428Y-92972500D01*
X204674285Y-92901071D01*
X204888571Y-92901071D01*
X205031428Y-92972500D01*
X205102857Y-93043928D01*
X205174285Y-93186785D01*
X205174285Y-93615357D01*
X205102857Y-93758214D01*
X205031428Y-93829642D01*
X204888571Y-93901071D01*
X204674285Y-93901071D01*
X205817142Y-93901071D02*
X205817142Y-92901071D01*
X205817142Y-93186785D02*
X205888571Y-93043928D01*
X205960000Y-92972500D01*
X206102857Y-92901071D01*
X206245714Y-92901071D01*
X207388571Y-93829642D02*
X207245714Y-93901071D01*
X206960000Y-93901071D01*
X206817142Y-93829642D01*
X206745714Y-93758214D01*
X206674285Y-93615357D01*
X206674285Y-93186785D01*
X206745714Y-93043928D01*
X206817142Y-92972500D01*
X206960000Y-92901071D01*
X207245714Y-92901071D01*
X207388571Y-92972500D01*
X207888571Y-92901071D02*
X208245714Y-93901071D01*
X208602857Y-92901071D02*
X208245714Y-93901071D01*
X208102857Y-94258214D01*
X208031428Y-94329642D01*
X207888571Y-94401071D01*
X209817142Y-93829642D02*
X209674285Y-93901071D01*
X209388571Y-93901071D01*
X209245714Y-93829642D01*
X209174285Y-93758214D01*
X209102857Y-93615357D01*
X209102857Y-93186785D01*
X209174285Y-93043928D01*
X209245714Y-92972500D01*
X209388571Y-92901071D01*
X209674285Y-92901071D01*
X209817142Y-92972500D01*
X210674285Y-93901071D02*
X210531428Y-93829642D01*
X210460000Y-93686785D01*
X210460000Y-92401071D01*
X211817142Y-93829642D02*
X211674285Y-93901071D01*
X211388571Y-93901071D01*
X211245714Y-93829642D01*
X211174285Y-93686785D01*
X211174285Y-93115357D01*
X211245714Y-92972500D01*
X211388571Y-92901071D01*
X211674285Y-92901071D01*
X211817142Y-92972500D01*
X211888571Y-93115357D01*
X211888571Y-93258214D01*
X211174285Y-93401071D01*
X213602857Y-93829642D02*
X213817142Y-93901071D01*
X214174285Y-93901071D01*
X214317142Y-93829642D01*
X214388571Y-93758214D01*
X214460000Y-93615357D01*
X214460000Y-93472500D01*
X214388571Y-93329642D01*
X214317142Y-93258214D01*
X214174285Y-93186785D01*
X213888571Y-93115357D01*
X213745714Y-93043928D01*
X213674285Y-92972500D01*
X213602857Y-92829642D01*
X213602857Y-92686785D01*
X213674285Y-92543928D01*
X213745714Y-92472500D01*
X213888571Y-92401071D01*
X214245714Y-92401071D01*
X214460000Y-92472500D01*
X215102857Y-92901071D02*
X215102857Y-94401071D01*
X215102857Y-92972500D02*
X215245714Y-92901071D01*
X215531428Y-92901071D01*
X215674285Y-92972500D01*
X215745714Y-93043928D01*
X215817142Y-93186785D01*
X215817142Y-93615357D01*
X215745714Y-93758214D01*
X215674285Y-93829642D01*
X215531428Y-93901071D01*
X215245714Y-93901071D01*
X215102857Y-93829642D01*
X217031428Y-93829642D02*
X216888571Y-93901071D01*
X216602857Y-93901071D01*
X216460000Y-93829642D01*
X216388571Y-93686785D01*
X216388571Y-93115357D01*
X216460000Y-92972500D01*
X216602857Y-92901071D01*
X216888571Y-92901071D01*
X217031428Y-92972500D01*
X217102857Y-93115357D01*
X217102857Y-93258214D01*
X216388571Y-93401071D01*
X218317142Y-93829642D02*
X218174285Y-93901071D01*
X217888571Y-93901071D01*
X217745714Y-93829642D01*
X217674285Y-93686785D01*
X217674285Y-93115357D01*
X217745714Y-92972500D01*
X217888571Y-92901071D01*
X218174285Y-92901071D01*
X218317142Y-92972500D01*
X218388571Y-93115357D01*
X218388571Y-93258214D01*
X217674285Y-93401071D01*
X219674285Y-93901071D02*
X219674285Y-92401071D01*
X219674285Y-93829642D02*
X219531428Y-93901071D01*
X219245714Y-93901071D01*
X219102857Y-93829642D01*
X219031428Y-93758214D01*
X218960000Y-93615357D01*
X218960000Y-93186785D01*
X219031428Y-93043928D01*
X219102857Y-92972500D01*
X219245714Y-92901071D01*
X219531428Y-92901071D01*
X219674285Y-92972500D01*
X220602857Y-93901071D02*
X220460000Y-93829642D01*
X220388571Y-93758214D01*
X220317142Y-93615357D01*
X220317142Y-93186785D01*
X220388571Y-93043928D01*
X220460000Y-92972500D01*
X220602857Y-92901071D01*
X220817142Y-92901071D01*
X220960000Y-92972500D01*
X221031428Y-93043928D01*
X221102857Y-93186785D01*
X221102857Y-93615357D01*
X221031428Y-93758214D01*
X220960000Y-93829642D01*
X220817142Y-93901071D01*
X220602857Y-93901071D01*
X221745714Y-93901071D02*
X221745714Y-92901071D01*
X221745714Y-93043928D02*
X221817142Y-92972500D01*
X221960000Y-92901071D01*
X222174285Y-92901071D01*
X222317142Y-92972500D01*
X222388571Y-93115357D01*
X222388571Y-93901071D01*
X222388571Y-93115357D02*
X222460000Y-92972500D01*
X222602857Y-92901071D01*
X222817142Y-92901071D01*
X222960000Y-92972500D01*
X223031428Y-93115357D01*
X223031428Y-93901071D01*
X224317142Y-93829642D02*
X224174285Y-93901071D01*
X223888571Y-93901071D01*
X223745714Y-93829642D01*
X223674285Y-93686785D01*
X223674285Y-93115357D01*
X223745714Y-92972500D01*
X223888571Y-92901071D01*
X224174285Y-92901071D01*
X224317142Y-92972500D01*
X224388571Y-93115357D01*
X224388571Y-93258214D01*
X223674285Y-93401071D01*
X224817142Y-92901071D02*
X225388571Y-92901071D01*
X225031428Y-92401071D02*
X225031428Y-93686785D01*
X225102857Y-93829642D01*
X225245714Y-93901071D01*
X225388571Y-93901071D01*
X226460000Y-93829642D02*
X226317142Y-93901071D01*
X226031428Y-93901071D01*
X225888571Y-93829642D01*
X225817142Y-93686785D01*
X225817142Y-93115357D01*
X225888571Y-92972500D01*
X226031428Y-92901071D01*
X226317142Y-92901071D01*
X226460000Y-92972500D01*
X226531428Y-93115357D01*
X226531428Y-93258214D01*
X225817142Y-93401071D01*
X227174285Y-93901071D02*
X227174285Y-92901071D01*
X227174285Y-93186785D02*
X227245714Y-93043928D01*
X227317142Y-92972500D01*
X227460000Y-92901071D01*
X227602857Y-92901071D01*
X212138571Y-96316071D02*
X211638571Y-95601785D01*
X211281428Y-96316071D02*
X211281428Y-94816071D01*
X211852857Y-94816071D01*
X211995714Y-94887500D01*
X212067142Y-94958928D01*
X212138571Y-95101785D01*
X212138571Y-95316071D01*
X212067142Y-95458928D01*
X211995714Y-95530357D01*
X211852857Y-95601785D01*
X211281428Y-95601785D01*
X213352857Y-96244642D02*
X213210000Y-96316071D01*
X212924285Y-96316071D01*
X212781428Y-96244642D01*
X212710000Y-96101785D01*
X212710000Y-95530357D01*
X212781428Y-95387500D01*
X212924285Y-95316071D01*
X213210000Y-95316071D01*
X213352857Y-95387500D01*
X213424285Y-95530357D01*
X213424285Y-95673214D01*
X212710000Y-95816071D01*
X213924285Y-95316071D02*
X214281428Y-96316071D01*
X214638571Y-95316071D01*
X215210000Y-96173214D02*
X215281428Y-96244642D01*
X215210000Y-96316071D01*
X215138571Y-96244642D01*
X215210000Y-96173214D01*
X215210000Y-96316071D01*
X216710000Y-96316071D02*
X215852857Y-96316071D01*
X216281428Y-96316071D02*
X216281428Y-94816071D01*
X216138571Y-95030357D01*
X215995714Y-95173214D01*
X215852857Y-95244642D01*
X203210000Y-97945357D02*
X203424285Y-98016785D01*
X203495714Y-98088214D01*
X203567142Y-98231071D01*
X203567142Y-98445357D01*
X203495714Y-98588214D01*
X203424285Y-98659642D01*
X203281428Y-98731071D01*
X202710000Y-98731071D01*
X202710000Y-97231071D01*
X203210000Y-97231071D01*
X203352857Y-97302500D01*
X203424285Y-97373928D01*
X203495714Y-97516785D01*
X203495714Y-97659642D01*
X203424285Y-97802500D01*
X203352857Y-97873928D01*
X203210000Y-97945357D01*
X202710000Y-97945357D01*
X204781428Y-98659642D02*
X204638571Y-98731071D01*
X204352857Y-98731071D01*
X204210000Y-98659642D01*
X204138571Y-98516785D01*
X204138571Y-97945357D01*
X204210000Y-97802500D01*
X204352857Y-97731071D01*
X204638571Y-97731071D01*
X204781428Y-97802500D01*
X204852857Y-97945357D01*
X204852857Y-98088214D01*
X204138571Y-98231071D01*
X206424285Y-97731071D02*
X206995714Y-97731071D01*
X206638571Y-97231071D02*
X206638571Y-98516785D01*
X206710000Y-98659642D01*
X206852857Y-98731071D01*
X206995714Y-98731071D01*
X207710000Y-98731071D02*
X207567142Y-98659642D01*
X207495714Y-98588214D01*
X207424285Y-98445357D01*
X207424285Y-98016785D01*
X207495714Y-97873928D01*
X207567142Y-97802500D01*
X207710000Y-97731071D01*
X207924285Y-97731071D01*
X208067142Y-97802500D01*
X208138571Y-97873928D01*
X208210000Y-98016785D01*
X208210000Y-98445357D01*
X208138571Y-98588214D01*
X208067142Y-98659642D01*
X207924285Y-98731071D01*
X207710000Y-98731071D01*
X209067142Y-98731071D02*
X208924285Y-98659642D01*
X208852857Y-98588214D01*
X208781428Y-98445357D01*
X208781428Y-98016785D01*
X208852857Y-97873928D01*
X208924285Y-97802500D01*
X209067142Y-97731071D01*
X209281428Y-97731071D01*
X209424285Y-97802500D01*
X209495714Y-97873928D01*
X209567142Y-98016785D01*
X209567142Y-98445357D01*
X209495714Y-98588214D01*
X209424285Y-98659642D01*
X209281428Y-98731071D01*
X209067142Y-98731071D01*
X211567142Y-98731071D02*
X211424285Y-98659642D01*
X211352857Y-98516785D01*
X211352857Y-97231071D01*
X212781428Y-98731071D02*
X212781428Y-97945357D01*
X212710000Y-97802500D01*
X212567142Y-97731071D01*
X212281428Y-97731071D01*
X212138571Y-97802500D01*
X212781428Y-98659642D02*
X212638571Y-98731071D01*
X212281428Y-98731071D01*
X212138571Y-98659642D01*
X212067142Y-98516785D01*
X212067142Y-98373928D01*
X212138571Y-98231071D01*
X212281428Y-98159642D01*
X212638571Y-98159642D01*
X212781428Y-98088214D01*
X213352857Y-97731071D02*
X214138571Y-97731071D01*
X213352857Y-98731071D01*
X214138571Y-98731071D01*
X214567142Y-97731071D02*
X214924285Y-98731071D01*
X215281428Y-97731071D02*
X214924285Y-98731071D01*
X214781428Y-99088214D01*
X214710000Y-99159642D01*
X214567142Y-99231071D01*
X216781428Y-97731071D02*
X217352857Y-97731071D01*
X216995714Y-97231071D02*
X216995714Y-98516785D01*
X217067142Y-98659642D01*
X217210000Y-98731071D01*
X217352857Y-98731071D01*
X218067142Y-98731071D02*
X217924285Y-98659642D01*
X217852857Y-98588214D01*
X217781428Y-98445357D01*
X217781428Y-98016785D01*
X217852857Y-97873928D01*
X217924285Y-97802500D01*
X218067142Y-97731071D01*
X218281428Y-97731071D01*
X218424285Y-97802500D01*
X218495714Y-97873928D01*
X218567142Y-98016785D01*
X218567142Y-98445357D01*
X218495714Y-98588214D01*
X218424285Y-98659642D01*
X218281428Y-98731071D01*
X218067142Y-98731071D01*
X220138571Y-97731071D02*
X220710000Y-97731071D01*
X220352857Y-98731071D02*
X220352857Y-97445357D01*
X220424285Y-97302500D01*
X220567142Y-97231071D01*
X220710000Y-97231071D01*
X221852857Y-98731071D02*
X221852857Y-97945357D01*
X221781428Y-97802500D01*
X221638571Y-97731071D01*
X221352857Y-97731071D01*
X221210000Y-97802500D01*
X221852857Y-98659642D02*
X221710000Y-98731071D01*
X221352857Y-98731071D01*
X221210000Y-98659642D01*
X221138571Y-98516785D01*
X221138571Y-98373928D01*
X221210000Y-98231071D01*
X221352857Y-98159642D01*
X221710000Y-98159642D01*
X221852857Y-98088214D01*
X222567142Y-98731071D02*
X222567142Y-97731071D01*
X222567142Y-97231071D02*
X222495714Y-97302500D01*
X222567142Y-97373928D01*
X222638571Y-97302500D01*
X222567142Y-97231071D01*
X222567142Y-97373928D01*
X223495714Y-98731071D02*
X223352857Y-98659642D01*
X223281428Y-98516785D01*
X223281428Y-97231071D01*
X224067142Y-98588214D02*
X224138571Y-98659642D01*
X224067142Y-98731071D01*
X223995714Y-98659642D01*
X224067142Y-98588214D01*
X224067142Y-98731071D01*
D13*
X178291190Y-175272857D02*
X178648333Y-175272857D01*
X178719761Y-175296666D01*
X178767380Y-175344285D01*
X178791190Y-175415714D01*
X178791190Y-175463333D01*
X178791190Y-174772857D02*
X178791190Y-175058571D01*
X178791190Y-174915714D02*
X178291190Y-174915714D01*
X178362619Y-174963333D01*
X178410238Y-175010952D01*
X178434047Y-175058571D01*
X178291190Y-174463333D02*
X178291190Y-174415714D01*
X178315000Y-174368095D01*
X178338809Y-174344285D01*
X178386428Y-174320476D01*
X178481666Y-174296666D01*
X178600714Y-174296666D01*
X178695952Y-174320476D01*
X178743571Y-174344285D01*
X178767380Y-174368095D01*
X178791190Y-174415714D01*
X178791190Y-174463333D01*
X178767380Y-174510952D01*
X178743571Y-174534761D01*
X178695952Y-174558571D01*
X178600714Y-174582380D01*
X178481666Y-174582380D01*
X178386428Y-174558571D01*
X178338809Y-174534761D01*
X178315000Y-174510952D01*
X178291190Y-174463333D01*
X178791190Y-174058571D02*
X178791190Y-173963333D01*
X178767380Y-173915714D01*
X178743571Y-173891904D01*
X178672142Y-173844285D01*
X178576904Y-173820476D01*
X178386428Y-173820476D01*
X178338809Y-173844285D01*
X178315000Y-173868095D01*
X178291190Y-173915714D01*
X178291190Y-174010952D01*
X178315000Y-174058571D01*
X178338809Y-174082380D01*
X178386428Y-174106190D01*
X178505476Y-174106190D01*
X178553095Y-174082380D01*
X178576904Y-174058571D01*
X178600714Y-174010952D01*
X178600714Y-173915714D01*
X178576904Y-173868095D01*
X178553095Y-173844285D01*
X178505476Y-173820476D01*
D14*
X205902857Y-83739523D02*
X205902857Y-79739523D01*
X205902857Y-81644285D02*
X207617142Y-81644285D01*
X207617142Y-83739523D02*
X207617142Y-79739523D01*
X195402857Y-81572857D02*
X193117142Y-82715714D01*
X195402857Y-83858571D01*
X231117142Y-81072857D02*
X233402857Y-82215714D01*
X231117142Y-83358571D01*
D13*
X203123809Y-112497687D02*
X203623809Y-112497687D01*
X203266666Y-112664354D01*
X203623809Y-112831020D01*
X203123809Y-112831020D01*
X203123809Y-113331020D02*
X203123809Y-113045306D01*
X203123809Y-113188163D02*
X203623809Y-113188163D01*
X203552380Y-113140544D01*
X203504761Y-113092925D01*
X203480952Y-113045306D01*
X203623809Y-113640544D02*
X203623809Y-113688163D01*
X203600000Y-113735782D01*
X203576190Y-113759592D01*
X203528571Y-113783401D01*
X203433333Y-113807211D01*
X203314285Y-113807211D01*
X203219047Y-113783401D01*
X203171428Y-113759592D01*
X203147619Y-113735782D01*
X203123809Y-113688163D01*
X203123809Y-113640544D01*
X203147619Y-113592925D01*
X203171428Y-113569116D01*
X203219047Y-113545306D01*
X203314285Y-113521497D01*
X203433333Y-113521497D01*
X203528571Y-113545306D01*
X203576190Y-113569116D01*
X203600000Y-113592925D01*
X203623809Y-113640544D01*
X203123809Y-114283401D02*
X203123809Y-113997687D01*
X203123809Y-114140544D02*
X203623809Y-114140544D01*
X203552380Y-114092925D01*
X203504761Y-114045306D01*
X203480952Y-113997687D01*
D14*
X219402857Y-83739523D02*
X219402857Y-79739523D01*
X221117142Y-83739523D01*
X221117142Y-79739523D01*
D13*
X241716761Y-165072190D02*
X241716761Y-164572190D01*
X241835809Y-164572190D01*
X241907238Y-164596000D01*
X241954857Y-164643619D01*
X241978666Y-164691238D01*
X242002476Y-164786476D01*
X242002476Y-164857904D01*
X241978666Y-164953142D01*
X241954857Y-165000761D01*
X241907238Y-165048380D01*
X241835809Y-165072190D01*
X241716761Y-165072190D01*
X242478666Y-165072190D02*
X242192952Y-165072190D01*
X242335809Y-165072190D02*
X242335809Y-164572190D01*
X242288190Y-164643619D01*
X242240571Y-164691238D01*
X242192952Y-164715047D01*
X242788190Y-164572190D02*
X242835809Y-164572190D01*
X242883428Y-164596000D01*
X242907238Y-164619809D01*
X242931047Y-164667428D01*
X242954857Y-164762666D01*
X242954857Y-164881714D01*
X242931047Y-164976952D01*
X242907238Y-165024571D01*
X242883428Y-165048380D01*
X242835809Y-165072190D01*
X242788190Y-165072190D01*
X242740571Y-165048380D01*
X242716761Y-165024571D01*
X242692952Y-164976952D01*
X242669142Y-164881714D01*
X242669142Y-164762666D01*
X242692952Y-164667428D01*
X242716761Y-164619809D01*
X242740571Y-164596000D01*
X242788190Y-164572190D01*
X243383428Y-164572190D02*
X243288190Y-164572190D01*
X243240571Y-164596000D01*
X243216761Y-164619809D01*
X243169142Y-164691238D01*
X243145333Y-164786476D01*
X243145333Y-164976952D01*
X243169142Y-165024571D01*
X243192952Y-165048380D01*
X243240571Y-165072190D01*
X243335809Y-165072190D01*
X243383428Y-165048380D01*
X243407238Y-165024571D01*
X243431047Y-164976952D01*
X243431047Y-164857904D01*
X243407238Y-164810285D01*
X243383428Y-164786476D01*
X243335809Y-164762666D01*
X243240571Y-164762666D01*
X243192952Y-164786476D01*
X243169142Y-164810285D01*
X243145333Y-164857904D01*
X232358476Y-164310190D02*
X232191809Y-164072095D01*
X232072761Y-164310190D02*
X232072761Y-163810190D01*
X232263238Y-163810190D01*
X232310857Y-163834000D01*
X232334666Y-163857809D01*
X232358476Y-163905428D01*
X232358476Y-163976857D01*
X232334666Y-164024476D01*
X232310857Y-164048285D01*
X232263238Y-164072095D01*
X232072761Y-164072095D01*
X232834666Y-164310190D02*
X232548952Y-164310190D01*
X232691809Y-164310190D02*
X232691809Y-163810190D01*
X232644190Y-163881619D01*
X232596571Y-163929238D01*
X232548952Y-163953047D01*
X233144190Y-163810190D02*
X233191809Y-163810190D01*
X233239428Y-163834000D01*
X233263238Y-163857809D01*
X233287047Y-163905428D01*
X233310857Y-164000666D01*
X233310857Y-164119714D01*
X233287047Y-164214952D01*
X233263238Y-164262571D01*
X233239428Y-164286380D01*
X233191809Y-164310190D01*
X233144190Y-164310190D01*
X233096571Y-164286380D01*
X233072761Y-164262571D01*
X233048952Y-164214952D01*
X233025142Y-164119714D01*
X233025142Y-164000666D01*
X233048952Y-163905428D01*
X233072761Y-163857809D01*
X233096571Y-163834000D01*
X233144190Y-163810190D01*
X233739428Y-163810190D02*
X233644190Y-163810190D01*
X233596571Y-163834000D01*
X233572761Y-163857809D01*
X233525142Y-163929238D01*
X233501333Y-164024476D01*
X233501333Y-164214952D01*
X233525142Y-164262571D01*
X233548952Y-164286380D01*
X233596571Y-164310190D01*
X233691809Y-164310190D01*
X233739428Y-164286380D01*
X233763238Y-164262571D01*
X233787047Y-164214952D01*
X233787047Y-164095904D01*
X233763238Y-164048285D01*
X233739428Y-164024476D01*
X233691809Y-164000666D01*
X233596571Y-164000666D01*
X233548952Y-164024476D01*
X233525142Y-164048285D01*
X233501333Y-164095904D01*
D15*
X178972571Y-146062380D02*
X178581142Y-145763333D01*
X178385428Y-145464285D01*
X178189714Y-144866190D01*
X178189714Y-144567142D01*
X178385428Y-143969047D01*
X178581142Y-143670000D01*
X178972571Y-143370952D01*
X179755428Y-143370952D01*
X180146857Y-143670000D01*
X180342571Y-143969047D01*
X180538285Y-144567142D01*
X180538285Y-144866190D01*
X180342571Y-145464285D01*
X180146857Y-145763333D01*
X179755428Y-146062380D01*
X178972571Y-146062380D01*
X178581142Y-146361428D01*
X178385428Y-146660476D01*
X178189714Y-147258571D01*
X178189714Y-148454761D01*
X178385428Y-149052857D01*
X178581142Y-149351904D01*
X178972571Y-149650952D01*
X179755428Y-149650952D01*
X180146857Y-149351904D01*
X180342571Y-149052857D01*
X180538285Y-148454761D01*
X180538285Y-147258571D01*
X180342571Y-146660476D01*
X180146857Y-146361428D01*
X179755428Y-146062380D01*
X186018285Y-146062380D02*
X185626857Y-145763333D01*
X185431142Y-145464285D01*
X185235428Y-144866190D01*
X185235428Y-144567142D01*
X185431142Y-143969047D01*
X185626857Y-143670000D01*
X186018285Y-143370952D01*
X186801142Y-143370952D01*
X187192571Y-143670000D01*
X187388285Y-143969047D01*
X187584000Y-144567142D01*
X187584000Y-144866190D01*
X187388285Y-145464285D01*
X187192571Y-145763333D01*
X186801142Y-146062380D01*
X186018285Y-146062380D01*
X185626857Y-146361428D01*
X185431142Y-146660476D01*
X185235428Y-147258571D01*
X185235428Y-148454761D01*
X185431142Y-149052857D01*
X185626857Y-149351904D01*
X186018285Y-149650952D01*
X186801142Y-149650952D01*
X187192571Y-149351904D01*
X187388285Y-149052857D01*
X187584000Y-148454761D01*
X187584000Y-147258571D01*
X187388285Y-146660476D01*
X187192571Y-146361428D01*
X186801142Y-146062380D01*
X193064000Y-146062380D02*
X192672571Y-145763333D01*
X192476857Y-145464285D01*
X192281142Y-144866190D01*
X192281142Y-144567142D01*
X192476857Y-143969047D01*
X192672571Y-143670000D01*
X193064000Y-143370952D01*
X193846857Y-143370952D01*
X194238285Y-143670000D01*
X194434000Y-143969047D01*
X194629714Y-144567142D01*
X194629714Y-144866190D01*
X194434000Y-145464285D01*
X194238285Y-145763333D01*
X193846857Y-146062380D01*
X193064000Y-146062380D01*
X192672571Y-146361428D01*
X192476857Y-146660476D01*
X192281142Y-147258571D01*
X192281142Y-148454761D01*
X192476857Y-149052857D01*
X192672571Y-149351904D01*
X193064000Y-149650952D01*
X193846857Y-149650952D01*
X194238285Y-149351904D01*
X194434000Y-149052857D01*
X194629714Y-148454761D01*
X194629714Y-147258571D01*
X194434000Y-146660476D01*
X194238285Y-146361428D01*
X193846857Y-146062380D01*
X200109714Y-146062380D02*
X199718285Y-145763333D01*
X199522571Y-145464285D01*
X199326857Y-144866190D01*
X199326857Y-144567142D01*
X199522571Y-143969047D01*
X199718285Y-143670000D01*
X200109714Y-143370952D01*
X200892571Y-143370952D01*
X201284000Y-143670000D01*
X201479714Y-143969047D01*
X201675428Y-144567142D01*
X201675428Y-144866190D01*
X201479714Y-145464285D01*
X201284000Y-145763333D01*
X200892571Y-146062380D01*
X200109714Y-146062380D01*
X199718285Y-146361428D01*
X199522571Y-146660476D01*
X199326857Y-147258571D01*
X199326857Y-148454761D01*
X199522571Y-149052857D01*
X199718285Y-149351904D01*
X200109714Y-149650952D01*
X200892571Y-149650952D01*
X201284000Y-149351904D01*
X201479714Y-149052857D01*
X201675428Y-148454761D01*
X201675428Y-147258571D01*
X201479714Y-146660476D01*
X201284000Y-146361428D01*
X200892571Y-146062380D01*
X207155428Y-146062380D02*
X206764000Y-145763333D01*
X206568285Y-145464285D01*
X206372571Y-144866190D01*
X206372571Y-144567142D01*
X206568285Y-143969047D01*
X206764000Y-143670000D01*
X207155428Y-143370952D01*
X207938285Y-143370952D01*
X208329714Y-143670000D01*
X208525428Y-143969047D01*
X208721142Y-144567142D01*
X208721142Y-144866190D01*
X208525428Y-145464285D01*
X208329714Y-145763333D01*
X207938285Y-146062380D01*
X207155428Y-146062380D01*
X206764000Y-146361428D01*
X206568285Y-146660476D01*
X206372571Y-147258571D01*
X206372571Y-148454761D01*
X206568285Y-149052857D01*
X206764000Y-149351904D01*
X207155428Y-149650952D01*
X207938285Y-149650952D01*
X208329714Y-149351904D01*
X208525428Y-149052857D01*
X208721142Y-148454761D01*
X208721142Y-147258571D01*
X208525428Y-146660476D01*
X208329714Y-146361428D01*
X207938285Y-146062380D01*
X214201142Y-146062380D02*
X213809714Y-145763333D01*
X213614000Y-145464285D01*
X213418285Y-144866190D01*
X213418285Y-144567142D01*
X213614000Y-143969047D01*
X213809714Y-143670000D01*
X214201142Y-143370952D01*
X214984000Y-143370952D01*
X215375428Y-143670000D01*
X215571142Y-143969047D01*
X215766857Y-144567142D01*
X215766857Y-144866190D01*
X215571142Y-145464285D01*
X215375428Y-145763333D01*
X214984000Y-146062380D01*
X214201142Y-146062380D01*
X213809714Y-146361428D01*
X213614000Y-146660476D01*
X213418285Y-147258571D01*
X213418285Y-148454761D01*
X213614000Y-149052857D01*
X213809714Y-149351904D01*
X214201142Y-149650952D01*
X214984000Y-149650952D01*
X215375428Y-149351904D01*
X215571142Y-149052857D01*
X215766857Y-148454761D01*
X215766857Y-147258571D01*
X215571142Y-146660476D01*
X215375428Y-146361428D01*
X214984000Y-146062380D01*
X221246857Y-146062380D02*
X220855428Y-145763333D01*
X220659714Y-145464285D01*
X220464000Y-144866190D01*
X220464000Y-144567142D01*
X220659714Y-143969047D01*
X220855428Y-143670000D01*
X221246857Y-143370952D01*
X222029714Y-143370952D01*
X222421142Y-143670000D01*
X222616857Y-143969047D01*
X222812571Y-144567142D01*
X222812571Y-144866190D01*
X222616857Y-145464285D01*
X222421142Y-145763333D01*
X222029714Y-146062380D01*
X221246857Y-146062380D01*
X220855428Y-146361428D01*
X220659714Y-146660476D01*
X220464000Y-147258571D01*
X220464000Y-148454761D01*
X220659714Y-149052857D01*
X220855428Y-149351904D01*
X221246857Y-149650952D01*
X222029714Y-149650952D01*
X222421142Y-149351904D01*
X222616857Y-149052857D01*
X222812571Y-148454761D01*
X222812571Y-147258571D01*
X222616857Y-146660476D01*
X222421142Y-146361428D01*
X222029714Y-146062380D01*
X228292571Y-146062380D02*
X227901142Y-145763333D01*
X227705428Y-145464285D01*
X227509714Y-144866190D01*
X227509714Y-144567142D01*
X227705428Y-143969047D01*
X227901142Y-143670000D01*
X228292571Y-143370952D01*
X229075428Y-143370952D01*
X229466857Y-143670000D01*
X229662571Y-143969047D01*
X229858285Y-144567142D01*
X229858285Y-144866190D01*
X229662571Y-145464285D01*
X229466857Y-145763333D01*
X229075428Y-146062380D01*
X228292571Y-146062380D01*
X227901142Y-146361428D01*
X227705428Y-146660476D01*
X227509714Y-147258571D01*
X227509714Y-148454761D01*
X227705428Y-149052857D01*
X227901142Y-149351904D01*
X228292571Y-149650952D01*
X229075428Y-149650952D01*
X229466857Y-149351904D01*
X229662571Y-149052857D01*
X229858285Y-148454761D01*
X229858285Y-147258571D01*
X229662571Y-146660476D01*
X229466857Y-146361428D01*
X229075428Y-146062380D01*
X234751142Y-149052857D02*
X234946857Y-149351904D01*
X234751142Y-149650952D01*
X234555428Y-149351904D01*
X234751142Y-149052857D01*
X234751142Y-149650952D01*
X234751142Y-145763333D02*
X234946857Y-146062380D01*
X234751142Y-146361428D01*
X234555428Y-146062380D01*
X234751142Y-145763333D01*
X234751142Y-146361428D01*
X240426857Y-146062380D02*
X240035428Y-145763333D01*
X239839714Y-145464285D01*
X239644000Y-144866190D01*
X239644000Y-144567142D01*
X239839714Y-143969047D01*
X240035428Y-143670000D01*
X240426857Y-143370952D01*
X241209714Y-143370952D01*
X241601142Y-143670000D01*
X241796857Y-143969047D01*
X241992571Y-144567142D01*
X241992571Y-144866190D01*
X241796857Y-145464285D01*
X241601142Y-145763333D01*
X241209714Y-146062380D01*
X240426857Y-146062380D01*
X240035428Y-146361428D01*
X239839714Y-146660476D01*
X239644000Y-147258571D01*
X239644000Y-148454761D01*
X239839714Y-149052857D01*
X240035428Y-149351904D01*
X240426857Y-149650952D01*
X241209714Y-149650952D01*
X241601142Y-149351904D01*
X241796857Y-149052857D01*
X241992571Y-148454761D01*
X241992571Y-147258571D01*
X241796857Y-146660476D01*
X241601142Y-146361428D01*
X241209714Y-146062380D01*
X247472571Y-146062380D02*
X247081142Y-145763333D01*
X246885428Y-145464285D01*
X246689714Y-144866190D01*
X246689714Y-144567142D01*
X246885428Y-143969047D01*
X247081142Y-143670000D01*
X247472571Y-143370952D01*
X248255428Y-143370952D01*
X248646857Y-143670000D01*
X248842571Y-143969047D01*
X249038285Y-144567142D01*
X249038285Y-144866190D01*
X248842571Y-145464285D01*
X248646857Y-145763333D01*
X248255428Y-146062380D01*
X247472571Y-146062380D01*
X247081142Y-146361428D01*
X246885428Y-146660476D01*
X246689714Y-147258571D01*
X246689714Y-148454761D01*
X246885428Y-149052857D01*
X247081142Y-149351904D01*
X247472571Y-149650952D01*
X248255428Y-149650952D01*
X248646857Y-149351904D01*
X248842571Y-149052857D01*
X249038285Y-148454761D01*
X249038285Y-147258571D01*
X248842571Y-146660476D01*
X248646857Y-146361428D01*
X248255428Y-146062380D01*
X178972571Y-152962380D02*
X178581142Y-152663333D01*
X178385428Y-152364285D01*
X178189714Y-151766190D01*
X178189714Y-151467142D01*
X178385428Y-150869047D01*
X178581142Y-150570000D01*
X178972571Y-150270952D01*
X179755428Y-150270952D01*
X180146857Y-150570000D01*
X180342571Y-150869047D01*
X180538285Y-151467142D01*
X180538285Y-151766190D01*
X180342571Y-152364285D01*
X180146857Y-152663333D01*
X179755428Y-152962380D01*
X178972571Y-152962380D01*
X178581142Y-153261428D01*
X178385428Y-153560476D01*
X178189714Y-154158571D01*
X178189714Y-155354761D01*
X178385428Y-155952857D01*
X178581142Y-156251904D01*
X178972571Y-156550952D01*
X179755428Y-156550952D01*
X180146857Y-156251904D01*
X180342571Y-155952857D01*
X180538285Y-155354761D01*
X180538285Y-154158571D01*
X180342571Y-153560476D01*
X180146857Y-153261428D01*
X179755428Y-152962380D01*
X186018285Y-152962380D02*
X185626857Y-152663333D01*
X185431142Y-152364285D01*
X185235428Y-151766190D01*
X185235428Y-151467142D01*
X185431142Y-150869047D01*
X185626857Y-150570000D01*
X186018285Y-150270952D01*
X186801142Y-150270952D01*
X187192571Y-150570000D01*
X187388285Y-150869047D01*
X187584000Y-151467142D01*
X187584000Y-151766190D01*
X187388285Y-152364285D01*
X187192571Y-152663333D01*
X186801142Y-152962380D01*
X186018285Y-152962380D01*
X185626857Y-153261428D01*
X185431142Y-153560476D01*
X185235428Y-154158571D01*
X185235428Y-155354761D01*
X185431142Y-155952857D01*
X185626857Y-156251904D01*
X186018285Y-156550952D01*
X186801142Y-156550952D01*
X187192571Y-156251904D01*
X187388285Y-155952857D01*
X187584000Y-155354761D01*
X187584000Y-154158571D01*
X187388285Y-153560476D01*
X187192571Y-153261428D01*
X186801142Y-152962380D01*
X193064000Y-152962380D02*
X192672571Y-152663333D01*
X192476857Y-152364285D01*
X192281142Y-151766190D01*
X192281142Y-151467142D01*
X192476857Y-150869047D01*
X192672571Y-150570000D01*
X193064000Y-150270952D01*
X193846857Y-150270952D01*
X194238285Y-150570000D01*
X194434000Y-150869047D01*
X194629714Y-151467142D01*
X194629714Y-151766190D01*
X194434000Y-152364285D01*
X194238285Y-152663333D01*
X193846857Y-152962380D01*
X193064000Y-152962380D01*
X192672571Y-153261428D01*
X192476857Y-153560476D01*
X192281142Y-154158571D01*
X192281142Y-155354761D01*
X192476857Y-155952857D01*
X192672571Y-156251904D01*
X193064000Y-156550952D01*
X193846857Y-156550952D01*
X194238285Y-156251904D01*
X194434000Y-155952857D01*
X194629714Y-155354761D01*
X194629714Y-154158571D01*
X194434000Y-153560476D01*
X194238285Y-153261428D01*
X193846857Y-152962380D01*
X200109714Y-152962380D02*
X199718285Y-152663333D01*
X199522571Y-152364285D01*
X199326857Y-151766190D01*
X199326857Y-151467142D01*
X199522571Y-150869047D01*
X199718285Y-150570000D01*
X200109714Y-150270952D01*
X200892571Y-150270952D01*
X201284000Y-150570000D01*
X201479714Y-150869047D01*
X201675428Y-151467142D01*
X201675428Y-151766190D01*
X201479714Y-152364285D01*
X201284000Y-152663333D01*
X200892571Y-152962380D01*
X200109714Y-152962380D01*
X199718285Y-153261428D01*
X199522571Y-153560476D01*
X199326857Y-154158571D01*
X199326857Y-155354761D01*
X199522571Y-155952857D01*
X199718285Y-156251904D01*
X200109714Y-156550952D01*
X200892571Y-156550952D01*
X201284000Y-156251904D01*
X201479714Y-155952857D01*
X201675428Y-155354761D01*
X201675428Y-154158571D01*
X201479714Y-153560476D01*
X201284000Y-153261428D01*
X200892571Y-152962380D01*
X207155428Y-152962380D02*
X206764000Y-152663333D01*
X206568285Y-152364285D01*
X206372571Y-151766190D01*
X206372571Y-151467142D01*
X206568285Y-150869047D01*
X206764000Y-150570000D01*
X207155428Y-150270952D01*
X207938285Y-150270952D01*
X208329714Y-150570000D01*
X208525428Y-150869047D01*
X208721142Y-151467142D01*
X208721142Y-151766190D01*
X208525428Y-152364285D01*
X208329714Y-152663333D01*
X207938285Y-152962380D01*
X207155428Y-152962380D01*
X206764000Y-153261428D01*
X206568285Y-153560476D01*
X206372571Y-154158571D01*
X206372571Y-155354761D01*
X206568285Y-155952857D01*
X206764000Y-156251904D01*
X207155428Y-156550952D01*
X207938285Y-156550952D01*
X208329714Y-156251904D01*
X208525428Y-155952857D01*
X208721142Y-155354761D01*
X208721142Y-154158571D01*
X208525428Y-153560476D01*
X208329714Y-153261428D01*
X207938285Y-152962380D01*
X214201142Y-152962380D02*
X213809714Y-152663333D01*
X213614000Y-152364285D01*
X213418285Y-151766190D01*
X213418285Y-151467142D01*
X213614000Y-150869047D01*
X213809714Y-150570000D01*
X214201142Y-150270952D01*
X214984000Y-150270952D01*
X215375428Y-150570000D01*
X215571142Y-150869047D01*
X215766857Y-151467142D01*
X215766857Y-151766190D01*
X215571142Y-152364285D01*
X215375428Y-152663333D01*
X214984000Y-152962380D01*
X214201142Y-152962380D01*
X213809714Y-153261428D01*
X213614000Y-153560476D01*
X213418285Y-154158571D01*
X213418285Y-155354761D01*
X213614000Y-155952857D01*
X213809714Y-156251904D01*
X214201142Y-156550952D01*
X214984000Y-156550952D01*
X215375428Y-156251904D01*
X215571142Y-155952857D01*
X215766857Y-155354761D01*
X215766857Y-154158571D01*
X215571142Y-153560476D01*
X215375428Y-153261428D01*
X214984000Y-152962380D01*
X221246857Y-152962380D02*
X220855428Y-152663333D01*
X220659714Y-152364285D01*
X220464000Y-151766190D01*
X220464000Y-151467142D01*
X220659714Y-150869047D01*
X220855428Y-150570000D01*
X221246857Y-150270952D01*
X222029714Y-150270952D01*
X222421142Y-150570000D01*
X222616857Y-150869047D01*
X222812571Y-151467142D01*
X222812571Y-151766190D01*
X222616857Y-152364285D01*
X222421142Y-152663333D01*
X222029714Y-152962380D01*
X221246857Y-152962380D01*
X220855428Y-153261428D01*
X220659714Y-153560476D01*
X220464000Y-154158571D01*
X220464000Y-155354761D01*
X220659714Y-155952857D01*
X220855428Y-156251904D01*
X221246857Y-156550952D01*
X222029714Y-156550952D01*
X222421142Y-156251904D01*
X222616857Y-155952857D01*
X222812571Y-155354761D01*
X222812571Y-154158571D01*
X222616857Y-153560476D01*
X222421142Y-153261428D01*
X222029714Y-152962380D01*
X228292571Y-152962380D02*
X227901142Y-152663333D01*
X227705428Y-152364285D01*
X227509714Y-151766190D01*
X227509714Y-151467142D01*
X227705428Y-150869047D01*
X227901142Y-150570000D01*
X228292571Y-150270952D01*
X229075428Y-150270952D01*
X229466857Y-150570000D01*
X229662571Y-150869047D01*
X229858285Y-151467142D01*
X229858285Y-151766190D01*
X229662571Y-152364285D01*
X229466857Y-152663333D01*
X229075428Y-152962380D01*
X228292571Y-152962380D01*
X227901142Y-153261428D01*
X227705428Y-153560476D01*
X227509714Y-154158571D01*
X227509714Y-155354761D01*
X227705428Y-155952857D01*
X227901142Y-156251904D01*
X228292571Y-156550952D01*
X229075428Y-156550952D01*
X229466857Y-156251904D01*
X229662571Y-155952857D01*
X229858285Y-155354761D01*
X229858285Y-154158571D01*
X229662571Y-153560476D01*
X229466857Y-153261428D01*
X229075428Y-152962380D01*
X234751142Y-155952857D02*
X234946857Y-156251904D01*
X234751142Y-156550952D01*
X234555428Y-156251904D01*
X234751142Y-155952857D01*
X234751142Y-156550952D01*
X234751142Y-152663333D02*
X234946857Y-152962380D01*
X234751142Y-153261428D01*
X234555428Y-152962380D01*
X234751142Y-152663333D01*
X234751142Y-153261428D01*
X240426857Y-152962380D02*
X240035428Y-152663333D01*
X239839714Y-152364285D01*
X239644000Y-151766190D01*
X239644000Y-151467142D01*
X239839714Y-150869047D01*
X240035428Y-150570000D01*
X240426857Y-150270952D01*
X241209714Y-150270952D01*
X241601142Y-150570000D01*
X241796857Y-150869047D01*
X241992571Y-151467142D01*
X241992571Y-151766190D01*
X241796857Y-152364285D01*
X241601142Y-152663333D01*
X241209714Y-152962380D01*
X240426857Y-152962380D01*
X240035428Y-153261428D01*
X239839714Y-153560476D01*
X239644000Y-154158571D01*
X239644000Y-155354761D01*
X239839714Y-155952857D01*
X240035428Y-156251904D01*
X240426857Y-156550952D01*
X241209714Y-156550952D01*
X241601142Y-156251904D01*
X241796857Y-155952857D01*
X241992571Y-155354761D01*
X241992571Y-154158571D01*
X241796857Y-153560476D01*
X241601142Y-153261428D01*
X241209714Y-152962380D01*
X247472571Y-152962380D02*
X247081142Y-152663333D01*
X246885428Y-152364285D01*
X246689714Y-151766190D01*
X246689714Y-151467142D01*
X246885428Y-150869047D01*
X247081142Y-150570000D01*
X247472571Y-150270952D01*
X248255428Y-150270952D01*
X248646857Y-150570000D01*
X248842571Y-150869047D01*
X249038285Y-151467142D01*
X249038285Y-151766190D01*
X248842571Y-152364285D01*
X248646857Y-152663333D01*
X248255428Y-152962380D01*
X247472571Y-152962380D01*
X247081142Y-153261428D01*
X246885428Y-153560476D01*
X246689714Y-154158571D01*
X246689714Y-155354761D01*
X246885428Y-155952857D01*
X247081142Y-156251904D01*
X247472571Y-156550952D01*
X248255428Y-156550952D01*
X248646857Y-156251904D01*
X248842571Y-155952857D01*
X249038285Y-155354761D01*
X249038285Y-154158571D01*
X248842571Y-153560476D01*
X248646857Y-153261428D01*
X248255428Y-152962380D01*
D13*
X235740476Y-164310190D02*
X235573809Y-164072095D01*
X235454761Y-164310190D02*
X235454761Y-163810190D01*
X235645238Y-163810190D01*
X235692857Y-163834000D01*
X235716666Y-163857809D01*
X235740476Y-163905428D01*
X235740476Y-163976857D01*
X235716666Y-164024476D01*
X235692857Y-164048285D01*
X235645238Y-164072095D01*
X235454761Y-164072095D01*
X236216666Y-164310190D02*
X235930952Y-164310190D01*
X236073809Y-164310190D02*
X236073809Y-163810190D01*
X236026190Y-163881619D01*
X235978571Y-163929238D01*
X235930952Y-163953047D01*
X236526190Y-163810190D02*
X236573809Y-163810190D01*
X236621428Y-163834000D01*
X236645238Y-163857809D01*
X236669047Y-163905428D01*
X236692857Y-164000666D01*
X236692857Y-164119714D01*
X236669047Y-164214952D01*
X236645238Y-164262571D01*
X236621428Y-164286380D01*
X236573809Y-164310190D01*
X236526190Y-164310190D01*
X236478571Y-164286380D01*
X236454761Y-164262571D01*
X236430952Y-164214952D01*
X236407142Y-164119714D01*
X236407142Y-164000666D01*
X236430952Y-163905428D01*
X236454761Y-163857809D01*
X236478571Y-163834000D01*
X236526190Y-163810190D01*
X237145238Y-163810190D02*
X236907142Y-163810190D01*
X236883333Y-164048285D01*
X236907142Y-164024476D01*
X236954761Y-164000666D01*
X237073809Y-164000666D01*
X237121428Y-164024476D01*
X237145238Y-164048285D01*
X237169047Y-164095904D01*
X237169047Y-164214952D01*
X237145238Y-164262571D01*
X237121428Y-164286380D01*
X237073809Y-164310190D01*
X236954761Y-164310190D01*
X236907142Y-164286380D01*
X236883333Y-164262571D01*
X232072761Y-165072190D02*
X232072761Y-164572190D01*
X232191809Y-164572190D01*
X232263238Y-164596000D01*
X232310857Y-164643619D01*
X232334666Y-164691238D01*
X232358476Y-164786476D01*
X232358476Y-164857904D01*
X232334666Y-164953142D01*
X232310857Y-165000761D01*
X232263238Y-165048380D01*
X232191809Y-165072190D01*
X232072761Y-165072190D01*
X232834666Y-165072190D02*
X232548952Y-165072190D01*
X232691809Y-165072190D02*
X232691809Y-164572190D01*
X232644190Y-164643619D01*
X232596571Y-164691238D01*
X232548952Y-164715047D01*
X233144190Y-164572190D02*
X233191809Y-164572190D01*
X233239428Y-164596000D01*
X233263238Y-164619809D01*
X233287047Y-164667428D01*
X233310857Y-164762666D01*
X233310857Y-164881714D01*
X233287047Y-164976952D01*
X233263238Y-165024571D01*
X233239428Y-165048380D01*
X233191809Y-165072190D01*
X233144190Y-165072190D01*
X233096571Y-165048380D01*
X233072761Y-165024571D01*
X233048952Y-164976952D01*
X233025142Y-164881714D01*
X233025142Y-164762666D01*
X233048952Y-164667428D01*
X233072761Y-164619809D01*
X233096571Y-164596000D01*
X233144190Y-164572190D01*
X233548952Y-165072190D02*
X233644190Y-165072190D01*
X233691809Y-165048380D01*
X233715619Y-165024571D01*
X233763238Y-164953142D01*
X233787047Y-164857904D01*
X233787047Y-164667428D01*
X233763238Y-164619809D01*
X233739428Y-164596000D01*
X233691809Y-164572190D01*
X233596571Y-164572190D01*
X233548952Y-164596000D01*
X233525142Y-164619809D01*
X233501333Y-164667428D01*
X233501333Y-164786476D01*
X233525142Y-164834095D01*
X233548952Y-164857904D01*
X233596571Y-164881714D01*
X233691809Y-164881714D01*
X233739428Y-164857904D01*
X233763238Y-164834095D01*
X233787047Y-164786476D01*
X229310476Y-164310190D02*
X229143809Y-164072095D01*
X229024761Y-164310190D02*
X229024761Y-163810190D01*
X229215238Y-163810190D01*
X229262857Y-163834000D01*
X229286666Y-163857809D01*
X229310476Y-163905428D01*
X229310476Y-163976857D01*
X229286666Y-164024476D01*
X229262857Y-164048285D01*
X229215238Y-164072095D01*
X229024761Y-164072095D01*
X229786666Y-164310190D02*
X229500952Y-164310190D01*
X229643809Y-164310190D02*
X229643809Y-163810190D01*
X229596190Y-163881619D01*
X229548571Y-163929238D01*
X229500952Y-163953047D01*
X230096190Y-163810190D02*
X230143809Y-163810190D01*
X230191428Y-163834000D01*
X230215238Y-163857809D01*
X230239047Y-163905428D01*
X230262857Y-164000666D01*
X230262857Y-164119714D01*
X230239047Y-164214952D01*
X230215238Y-164262571D01*
X230191428Y-164286380D01*
X230143809Y-164310190D01*
X230096190Y-164310190D01*
X230048571Y-164286380D01*
X230024761Y-164262571D01*
X230000952Y-164214952D01*
X229977142Y-164119714D01*
X229977142Y-164000666D01*
X230000952Y-163905428D01*
X230024761Y-163857809D01*
X230048571Y-163834000D01*
X230096190Y-163810190D01*
X230548571Y-164024476D02*
X230500952Y-164000666D01*
X230477142Y-163976857D01*
X230453333Y-163929238D01*
X230453333Y-163905428D01*
X230477142Y-163857809D01*
X230500952Y-163834000D01*
X230548571Y-163810190D01*
X230643809Y-163810190D01*
X230691428Y-163834000D01*
X230715238Y-163857809D01*
X230739047Y-163905428D01*
X230739047Y-163929238D01*
X230715238Y-163976857D01*
X230691428Y-164000666D01*
X230643809Y-164024476D01*
X230548571Y-164024476D01*
X230500952Y-164048285D01*
X230477142Y-164072095D01*
X230453333Y-164119714D01*
X230453333Y-164214952D01*
X230477142Y-164262571D01*
X230500952Y-164286380D01*
X230548571Y-164310190D01*
X230643809Y-164310190D01*
X230691428Y-164286380D01*
X230715238Y-164262571D01*
X230739047Y-164214952D01*
X230739047Y-164119714D01*
X230715238Y-164072095D01*
X230691428Y-164048285D01*
X230643809Y-164024476D01*
X245050476Y-164310190D02*
X244883809Y-164072095D01*
X244764761Y-164310190D02*
X244764761Y-163810190D01*
X244955238Y-163810190D01*
X245002857Y-163834000D01*
X245026666Y-163857809D01*
X245050476Y-163905428D01*
X245050476Y-163976857D01*
X245026666Y-164024476D01*
X245002857Y-164048285D01*
X244955238Y-164072095D01*
X244764761Y-164072095D01*
X245526666Y-164310190D02*
X245240952Y-164310190D01*
X245383809Y-164310190D02*
X245383809Y-163810190D01*
X245336190Y-163881619D01*
X245288571Y-163929238D01*
X245240952Y-163953047D01*
X245836190Y-163810190D02*
X245883809Y-163810190D01*
X245931428Y-163834000D01*
X245955238Y-163857809D01*
X245979047Y-163905428D01*
X246002857Y-164000666D01*
X246002857Y-164119714D01*
X245979047Y-164214952D01*
X245955238Y-164262571D01*
X245931428Y-164286380D01*
X245883809Y-164310190D01*
X245836190Y-164310190D01*
X245788571Y-164286380D01*
X245764761Y-164262571D01*
X245740952Y-164214952D01*
X245717142Y-164119714D01*
X245717142Y-164000666D01*
X245740952Y-163905428D01*
X245764761Y-163857809D01*
X245788571Y-163834000D01*
X245836190Y-163810190D01*
X246193333Y-163857809D02*
X246217142Y-163834000D01*
X246264761Y-163810190D01*
X246383809Y-163810190D01*
X246431428Y-163834000D01*
X246455238Y-163857809D01*
X246479047Y-163905428D01*
X246479047Y-163953047D01*
X246455238Y-164024476D01*
X246169523Y-164310190D01*
X246479047Y-164310190D01*
X238422761Y-165072190D02*
X238422761Y-164572190D01*
X238541809Y-164572190D01*
X238613238Y-164596000D01*
X238660857Y-164643619D01*
X238684666Y-164691238D01*
X238708476Y-164786476D01*
X238708476Y-164857904D01*
X238684666Y-164953142D01*
X238660857Y-165000761D01*
X238613238Y-165048380D01*
X238541809Y-165072190D01*
X238422761Y-165072190D01*
X239184666Y-165072190D02*
X238898952Y-165072190D01*
X239041809Y-165072190D02*
X239041809Y-164572190D01*
X238994190Y-164643619D01*
X238946571Y-164691238D01*
X238898952Y-164715047D01*
X239494190Y-164572190D02*
X239541809Y-164572190D01*
X239589428Y-164596000D01*
X239613238Y-164619809D01*
X239637047Y-164667428D01*
X239660857Y-164762666D01*
X239660857Y-164881714D01*
X239637047Y-164976952D01*
X239613238Y-165024571D01*
X239589428Y-165048380D01*
X239541809Y-165072190D01*
X239494190Y-165072190D01*
X239446571Y-165048380D01*
X239422761Y-165024571D01*
X239398952Y-164976952D01*
X239375142Y-164881714D01*
X239375142Y-164762666D01*
X239398952Y-164667428D01*
X239422761Y-164619809D01*
X239446571Y-164596000D01*
X239494190Y-164572190D01*
X239827523Y-164572190D02*
X240160857Y-164572190D01*
X239946571Y-165072190D01*
X244764761Y-165072190D02*
X244764761Y-164572190D01*
X244883809Y-164572190D01*
X244955238Y-164596000D01*
X245002857Y-164643619D01*
X245026666Y-164691238D01*
X245050476Y-164786476D01*
X245050476Y-164857904D01*
X245026666Y-164953142D01*
X245002857Y-165000761D01*
X244955238Y-165048380D01*
X244883809Y-165072190D01*
X244764761Y-165072190D01*
X245526666Y-165072190D02*
X245240952Y-165072190D01*
X245383809Y-165072190D02*
X245383809Y-164572190D01*
X245336190Y-164643619D01*
X245288571Y-164691238D01*
X245240952Y-164715047D01*
X245836190Y-164572190D02*
X245883809Y-164572190D01*
X245931428Y-164596000D01*
X245955238Y-164619809D01*
X245979047Y-164667428D01*
X246002857Y-164762666D01*
X246002857Y-164881714D01*
X245979047Y-164976952D01*
X245955238Y-165024571D01*
X245931428Y-165048380D01*
X245883809Y-165072190D01*
X245836190Y-165072190D01*
X245788571Y-165048380D01*
X245764761Y-165024571D01*
X245740952Y-164976952D01*
X245717142Y-164881714D01*
X245717142Y-164762666D01*
X245740952Y-164667428D01*
X245764761Y-164619809D01*
X245788571Y-164596000D01*
X245836190Y-164572190D01*
X246455238Y-164572190D02*
X246217142Y-164572190D01*
X246193333Y-164810285D01*
X246217142Y-164786476D01*
X246264761Y-164762666D01*
X246383809Y-164762666D01*
X246431428Y-164786476D01*
X246455238Y-164810285D01*
X246479047Y-164857904D01*
X246479047Y-164976952D01*
X246455238Y-165024571D01*
X246431428Y-165048380D01*
X246383809Y-165072190D01*
X246264761Y-165072190D01*
X246217142Y-165048380D01*
X246193333Y-165024571D01*
X238708476Y-164310190D02*
X238541809Y-164072095D01*
X238422761Y-164310190D02*
X238422761Y-163810190D01*
X238613238Y-163810190D01*
X238660857Y-163834000D01*
X238684666Y-163857809D01*
X238708476Y-163905428D01*
X238708476Y-163976857D01*
X238684666Y-164024476D01*
X238660857Y-164048285D01*
X238613238Y-164072095D01*
X238422761Y-164072095D01*
X239184666Y-164310190D02*
X238898952Y-164310190D01*
X239041809Y-164310190D02*
X239041809Y-163810190D01*
X238994190Y-163881619D01*
X238946571Y-163929238D01*
X238898952Y-163953047D01*
X239494190Y-163810190D02*
X239541809Y-163810190D01*
X239589428Y-163834000D01*
X239613238Y-163857809D01*
X239637047Y-163905428D01*
X239660857Y-164000666D01*
X239660857Y-164119714D01*
X239637047Y-164214952D01*
X239613238Y-164262571D01*
X239589428Y-164286380D01*
X239541809Y-164310190D01*
X239494190Y-164310190D01*
X239446571Y-164286380D01*
X239422761Y-164262571D01*
X239398952Y-164214952D01*
X239375142Y-164119714D01*
X239375142Y-164000666D01*
X239398952Y-163905428D01*
X239422761Y-163857809D01*
X239446571Y-163834000D01*
X239494190Y-163810190D01*
X240089428Y-163976857D02*
X240089428Y-164310190D01*
X239970380Y-163786380D02*
X239851333Y-164143523D01*
X240160857Y-164143523D01*
X229024761Y-165072190D02*
X229024761Y-164572190D01*
X229143809Y-164572190D01*
X229215238Y-164596000D01*
X229262857Y-164643619D01*
X229286666Y-164691238D01*
X229310476Y-164786476D01*
X229310476Y-164857904D01*
X229286666Y-164953142D01*
X229262857Y-165000761D01*
X229215238Y-165048380D01*
X229143809Y-165072190D01*
X229024761Y-165072190D01*
X229786666Y-165072190D02*
X229500952Y-165072190D01*
X229643809Y-165072190D02*
X229643809Y-164572190D01*
X229596190Y-164643619D01*
X229548571Y-164691238D01*
X229500952Y-164715047D01*
X230262857Y-165072190D02*
X229977142Y-165072190D01*
X230120000Y-165072190D02*
X230120000Y-164572190D01*
X230072380Y-164643619D01*
X230024761Y-164691238D01*
X229977142Y-164715047D01*
X230572380Y-164572190D02*
X230620000Y-164572190D01*
X230667619Y-164596000D01*
X230691428Y-164619809D01*
X230715238Y-164667428D01*
X230739047Y-164762666D01*
X230739047Y-164881714D01*
X230715238Y-164976952D01*
X230691428Y-165024571D01*
X230667619Y-165048380D01*
X230620000Y-165072190D01*
X230572380Y-165072190D01*
X230524761Y-165048380D01*
X230500952Y-165024571D01*
X230477142Y-164976952D01*
X230453333Y-164881714D01*
X230453333Y-164762666D01*
X230477142Y-164667428D01*
X230500952Y-164619809D01*
X230524761Y-164596000D01*
X230572380Y-164572190D01*
X242002476Y-164310190D02*
X241835809Y-164072095D01*
X241716761Y-164310190D02*
X241716761Y-163810190D01*
X241907238Y-163810190D01*
X241954857Y-163834000D01*
X241978666Y-163857809D01*
X242002476Y-163905428D01*
X242002476Y-163976857D01*
X241978666Y-164024476D01*
X241954857Y-164048285D01*
X241907238Y-164072095D01*
X241716761Y-164072095D01*
X242478666Y-164310190D02*
X242192952Y-164310190D01*
X242335809Y-164310190D02*
X242335809Y-163810190D01*
X242288190Y-163881619D01*
X242240571Y-163929238D01*
X242192952Y-163953047D01*
X242788190Y-163810190D02*
X242835809Y-163810190D01*
X242883428Y-163834000D01*
X242907238Y-163857809D01*
X242931047Y-163905428D01*
X242954857Y-164000666D01*
X242954857Y-164119714D01*
X242931047Y-164214952D01*
X242907238Y-164262571D01*
X242883428Y-164286380D01*
X242835809Y-164310190D01*
X242788190Y-164310190D01*
X242740571Y-164286380D01*
X242716761Y-164262571D01*
X242692952Y-164214952D01*
X242669142Y-164119714D01*
X242669142Y-164000666D01*
X242692952Y-163905428D01*
X242716761Y-163857809D01*
X242740571Y-163834000D01*
X242788190Y-163810190D01*
X243121523Y-163810190D02*
X243431047Y-163810190D01*
X243264380Y-164000666D01*
X243335809Y-164000666D01*
X243383428Y-164024476D01*
X243407238Y-164048285D01*
X243431047Y-164095904D01*
X243431047Y-164214952D01*
X243407238Y-164262571D01*
X243383428Y-164286380D01*
X243335809Y-164310190D01*
X243192952Y-164310190D01*
X243145333Y-164286380D01*
X243121523Y-164262571D01*
X235454758Y-165072190D02*
X235454758Y-164572190D01*
X235573806Y-164572190D01*
X235645235Y-164596000D01*
X235692854Y-164643619D01*
X235716663Y-164691238D01*
X235740473Y-164786476D01*
X235740473Y-164857904D01*
X235716663Y-164953142D01*
X235692854Y-165000761D01*
X235645235Y-165048380D01*
X235573806Y-165072190D01*
X235454758Y-165072190D01*
X236216663Y-165072190D02*
X235930949Y-165072190D01*
X236073806Y-165072190D02*
X236073806Y-164572190D01*
X236026187Y-164643619D01*
X235978568Y-164691238D01*
X235930949Y-164715047D01*
X236526187Y-164572190D02*
X236573806Y-164572190D01*
X236621425Y-164596000D01*
X236645235Y-164619809D01*
X236669044Y-164667428D01*
X236692854Y-164762666D01*
X236692854Y-164881714D01*
X236669044Y-164976952D01*
X236645235Y-165024571D01*
X236621425Y-165048380D01*
X236573806Y-165072190D01*
X236526187Y-165072190D01*
X236478568Y-165048380D01*
X236454758Y-165024571D01*
X236430949Y-164976952D01*
X236407139Y-164881714D01*
X236407139Y-164762666D01*
X236430949Y-164667428D01*
X236454758Y-164619809D01*
X236478568Y-164596000D01*
X236526187Y-164572190D01*
X236978568Y-164786476D02*
X236930949Y-164762666D01*
X236907139Y-164738857D01*
X236883330Y-164691238D01*
X236883330Y-164667428D01*
X236907139Y-164619809D01*
X236930949Y-164596000D01*
X236978568Y-164572190D01*
X237073806Y-164572190D01*
X237121425Y-164596000D01*
X237145235Y-164619809D01*
X237169044Y-164667428D01*
X237169044Y-164691238D01*
X237145235Y-164738857D01*
X237121425Y-164762666D01*
X237073806Y-164786476D01*
X236978568Y-164786476D01*
X236930949Y-164810285D01*
X236907139Y-164834095D01*
X236883330Y-164881714D01*
X236883330Y-164976952D01*
X236907139Y-165024571D01*
X236930949Y-165048380D01*
X236978568Y-165072190D01*
X237073806Y-165072190D01*
X237121425Y-165048380D01*
X237145235Y-165024571D01*
X237169044Y-164976952D01*
X237169044Y-164881714D01*
X237145235Y-164834095D01*
X237121425Y-164810285D01*
X237073806Y-164786476D01*
D10*
X215660000Y-172700000D02*
X216990000Y-172700000D01*
X214390000Y-172700000D02*
X214390000Y-175360000D01*
X214390000Y-172700000D02*
X209250000Y-172700000D01*
X214390000Y-175360000D02*
X209250000Y-175360000D01*
X209250000Y-172700000D02*
X209250000Y-175360000D01*
X216990000Y-172700000D02*
X216990000Y-174030000D01*
X174100000Y-160810000D02*
X173340000Y-160810000D01*
X174860000Y-160810000D02*
X178605000Y-160810000D01*
X173340000Y-160810000D02*
X173340000Y-159700000D01*
X174860000Y-159136529D02*
X174860000Y-158590000D01*
X174860000Y-158590000D02*
X178605000Y-158590000D01*
X174860000Y-160810000D02*
X174860000Y-160263471D01*
X178605000Y-159392470D02*
X178605000Y-158590000D01*
X178605000Y-160810000D02*
X178605000Y-160007530D01*
X181020000Y-173520000D02*
X184765000Y-173520000D01*
X184765000Y-175740000D02*
X184765000Y-174937530D01*
X181020000Y-175740000D02*
X184765000Y-175740000D01*
X179500000Y-175740000D02*
X179500000Y-174630000D01*
X184765000Y-174322470D02*
X184765000Y-173520000D01*
X181020000Y-175740000D02*
X181020000Y-175193471D01*
X181020000Y-174066529D02*
X181020000Y-173520000D01*
X180260000Y-175740000D02*
X179500000Y-175740000D01*
X241762000Y-168883000D02*
X244047000Y-168883000D01*
X244047000Y-168883000D02*
X244047000Y-167413000D01*
X244047000Y-167413000D02*
X241762000Y-167413000D01*
X233262780Y-166066000D02*
X232937222Y-166066000D01*
X233262780Y-167086000D02*
X232937222Y-167086000D01*
D16*
X271414000Y-165310000D02*
X265414000Y-165310000D01*
X271414000Y-132210000D02*
X271414000Y-129510000D01*
X156814000Y-165310000D02*
X156814000Y-162310000D01*
X170314000Y-156810000D02*
X257914000Y-156810000D01*
X271414000Y-129310000D02*
X265414000Y-129310000D01*
X271414000Y-129510000D02*
X271414000Y-129310000D01*
X156814000Y-129310000D02*
X162814000Y-129310000D01*
X257914000Y-138810000D02*
X170314000Y-138810000D01*
X156814000Y-132310000D02*
X156814000Y-129310000D01*
X271414000Y-165210000D02*
X271414000Y-132210000D01*
X257914000Y-156810000D02*
X257914000Y-138810000D01*
X162814000Y-165310000D02*
X265414000Y-165310000D01*
X162814000Y-165310000D02*
X156814000Y-165310000D01*
X170314000Y-138810000D02*
X170314000Y-156810000D01*
D10*
X162814000Y-129310000D02*
X265414000Y-129310000D01*
D16*
X271414000Y-165210000D02*
X271414000Y-165310000D01*
X156814000Y-132310000D02*
X156814000Y-162310000D01*
D10*
X236462779Y-166066000D02*
X236137221Y-166066000D01*
X236462779Y-167086000D02*
X236137221Y-167086000D01*
X232300001Y-168835000D02*
X234585001Y-168835000D01*
X234585001Y-167365000D02*
X232300001Y-167365000D01*
X234585001Y-168835000D02*
X234585001Y-167365000D01*
X230062776Y-167086000D02*
X229737218Y-167086000D01*
X230062776Y-166066000D02*
X229737218Y-166066000D01*
X245772779Y-167134000D02*
X245447221Y-167134000D01*
X245772779Y-166114000D02*
X245447221Y-166114000D01*
X238699998Y-168835000D02*
X240984998Y-168835000D01*
X240984998Y-168835000D02*
X240984998Y-167365000D01*
X240984998Y-167365000D02*
X238699998Y-167365000D01*
X247095000Y-168883000D02*
X247095000Y-167413000D01*
X247095000Y-167413000D02*
X244810000Y-167413000D01*
X244810000Y-168883000D02*
X247095000Y-168883000D01*
X239662777Y-167086000D02*
X239337219Y-167086000D01*
X239662777Y-166066000D02*
X239337219Y-166066000D01*
X231384997Y-167365000D02*
X229099997Y-167365000D01*
X231384997Y-168835000D02*
X231384997Y-167365000D01*
X229099997Y-168835000D02*
X231384997Y-168835000D01*
X242724779Y-166114000D02*
X242399221Y-166114000D01*
X242724779Y-167134000D02*
X242399221Y-167134000D01*
X237784997Y-168835000D02*
X237784997Y-167365000D01*
X237784997Y-167365000D02*
X235499997Y-167365000D01*
X235499997Y-168835000D02*
X237784997Y-168835000D01*
M02*
