M48
; DRILL file {KiCad (5.99.0-3329-ga80190e20)} date Sun Sep 20 16:32:03 2020
; FORMAT={-:-/ absolute / metric / decimal}
; #@! TF.CreationDate,2020-09-20T16:32:03-04:00
; #@! TF.GenerationSoftware,Kicad,Pcbnew,(5.99.0-3329-ga80190e20)
; #@! TF.FileFunction,Plated,1,2,PTH
FMAT,2
METRIC
T1C0.300
T2C0.400
T3C0.650
T4C0.700
T5C0.800
T6C0.900
T7C1.000
T8C3.200
%
G90
G05
T1
X228.377Y-81.661
X228.513Y-83.125
X228.779Y-80.247
X228.975Y-82.344
X229.09Y-81.1
X229.168Y-84.441
X229.316Y-83.546
X229.647Y-79.981
X229.665Y-79.074
X230.069Y-84.543
X230.254Y-85.431
X230.57Y-79.139
X230.915Y-78.3
X231.132Y-85.2
X231.625Y-85.962
X231.735Y-78.688
X232.36Y-78.03
X232.36Y-85.43
X232.985Y-78.688
X233.095Y-85.962
X233.588Y-85.2
X233.805Y-78.3
X234.15Y-79.139
X234.466Y-85.431
X234.651Y-84.543
X235.055Y-79.074
X235.073Y-79.981
X235.404Y-83.546
X235.552Y-84.441
X235.63Y-81.1
X235.745Y-82.344
X235.941Y-80.247
X236.207Y-83.125
X236.343Y-81.661
X216.377Y-81.661
X216.513Y-83.125
X216.779Y-80.247
X216.975Y-82.344
X217.09Y-81.1
X217.168Y-84.441
X217.316Y-83.546
X217.647Y-79.981
X217.665Y-79.074
X218.069Y-84.543
X218.254Y-85.431
X218.57Y-79.139
X218.915Y-78.3
X219.132Y-85.2
X219.625Y-85.962
X219.735Y-78.688
X220.36Y-78.03
X220.36Y-85.43
X220.985Y-78.688
X221.095Y-85.962
X221.588Y-85.2
X221.805Y-78.3
X222.15Y-79.139
X222.466Y-85.431
X222.651Y-84.543
X223.055Y-79.074
X223.073Y-79.981
X223.404Y-83.546
X223.552Y-84.441
X223.63Y-81.1
X223.745Y-82.344
X223.941Y-80.247
X224.207Y-83.125
X224.343Y-81.661
X202.877Y-81.661
X203.013Y-83.125
X203.279Y-80.247
X203.475Y-82.344
X203.59Y-81.1
X203.668Y-84.441
X203.816Y-83.546
X204.147Y-79.981
X204.165Y-79.074
X204.569Y-84.543
X204.754Y-85.431
X205.07Y-79.139
X205.415Y-78.3
X205.632Y-85.2
X206.125Y-85.962
X206.235Y-78.688
X206.86Y-78.03
X206.86Y-85.43
X207.485Y-78.688
X207.595Y-85.962
X208.088Y-85.2
X208.305Y-78.3
X208.65Y-79.139
X208.966Y-85.431
X209.151Y-84.543
X209.555Y-79.074
X209.573Y-79.981
X209.904Y-83.546
X210.052Y-84.441
X210.13Y-81.1
X210.245Y-82.344
X210.441Y-80.247
X210.707Y-83.125
X210.843Y-81.661
X190.377Y-82.161
X190.513Y-83.625
X190.779Y-80.747
X190.975Y-82.844
X191.09Y-81.6
X191.168Y-84.941
X191.316Y-84.046
X191.647Y-80.481
X191.665Y-79.574
X192.069Y-85.043
X192.254Y-85.931
X192.57Y-79.639
X192.915Y-78.8
X193.132Y-85.7
X193.625Y-86.462
X193.735Y-79.188
X194.36Y-78.53
X194.36Y-85.93
X194.985Y-79.188
X195.095Y-86.462
X195.588Y-85.7
X195.805Y-78.8
X196.15Y-79.639
X196.466Y-85.931
X196.651Y-85.043
X197.055Y-79.574
X197.073Y-80.481
X197.404Y-84.046
X197.552Y-84.941
X197.63Y-81.6
X197.745Y-82.844
X197.941Y-80.747
X198.207Y-83.625
X198.343Y-82.161
T2
X154.432Y-138.049
X154.437Y-164.592
X154.686Y-163.195
X154.8Y-154.4
X154.813Y-161.925
X155.067Y-142.24
X155.2Y-166.8
X155.4Y-149.812
X155.448Y-141.224
X157.335Y-159.735
X157.861Y-144.399
X158.361Y-175.133
X158.623Y-140.63
X158.623Y-145.923
X158.742Y-170.942
X159.0Y-162.4
X159.085Y-157.95
X159.8Y-108.6
X159.885Y-144.526
X160.4Y-122.4
X161.028Y-152.146
X162.0Y-133.6
X162.11Y-157.122
X162.415Y-158.241
X162.8Y-168.0
X162.814Y-144.018
X163.0Y-95.6
X163.0Y-140.8
X163.187Y-155.149
X163.3Y-157.356
X163.4Y-137.6
X164.4Y-134.24
X164.592Y-143.129
X164.719Y-155.806
X164.838Y-154.813
X164.973Y-141.986
X165.735Y-151.511
X165.8Y-133.4
X166.204Y-157.086
X166.235Y-158.369
X166.96Y-168.365
X167.4Y-137.8
X167.6Y-166.629
X167.64Y-142.971
X167.759Y-170.18
X168.065Y-140.335
X168.4Y-130.8
X168.563Y-166.756
X168.585Y-143.139
X168.6Y-159.8
X168.648Y-171.831
X168.75Y-147.226
X169.0Y-135.0
X169.029Y-140.971
X169.799Y-145.42
X170.0Y-143.0
X170.053Y-152.908
X170.2Y-166.8
X170.9Y-138.7
X171.053Y-153.098
X171.083Y-157.34
X171.287Y-155.134
X171.4Y-133.8
X171.642Y-153.856
X172.0Y-82.2
X172.0Y-161.8
X172.438Y-154.616
X172.5Y-140.3
X172.6Y-143.6
X172.712Y-151.13
X173.101Y-149.225
X173.474Y-152.273
X173.482Y-145.542
X173.855Y-154.94
X173.855Y-162.433
X174.0Y-156.2
X174.117Y-144.653
X174.117Y-149.225
X174.2Y-166.8
X174.495Y-139.785
X174.751Y-140.946
X175.252Y-162.306
X175.255Y-147.731
X175.26Y-148.844
X175.895Y-137.414
X175.931Y-150.225
X176.6Y-146.0
X177.0Y-133.8
X177.8Y-147.0
X178.054Y-169.418
X178.173Y-165.735
X178.641Y-140.159
X178.935Y-154.051
X178.941Y-146.944
X179.244Y-146.032
X179.564Y-162.792
X179.57Y-169.926
X179.697Y-145.186
X180.2Y-137.2
X180.205Y-168.153
X180.6Y-142.0
X180.967Y-164.465
X181.203Y-161.107
X181.221Y-153.797
X181.224Y-159.507
X182.11Y-160.147
X182.582Y-166.08
X182.745Y-164.211
X182.943Y-162.758
X182.999Y-170.307
X183.126Y-160.147
X183.191Y-152.926
X183.455Y-144.145
X183.888Y-167.894
X184.142Y-158.369
X184.571Y-157.51
X184.904Y-143.256
X185.0Y-154.2
X185.158Y-138.557
X185.412Y-136.525
X185.412Y-140.335
X185.412Y-142.367
X185.6Y-72.6
X185.666Y-162.56
X185.805Y-164.629
X186.114Y-157.429
X186.149Y-97.13
X186.944Y-168.275
X187.065Y-157.563
X187.2Y-91.0
X187.8Y-150.8
X188.255Y-144.145
X188.405Y-164.918
X188.468Y-175.514
X188.5Y-136.5
X188.595Y-171.45
X189.0Y-138.5
X189.103Y-96.266
X189.73Y-159.004
X189.755Y-164.617
X190.261Y-101.044
X190.365Y-156.215
X190.4Y-154.2
X190.608Y-157.364
X190.8Y-158.4
X190.94Y-100.365
X191.4Y-93.4
X191.643Y-156.21
X191.754Y-99.552
X193.167Y-96.52
X194.5Y-139.0
X194.564Y-141.859
X195.072Y-90.551
X195.072Y-155.448
X195.199Y-137.858
X195.4Y-158.4
X195.707Y-140.97
X196.088Y-137.287
X197.35Y-168.148
X197.802Y-137.033
X199.517Y-141.859
X199.763Y-159.766
X200.017Y-157.992
X200.885Y-91.03
X202.184Y-152.781
X203.4Y-68.8
X203.446Y-151.892
X203.454Y-155.448
X204.4Y-153.0
X204.597Y-141.859
X205.605Y-154.559
X205.859Y-150.876
X206.248Y-157.988
X206.748Y-169.672
X207.772Y-94.996
X208.145Y-149.225
X209.938Y-154.835
X210.302Y-148.996
X210.431Y-152.908
X210.439Y-141.859
X210.566Y-160.528
X212.258Y-134.266
X212.344Y-93.091
X212.979Y-135.382
X213.081Y-148.191
X213.6Y-167.6
X213.8Y-143.75
X214.122Y-90.551
X214.4Y-172.0
X215.392Y-90.2
X215.9Y-141.859
X216.408Y-161.29
X216.781Y-146.304
X216.916Y-156.464
X217.043Y-93.091
X217.4Y-171.8
X217.932Y-163.322
X218.0Y-90.2
X218.44Y-160.782
X218.8Y-149.2
X219.06Y-174.43
X219.2Y-91.0
X221.01Y-167.03
X221.2Y-150.0
X224.028Y-153.924
X224.536Y-160.528
X224.79Y-172.212
X225.933Y-141.859
X229.2Y-68.4
X229.552Y-141.796
X229.679Y-137.033
X230.124Y-93.091
X230.632Y-169.418
X231.386Y-175.613
X231.394Y-152.4
X231.902Y-156.21
X232.029Y-139.319
X232.156Y-161.798
X232.221Y-174.538
X232.283Y-134.112
X233.934Y-169.672
X234.382Y-173.446
X234.45Y-144.6
X234.505Y-137.541
X235.077Y-135.826
X235.712Y-154.432
X235.966Y-160.02
X236.982Y-169.164
X237.228Y-165.354
X238.483Y-127.884
X239.717Y-127.884
X240.276Y-165.608
X240.287Y-169.161
X240.678Y-127.884
X241.718Y-127.884
X242.443Y-139.319
X243.07Y-159.766
X243.332Y-169.164
X245.356Y-162.433
X245.872Y-173.228
X246.0Y-74.2
X246.626Y-145.034
X247.396Y-139.319
X247.439Y-126.789
X248.46Y-126.63
X251.06Y-154.23
X251.268Y-170.638
X251.294Y-149.264
X252.976Y-156.718
X253.746Y-168.91
X254.46Y-151.23
X254.762Y-159.004
X254.86Y-174.03
X256.54Y-127.889
X257.302Y-168.656
X257.319Y-118.44
X257.8Y-124.8
X258.318Y-134.112
X258.8Y-86.8
X261.112Y-158.496
X261.26Y-165.83
X261.366Y-163.068
X261.874Y-170.688
X262.86Y-174.03
X263.26Y-168.63
X263.46Y-136.83
X265.4Y-127.0
X265.43Y-157.988
X265.6Y-124.8
X265.76Y-172.73
X266.06Y-150.63
X266.4Y-101.0
X266.7Y-163.576
X267.462Y-167.132
X267.716Y-170.18
X268.4Y-114.6
X268.554Y-136.83
X270.002Y-167.132
X270.86Y-136.43
X272.66Y-155.63
X273.304Y-160.274
X274.026Y-140.93
X274.066Y-134.874
X275.46Y-166.63
X275.66Y-155.63
X275.731Y-140.313
X275.836Y-136.398
X276.06Y-146.588
T3
X174.1Y-159.7
X175.37Y-159.7
X176.64Y-159.7
X177.91Y-159.7
X164.711Y-174.625
X165.981Y-174.625
X180.26Y-174.63
X181.53Y-174.63
X182.8Y-174.63
X184.07Y-174.63
T4
X182.11Y-137.287
X182.11Y-138.557
X182.11Y-139.827
X182.11Y-141.097
X170.26Y-174.63
X171.53Y-174.63
X172.8Y-174.63
X174.07Y-174.63
X175.34Y-174.63
X176.61Y-174.63
X177.88Y-174.63
T5
X201.92Y-161.81
X201.92Y-169.43
X204.46Y-161.81
X204.46Y-169.43
X192.52Y-161.61
X192.52Y-169.23
X195.06Y-161.61
X195.06Y-169.23
X226.04Y-101.949
X226.04Y-124.809
X233.66Y-101.949
X233.66Y-124.809
X194.04Y-101.949
X194.04Y-124.809
X201.66Y-101.949
X201.66Y-124.809
T6
X164.114Y-130.81
X166.114Y-130.81
X172.114Y-130.81
X174.114Y-130.81
X176.114Y-130.81
X178.114Y-130.81
X180.114Y-130.81
X182.114Y-130.81
X184.114Y-130.81
X186.114Y-130.81
X188.114Y-130.81
X190.114Y-130.81
X192.114Y-130.81
X194.114Y-130.81
X196.114Y-130.81
X198.114Y-130.81
X200.114Y-130.81
X202.114Y-130.81
X204.114Y-130.81
X206.114Y-130.81
X208.114Y-130.81
X210.114Y-130.81
X212.114Y-130.81
X214.114Y-130.81
X216.114Y-130.81
X218.114Y-130.81
X220.114Y-130.81
X222.114Y-130.81
X224.114Y-130.81
X226.114Y-130.81
X228.114Y-130.81
X230.114Y-130.81
X232.114Y-130.81
X234.114Y-130.81
X236.114Y-130.81
X238.114Y-130.81
X240.114Y-130.81
X242.114Y-130.81
X244.114Y-130.81
X246.114Y-130.81
X248.114Y-130.81
X250.114Y-130.81
X256.114Y-130.81
X258.114Y-130.81
X262.114Y-130.81
X264.114Y-130.81
T7
X239.26Y-172.212
X239.26Y-174.752
X210.58Y-174.03
X213.12Y-174.03
X215.66Y-174.03
X193.04Y-174.04
X195.58Y-174.04
X198.12Y-174.04
X236.72Y-172.212
X236.72Y-174.752
X177.538Y-149.098
X177.538Y-151.638
X180.078Y-149.098
X180.078Y-151.638
X182.618Y-149.098
X182.618Y-151.638
X185.158Y-149.098
X185.158Y-151.638
X150.868Y-158.75
X150.868Y-161.29
X150.868Y-163.83
X150.868Y-166.37
X244.34Y-172.212
X244.34Y-174.752
X201.93Y-174.04
X204.47Y-174.04
X207.01Y-174.04
X241.8Y-172.212
X241.8Y-174.752
T8
X180.86Y-96.43
X243.76Y-96.43
X213.85Y-60.43
X153.86Y-171.63
X273.86Y-171.63
X213.85Y-124.984
T0
M30
