%FSLAX45Y45*%
G04 Gerber Fmt 4.5, Leading zero omitted, Abs format (unit mm)*
G04 Created by KiCad (PCBNEW (5.99.0-3329-ga80190e20)) date 2020-09-20 12:04:47*
%MOMM*%
%LPD*%
G01*
G04 APERTURE LIST*
%TA.AperFunction,Profile*%
%ADD10C,0.050000*%
%TD*%
%ADD11C,0.200000*%
%ADD12C,0.180000*%
%ADD13C,0.250000*%
%ADD14C,0.300000*%
G04 APERTURE END LIST*
D10*
X27876000Y-17623000D02*
X14926000Y-17623000D01*
X14913244Y-13371270D02*
G75*
G02*
X20386000Y-5493000I5472756J2038270D01*
G01*
X14913244Y-17623000D02*
X14916000Y-17623000D01*
X20386000Y-5493000D02*
X22375978Y-5500056D01*
X27876000Y-13343000D02*
X27876000Y-17563000D01*
X22375978Y-5500056D02*
G75*
G02*
X27876000Y-13343000I10022J-5842944D01*
G01*
X14913244Y-17623000D02*
X14913244Y-17563000D01*
X27876000Y-17563000D02*
X27876000Y-17623000D01*
X14913244Y-17563000D02*
X14913244Y-13371270D01*
X14926000Y-17623000D02*
X14916000Y-17623000D01*
D11*
D12*
X22895000Y-9897864D02*
X23075000Y-10077864D01*
X23075000Y-9897864D02*
X22895000Y-10077864D01*
X22895000Y-12597864D02*
X23075000Y-12777864D01*
X23075000Y-12597864D02*
X22895000Y-12777864D01*
X19695000Y-9897864D02*
X19875000Y-10077864D01*
X19875000Y-9897864D02*
X19695000Y-10077864D01*
X19695000Y-12597864D02*
X19875000Y-12777864D01*
X19875000Y-12597864D02*
X19695000Y-12777864D01*
D13*
X22510000Y-11337864D02*
G75*
G03*
X22510000Y-11337864I-125000J0D01*
G01*
X20510000Y-11337864D02*
G75*
G03*
X20510000Y-11337864I-125000J0D01*
G01*
D14*
X22136000Y-10338864D02*
X22136000Y-10638864D01*
X21986000Y-10488864D02*
X22286000Y-10488864D01*
X22136000Y-12036864D02*
X22136000Y-12336864D01*
X21986000Y-12186864D02*
X22286000Y-12186864D01*
X24060000Y-11187864D02*
X24060000Y-11487864D01*
X23910000Y-11337864D02*
X24210000Y-11337864D01*
X18710000Y-11187864D02*
X18710000Y-11487864D01*
X18560000Y-11337864D02*
X18860000Y-11337864D01*
X20634000Y-10338864D02*
X20634000Y-10638864D01*
X20484000Y-10488864D02*
X20784000Y-10488864D01*
X20634000Y-12036864D02*
X20634000Y-12336864D01*
X20484000Y-12186864D02*
X20784000Y-12186864D01*
D11*
X14801119Y-17935976D02*
X14801119Y-17735976D01*
X14848738Y-17735976D01*
X14877309Y-17745500D01*
X14896357Y-17764548D01*
X14905881Y-17783595D01*
X14915405Y-17821691D01*
X14915405Y-17850262D01*
X14905881Y-17888357D01*
X14896357Y-17907405D01*
X14877309Y-17926452D01*
X14848738Y-17935976D01*
X14801119Y-17935976D01*
X15001119Y-17935976D02*
X15001119Y-17802643D01*
X15001119Y-17840738D02*
X15010643Y-17821691D01*
X15020166Y-17812167D01*
X15039214Y-17802643D01*
X15058262Y-17802643D01*
X15124928Y-17935976D02*
X15124928Y-17802643D01*
X15124928Y-17735976D02*
X15115405Y-17745500D01*
X15124928Y-17755024D01*
X15134452Y-17745500D01*
X15124928Y-17735976D01*
X15124928Y-17755024D01*
X15248738Y-17935976D02*
X15229690Y-17926452D01*
X15220166Y-17907405D01*
X15220166Y-17735976D01*
X15353500Y-17935976D02*
X15334452Y-17926452D01*
X15324928Y-17907405D01*
X15324928Y-17735976D01*
X15582071Y-17935976D02*
X15582071Y-17735976D01*
X15648738Y-17878833D01*
X15715405Y-17735976D01*
X15715405Y-17935976D01*
X15896357Y-17935976D02*
X15896357Y-17831214D01*
X15886833Y-17812167D01*
X15867786Y-17802643D01*
X15829690Y-17802643D01*
X15810643Y-17812167D01*
X15896357Y-17926452D02*
X15877309Y-17935976D01*
X15829690Y-17935976D01*
X15810643Y-17926452D01*
X15801119Y-17907405D01*
X15801119Y-17888357D01*
X15810643Y-17869310D01*
X15829690Y-17859786D01*
X15877309Y-17859786D01*
X15896357Y-17850262D01*
X15991595Y-17802643D02*
X15991595Y-18002643D01*
X15991595Y-17812167D02*
X16010643Y-17802643D01*
X16048738Y-17802643D01*
X16067786Y-17812167D01*
X16077309Y-17821691D01*
X16086833Y-17840738D01*
X16086833Y-17897881D01*
X16077309Y-17916929D01*
X16067786Y-17926452D01*
X16048738Y-17935976D01*
X16010643Y-17935976D01*
X15991595Y-17926452D01*
X16172547Y-17916929D02*
X16182071Y-17926452D01*
X16172547Y-17935976D01*
X16163024Y-17926452D01*
X16172547Y-17916929D01*
X16172547Y-17935976D01*
X16172547Y-17812167D02*
X16182071Y-17821691D01*
X16172547Y-17831214D01*
X16163024Y-17821691D01*
X16172547Y-17812167D01*
X16172547Y-17831214D01*
D12*
X14363500Y-18175500D02*
X14543500Y-18355500D01*
X14543500Y-18175500D02*
X14363500Y-18355500D01*
D11*
X14905881Y-18355976D02*
X14791595Y-18355976D01*
X14848738Y-18355976D02*
X14848738Y-18155976D01*
X14829690Y-18184548D01*
X14810643Y-18203595D01*
X14791595Y-18213119D01*
X14991595Y-18336929D02*
X15001119Y-18346452D01*
X14991595Y-18355976D01*
X14982071Y-18346452D01*
X14991595Y-18336929D01*
X14991595Y-18355976D01*
X15115405Y-18241691D02*
X15096357Y-18232167D01*
X15086833Y-18222643D01*
X15077309Y-18203595D01*
X15077309Y-18194072D01*
X15086833Y-18175024D01*
X15096357Y-18165500D01*
X15115405Y-18155976D01*
X15153500Y-18155976D01*
X15172547Y-18165500D01*
X15182071Y-18175024D01*
X15191595Y-18194072D01*
X15191595Y-18203595D01*
X15182071Y-18222643D01*
X15172547Y-18232167D01*
X15153500Y-18241691D01*
X15115405Y-18241691D01*
X15096357Y-18251214D01*
X15086833Y-18260738D01*
X15077309Y-18279786D01*
X15077309Y-18317881D01*
X15086833Y-18336929D01*
X15096357Y-18346452D01*
X15115405Y-18355976D01*
X15153500Y-18355976D01*
X15172547Y-18346452D01*
X15182071Y-18336929D01*
X15191595Y-18317881D01*
X15191595Y-18279786D01*
X15182071Y-18260738D01*
X15172547Y-18251214D01*
X15153500Y-18241691D01*
X15315405Y-18155976D02*
X15334452Y-18155976D01*
X15353500Y-18165500D01*
X15363024Y-18175024D01*
X15372547Y-18194072D01*
X15382071Y-18232167D01*
X15382071Y-18279786D01*
X15372547Y-18317881D01*
X15363024Y-18336929D01*
X15353500Y-18346452D01*
X15334452Y-18355976D01*
X15315405Y-18355976D01*
X15296357Y-18346452D01*
X15286833Y-18336929D01*
X15277309Y-18317881D01*
X15267786Y-18279786D01*
X15267786Y-18232167D01*
X15277309Y-18194072D01*
X15286833Y-18175024D01*
X15296357Y-18165500D01*
X15315405Y-18155976D01*
X15505881Y-18155976D02*
X15524928Y-18155976D01*
X15543976Y-18165500D01*
X15553500Y-18175024D01*
X15563024Y-18194072D01*
X15572547Y-18232167D01*
X15572547Y-18279786D01*
X15563024Y-18317881D01*
X15553500Y-18336929D01*
X15543976Y-18346452D01*
X15524928Y-18355976D01*
X15505881Y-18355976D01*
X15486833Y-18346452D01*
X15477309Y-18336929D01*
X15467786Y-18317881D01*
X15458262Y-18279786D01*
X15458262Y-18232167D01*
X15467786Y-18194072D01*
X15477309Y-18175024D01*
X15486833Y-18165500D01*
X15505881Y-18155976D01*
X15658262Y-18355976D02*
X15658262Y-18222643D01*
X15658262Y-18241691D02*
X15667786Y-18232167D01*
X15686833Y-18222643D01*
X15715405Y-18222643D01*
X15734452Y-18232167D01*
X15743976Y-18251214D01*
X15743976Y-18355976D01*
X15743976Y-18251214D02*
X15753500Y-18232167D01*
X15772547Y-18222643D01*
X15801119Y-18222643D01*
X15820166Y-18232167D01*
X15829690Y-18251214D01*
X15829690Y-18355976D01*
X15924928Y-18355976D02*
X15924928Y-18222643D01*
X15924928Y-18241691D02*
X15934452Y-18232167D01*
X15953500Y-18222643D01*
X15982071Y-18222643D01*
X16001119Y-18232167D01*
X16010643Y-18251214D01*
X16010643Y-18355976D01*
X16010643Y-18251214D02*
X16020166Y-18232167D01*
X16039214Y-18222643D01*
X16067786Y-18222643D01*
X16086833Y-18232167D01*
X16096357Y-18251214D01*
X16096357Y-18355976D01*
X16486833Y-18146452D02*
X16315405Y-18403595D01*
X16743976Y-18155976D02*
X16763024Y-18155976D01*
X16782071Y-18165500D01*
X16791595Y-18175024D01*
X16801119Y-18194072D01*
X16810643Y-18232167D01*
X16810643Y-18279786D01*
X16801119Y-18317881D01*
X16791595Y-18336929D01*
X16782071Y-18346452D01*
X16763024Y-18355976D01*
X16743976Y-18355976D01*
X16724928Y-18346452D01*
X16715405Y-18336929D01*
X16705881Y-18317881D01*
X16696357Y-18279786D01*
X16696357Y-18232167D01*
X16705881Y-18194072D01*
X16715405Y-18175024D01*
X16724928Y-18165500D01*
X16743976Y-18155976D01*
X16896357Y-18336929D02*
X16905881Y-18346452D01*
X16896357Y-18355976D01*
X16886833Y-18346452D01*
X16896357Y-18336929D01*
X16896357Y-18355976D01*
X17029690Y-18155976D02*
X17048738Y-18155976D01*
X17067786Y-18165500D01*
X17077309Y-18175024D01*
X17086833Y-18194072D01*
X17096357Y-18232167D01*
X17096357Y-18279786D01*
X17086833Y-18317881D01*
X17077309Y-18336929D01*
X17067786Y-18346452D01*
X17048738Y-18355976D01*
X17029690Y-18355976D01*
X17010643Y-18346452D01*
X17001119Y-18336929D01*
X16991595Y-18317881D01*
X16982071Y-18279786D01*
X16982071Y-18232167D01*
X16991595Y-18194072D01*
X17001119Y-18175024D01*
X17010643Y-18165500D01*
X17029690Y-18155976D01*
X17163024Y-18155976D02*
X17296357Y-18155976D01*
X17210643Y-18355976D01*
X17410643Y-18155976D02*
X17429690Y-18155976D01*
X17448738Y-18165500D01*
X17458262Y-18175024D01*
X17467786Y-18194072D01*
X17477309Y-18232167D01*
X17477309Y-18279786D01*
X17467786Y-18317881D01*
X17458262Y-18336929D01*
X17448738Y-18346452D01*
X17429690Y-18355976D01*
X17410643Y-18355976D01*
X17391595Y-18346452D01*
X17382071Y-18336929D01*
X17372548Y-18317881D01*
X17363024Y-18279786D01*
X17363024Y-18232167D01*
X17372548Y-18194072D01*
X17382071Y-18175024D01*
X17391595Y-18165500D01*
X17410643Y-18155976D01*
X17572548Y-18355976D02*
X17610643Y-18355976D01*
X17629690Y-18346452D01*
X17639214Y-18336929D01*
X17658262Y-18308357D01*
X17667786Y-18270262D01*
X17667786Y-18194072D01*
X17658262Y-18175024D01*
X17648738Y-18165500D01*
X17629690Y-18155976D01*
X17591595Y-18155976D01*
X17572548Y-18165500D01*
X17563024Y-18175024D01*
X17553500Y-18194072D01*
X17553500Y-18241691D01*
X17563024Y-18260738D01*
X17572548Y-18270262D01*
X17591595Y-18279786D01*
X17629690Y-18279786D01*
X17648738Y-18270262D01*
X17658262Y-18260738D01*
X17667786Y-18241691D01*
X17743976Y-18155976D02*
X17743976Y-18194072D01*
X17820167Y-18155976D02*
X17820167Y-18194072D01*
X18115405Y-18432167D02*
X18105881Y-18422643D01*
X18086833Y-18394072D01*
X18077309Y-18375024D01*
X18067786Y-18346452D01*
X18058262Y-18298833D01*
X18058262Y-18260738D01*
X18067786Y-18213119D01*
X18077309Y-18184548D01*
X18086833Y-18165500D01*
X18105881Y-18136929D01*
X18115405Y-18127405D01*
X18277309Y-18222643D02*
X18277309Y-18355976D01*
X18229690Y-18146452D02*
X18182071Y-18289310D01*
X18305881Y-18289310D01*
X18534452Y-18355976D02*
X18534452Y-18155976D01*
X18620167Y-18355976D02*
X18620167Y-18251214D01*
X18610643Y-18232167D01*
X18591595Y-18222643D01*
X18563024Y-18222643D01*
X18543976Y-18232167D01*
X18534452Y-18241691D01*
X18743976Y-18355976D02*
X18724928Y-18346452D01*
X18715405Y-18336929D01*
X18705881Y-18317881D01*
X18705881Y-18260738D01*
X18715405Y-18241691D01*
X18724928Y-18232167D01*
X18743976Y-18222643D01*
X18772548Y-18222643D01*
X18791595Y-18232167D01*
X18801119Y-18241691D01*
X18810643Y-18260738D01*
X18810643Y-18317881D01*
X18801119Y-18336929D01*
X18791595Y-18346452D01*
X18772548Y-18355976D01*
X18743976Y-18355976D01*
X18924928Y-18355976D02*
X18905881Y-18346452D01*
X18896357Y-18327405D01*
X18896357Y-18155976D01*
X19077309Y-18346452D02*
X19058262Y-18355976D01*
X19020167Y-18355976D01*
X19001119Y-18346452D01*
X18991595Y-18327405D01*
X18991595Y-18251214D01*
X19001119Y-18232167D01*
X19020167Y-18222643D01*
X19058262Y-18222643D01*
X19077309Y-18232167D01*
X19086833Y-18251214D01*
X19086833Y-18270262D01*
X18991595Y-18289310D01*
X19163024Y-18346452D02*
X19182071Y-18355976D01*
X19220167Y-18355976D01*
X19239214Y-18346452D01*
X19248738Y-18327405D01*
X19248738Y-18317881D01*
X19239214Y-18298833D01*
X19220167Y-18289310D01*
X19191595Y-18289310D01*
X19172548Y-18279786D01*
X19163024Y-18260738D01*
X19163024Y-18251214D01*
X19172548Y-18232167D01*
X19191595Y-18222643D01*
X19220167Y-18222643D01*
X19239214Y-18232167D01*
X19315405Y-18432167D02*
X19324928Y-18422643D01*
X19343976Y-18394072D01*
X19353500Y-18375024D01*
X19363024Y-18346452D01*
X19372548Y-18298833D01*
X19372548Y-18260738D01*
X19363024Y-18213119D01*
X19353500Y-18184548D01*
X19343976Y-18165500D01*
X19324928Y-18136929D01*
X19315405Y-18127405D01*
X19677309Y-18432167D02*
X19667786Y-18422643D01*
X19648738Y-18394072D01*
X19639214Y-18375024D01*
X19629690Y-18346452D01*
X19620167Y-18298833D01*
X19620167Y-18260738D01*
X19629690Y-18213119D01*
X19639214Y-18184548D01*
X19648738Y-18165500D01*
X19667786Y-18136929D01*
X19677309Y-18127405D01*
X19753500Y-18222643D02*
X19753500Y-18355976D01*
X19753500Y-18241691D02*
X19763024Y-18232167D01*
X19782071Y-18222643D01*
X19810643Y-18222643D01*
X19829690Y-18232167D01*
X19839214Y-18251214D01*
X19839214Y-18355976D01*
X19963024Y-18355976D02*
X19943976Y-18346452D01*
X19934452Y-18336929D01*
X19924928Y-18317881D01*
X19924928Y-18260738D01*
X19934452Y-18241691D01*
X19943976Y-18232167D01*
X19963024Y-18222643D01*
X19991595Y-18222643D01*
X20010643Y-18232167D01*
X20020167Y-18241691D01*
X20029690Y-18260738D01*
X20029690Y-18317881D01*
X20020167Y-18336929D01*
X20010643Y-18346452D01*
X19991595Y-18355976D01*
X19963024Y-18355976D01*
X20086833Y-18222643D02*
X20163024Y-18222643D01*
X20115405Y-18155976D02*
X20115405Y-18327405D01*
X20124928Y-18346452D01*
X20143976Y-18355976D01*
X20163024Y-18355976D01*
X20382071Y-18222643D02*
X20382071Y-18422643D01*
X20382071Y-18232167D02*
X20401119Y-18222643D01*
X20439214Y-18222643D01*
X20458262Y-18232167D01*
X20467786Y-18241691D01*
X20477309Y-18260738D01*
X20477309Y-18317881D01*
X20467786Y-18336929D01*
X20458262Y-18346452D01*
X20439214Y-18355976D01*
X20401119Y-18355976D01*
X20382071Y-18346452D01*
X20591595Y-18355976D02*
X20572548Y-18346452D01*
X20563024Y-18327405D01*
X20563024Y-18155976D01*
X20753500Y-18355976D02*
X20753500Y-18251214D01*
X20743976Y-18232167D01*
X20724928Y-18222643D01*
X20686833Y-18222643D01*
X20667786Y-18232167D01*
X20753500Y-18346452D02*
X20734452Y-18355976D01*
X20686833Y-18355976D01*
X20667786Y-18346452D01*
X20658262Y-18327405D01*
X20658262Y-18308357D01*
X20667786Y-18289310D01*
X20686833Y-18279786D01*
X20734452Y-18279786D01*
X20753500Y-18270262D01*
X20820167Y-18222643D02*
X20896357Y-18222643D01*
X20848738Y-18155976D02*
X20848738Y-18327405D01*
X20858262Y-18346452D01*
X20877309Y-18355976D01*
X20896357Y-18355976D01*
X21039214Y-18346452D02*
X21020167Y-18355976D01*
X20982071Y-18355976D01*
X20963024Y-18346452D01*
X20953500Y-18327405D01*
X20953500Y-18251214D01*
X20963024Y-18232167D01*
X20982071Y-18222643D01*
X21020167Y-18222643D01*
X21039214Y-18232167D01*
X21048738Y-18251214D01*
X21048738Y-18270262D01*
X20953500Y-18289310D01*
X21220167Y-18355976D02*
X21220167Y-18155976D01*
X21220167Y-18346452D02*
X21201119Y-18355976D01*
X21163024Y-18355976D01*
X21143976Y-18346452D01*
X21134452Y-18336929D01*
X21124928Y-18317881D01*
X21124928Y-18260738D01*
X21134452Y-18241691D01*
X21143976Y-18232167D01*
X21163024Y-18222643D01*
X21201119Y-18222643D01*
X21220167Y-18232167D01*
X21296357Y-18432167D02*
X21305881Y-18422643D01*
X21324928Y-18394072D01*
X21334452Y-18375024D01*
X21343976Y-18346452D01*
X21353500Y-18298833D01*
X21353500Y-18260738D01*
X21343976Y-18213119D01*
X21334452Y-18184548D01*
X21324928Y-18165500D01*
X21305881Y-18136929D01*
X21296357Y-18127405D01*
X14543500Y-18565500D02*
G75*
G03*
X14543500Y-18565500I-100000J0D01*
G01*
X14791595Y-18475024D02*
X14801119Y-18465500D01*
X14820166Y-18455976D01*
X14867786Y-18455976D01*
X14886833Y-18465500D01*
X14896357Y-18475024D01*
X14905881Y-18494072D01*
X14905881Y-18513119D01*
X14896357Y-18541691D01*
X14782071Y-18655976D01*
X14905881Y-18655976D01*
X14991595Y-18636929D02*
X15001119Y-18646452D01*
X14991595Y-18655976D01*
X14982071Y-18646452D01*
X14991595Y-18636929D01*
X14991595Y-18655976D01*
X15182071Y-18455976D02*
X15086833Y-18455976D01*
X15077309Y-18551214D01*
X15086833Y-18541691D01*
X15105881Y-18532167D01*
X15153500Y-18532167D01*
X15172547Y-18541691D01*
X15182071Y-18551214D01*
X15191595Y-18570262D01*
X15191595Y-18617881D01*
X15182071Y-18636929D01*
X15172547Y-18646452D01*
X15153500Y-18655976D01*
X15105881Y-18655976D01*
X15086833Y-18646452D01*
X15077309Y-18636929D01*
X15315405Y-18455976D02*
X15334452Y-18455976D01*
X15353500Y-18465500D01*
X15363024Y-18475024D01*
X15372547Y-18494072D01*
X15382071Y-18532167D01*
X15382071Y-18579786D01*
X15372547Y-18617881D01*
X15363024Y-18636929D01*
X15353500Y-18646452D01*
X15334452Y-18655976D01*
X15315405Y-18655976D01*
X15296357Y-18646452D01*
X15286833Y-18636929D01*
X15277309Y-18617881D01*
X15267786Y-18579786D01*
X15267786Y-18532167D01*
X15277309Y-18494072D01*
X15286833Y-18475024D01*
X15296357Y-18465500D01*
X15315405Y-18455976D01*
X15505881Y-18455976D02*
X15524928Y-18455976D01*
X15543976Y-18465500D01*
X15553500Y-18475024D01*
X15563024Y-18494072D01*
X15572547Y-18532167D01*
X15572547Y-18579786D01*
X15563024Y-18617881D01*
X15553500Y-18636929D01*
X15543976Y-18646452D01*
X15524928Y-18655976D01*
X15505881Y-18655976D01*
X15486833Y-18646452D01*
X15477309Y-18636929D01*
X15467786Y-18617881D01*
X15458262Y-18579786D01*
X15458262Y-18532167D01*
X15467786Y-18494072D01*
X15477309Y-18475024D01*
X15486833Y-18465500D01*
X15505881Y-18455976D01*
X15658262Y-18655976D02*
X15658262Y-18522643D01*
X15658262Y-18541691D02*
X15667786Y-18532167D01*
X15686833Y-18522643D01*
X15715405Y-18522643D01*
X15734452Y-18532167D01*
X15743976Y-18551214D01*
X15743976Y-18655976D01*
X15743976Y-18551214D02*
X15753500Y-18532167D01*
X15772547Y-18522643D01*
X15801119Y-18522643D01*
X15820166Y-18532167D01*
X15829690Y-18551214D01*
X15829690Y-18655976D01*
X15924928Y-18655976D02*
X15924928Y-18522643D01*
X15924928Y-18541691D02*
X15934452Y-18532167D01*
X15953500Y-18522643D01*
X15982071Y-18522643D01*
X16001119Y-18532167D01*
X16010643Y-18551214D01*
X16010643Y-18655976D01*
X16010643Y-18551214D02*
X16020166Y-18532167D01*
X16039214Y-18522643D01*
X16067786Y-18522643D01*
X16086833Y-18532167D01*
X16096357Y-18551214D01*
X16096357Y-18655976D01*
X16486833Y-18446452D02*
X16315405Y-18703595D01*
X16743976Y-18455976D02*
X16763024Y-18455976D01*
X16782071Y-18465500D01*
X16791595Y-18475024D01*
X16801119Y-18494072D01*
X16810643Y-18532167D01*
X16810643Y-18579786D01*
X16801119Y-18617881D01*
X16791595Y-18636929D01*
X16782071Y-18646452D01*
X16763024Y-18655976D01*
X16743976Y-18655976D01*
X16724928Y-18646452D01*
X16715405Y-18636929D01*
X16705881Y-18617881D01*
X16696357Y-18579786D01*
X16696357Y-18532167D01*
X16705881Y-18494072D01*
X16715405Y-18475024D01*
X16724928Y-18465500D01*
X16743976Y-18455976D01*
X16896357Y-18636929D02*
X16905881Y-18646452D01*
X16896357Y-18655976D01*
X16886833Y-18646452D01*
X16896357Y-18636929D01*
X16896357Y-18655976D01*
X17029690Y-18455976D02*
X17048738Y-18455976D01*
X17067786Y-18465500D01*
X17077309Y-18475024D01*
X17086833Y-18494072D01*
X17096357Y-18532167D01*
X17096357Y-18579786D01*
X17086833Y-18617881D01*
X17077309Y-18636929D01*
X17067786Y-18646452D01*
X17048738Y-18655976D01*
X17029690Y-18655976D01*
X17010643Y-18646452D01*
X17001119Y-18636929D01*
X16991595Y-18617881D01*
X16982071Y-18579786D01*
X16982071Y-18532167D01*
X16991595Y-18494072D01*
X17001119Y-18475024D01*
X17010643Y-18465500D01*
X17029690Y-18455976D01*
X17191595Y-18655976D02*
X17229690Y-18655976D01*
X17248738Y-18646452D01*
X17258262Y-18636929D01*
X17277309Y-18608357D01*
X17286833Y-18570262D01*
X17286833Y-18494072D01*
X17277309Y-18475024D01*
X17267786Y-18465500D01*
X17248738Y-18455976D01*
X17210643Y-18455976D01*
X17191595Y-18465500D01*
X17182071Y-18475024D01*
X17172548Y-18494072D01*
X17172548Y-18541691D01*
X17182071Y-18560738D01*
X17191595Y-18570262D01*
X17210643Y-18579786D01*
X17248738Y-18579786D01*
X17267786Y-18570262D01*
X17277309Y-18560738D01*
X17286833Y-18541691D01*
X17401119Y-18541691D02*
X17382071Y-18532167D01*
X17372548Y-18522643D01*
X17363024Y-18503595D01*
X17363024Y-18494072D01*
X17372548Y-18475024D01*
X17382071Y-18465500D01*
X17401119Y-18455976D01*
X17439214Y-18455976D01*
X17458262Y-18465500D01*
X17467786Y-18475024D01*
X17477309Y-18494072D01*
X17477309Y-18503595D01*
X17467786Y-18522643D01*
X17458262Y-18532167D01*
X17439214Y-18541691D01*
X17401119Y-18541691D01*
X17382071Y-18551214D01*
X17372548Y-18560738D01*
X17363024Y-18579786D01*
X17363024Y-18617881D01*
X17372548Y-18636929D01*
X17382071Y-18646452D01*
X17401119Y-18655976D01*
X17439214Y-18655976D01*
X17458262Y-18646452D01*
X17467786Y-18636929D01*
X17477309Y-18617881D01*
X17477309Y-18579786D01*
X17467786Y-18560738D01*
X17458262Y-18551214D01*
X17439214Y-18541691D01*
X17648738Y-18522643D02*
X17648738Y-18655976D01*
X17601119Y-18446452D02*
X17553500Y-18589310D01*
X17677309Y-18589310D01*
X17743976Y-18455976D02*
X17743976Y-18494072D01*
X17820167Y-18455976D02*
X17820167Y-18494072D01*
X18115405Y-18732167D02*
X18105881Y-18722643D01*
X18086833Y-18694072D01*
X18077309Y-18675024D01*
X18067786Y-18646452D01*
X18058262Y-18598833D01*
X18058262Y-18560738D01*
X18067786Y-18513119D01*
X18077309Y-18484548D01*
X18086833Y-18465500D01*
X18105881Y-18436929D01*
X18115405Y-18427405D01*
X18182071Y-18475024D02*
X18191595Y-18465500D01*
X18210643Y-18455976D01*
X18258262Y-18455976D01*
X18277309Y-18465500D01*
X18286833Y-18475024D01*
X18296357Y-18494072D01*
X18296357Y-18513119D01*
X18286833Y-18541691D01*
X18172548Y-18655976D01*
X18296357Y-18655976D01*
X18534452Y-18655976D02*
X18534452Y-18455976D01*
X18620167Y-18655976D02*
X18620167Y-18551214D01*
X18610643Y-18532167D01*
X18591595Y-18522643D01*
X18563024Y-18522643D01*
X18543976Y-18532167D01*
X18534452Y-18541691D01*
X18743976Y-18655976D02*
X18724928Y-18646452D01*
X18715405Y-18636929D01*
X18705881Y-18617881D01*
X18705881Y-18560738D01*
X18715405Y-18541691D01*
X18724928Y-18532167D01*
X18743976Y-18522643D01*
X18772548Y-18522643D01*
X18791595Y-18532167D01*
X18801119Y-18541691D01*
X18810643Y-18560738D01*
X18810643Y-18617881D01*
X18801119Y-18636929D01*
X18791595Y-18646452D01*
X18772548Y-18655976D01*
X18743976Y-18655976D01*
X18924928Y-18655976D02*
X18905881Y-18646452D01*
X18896357Y-18627405D01*
X18896357Y-18455976D01*
X19077309Y-18646452D02*
X19058262Y-18655976D01*
X19020167Y-18655976D01*
X19001119Y-18646452D01*
X18991595Y-18627405D01*
X18991595Y-18551214D01*
X19001119Y-18532167D01*
X19020167Y-18522643D01*
X19058262Y-18522643D01*
X19077309Y-18532167D01*
X19086833Y-18551214D01*
X19086833Y-18570262D01*
X18991595Y-18589310D01*
X19163024Y-18646452D02*
X19182071Y-18655976D01*
X19220167Y-18655976D01*
X19239214Y-18646452D01*
X19248738Y-18627405D01*
X19248738Y-18617881D01*
X19239214Y-18598833D01*
X19220167Y-18589310D01*
X19191595Y-18589310D01*
X19172548Y-18579786D01*
X19163024Y-18560738D01*
X19163024Y-18551214D01*
X19172548Y-18532167D01*
X19191595Y-18522643D01*
X19220167Y-18522643D01*
X19239214Y-18532167D01*
X19315405Y-18732167D02*
X19324928Y-18722643D01*
X19343976Y-18694072D01*
X19353500Y-18675024D01*
X19363024Y-18646452D01*
X19372548Y-18598833D01*
X19372548Y-18560738D01*
X19363024Y-18513119D01*
X19353500Y-18484548D01*
X19343976Y-18465500D01*
X19324928Y-18436929D01*
X19315405Y-18427405D01*
X19677309Y-18732167D02*
X19667786Y-18722643D01*
X19648738Y-18694072D01*
X19639214Y-18675024D01*
X19629690Y-18646452D01*
X19620167Y-18598833D01*
X19620167Y-18560738D01*
X19629690Y-18513119D01*
X19639214Y-18484548D01*
X19648738Y-18465500D01*
X19667786Y-18436929D01*
X19677309Y-18427405D01*
X19753500Y-18522643D02*
X19753500Y-18655976D01*
X19753500Y-18541691D02*
X19763024Y-18532167D01*
X19782071Y-18522643D01*
X19810643Y-18522643D01*
X19829690Y-18532167D01*
X19839214Y-18551214D01*
X19839214Y-18655976D01*
X19963024Y-18655976D02*
X19943976Y-18646452D01*
X19934452Y-18636929D01*
X19924928Y-18617881D01*
X19924928Y-18560738D01*
X19934452Y-18541691D01*
X19943976Y-18532167D01*
X19963024Y-18522643D01*
X19991595Y-18522643D01*
X20010643Y-18532167D01*
X20020167Y-18541691D01*
X20029690Y-18560738D01*
X20029690Y-18617881D01*
X20020167Y-18636929D01*
X20010643Y-18646452D01*
X19991595Y-18655976D01*
X19963024Y-18655976D01*
X20086833Y-18522643D02*
X20163024Y-18522643D01*
X20115405Y-18455976D02*
X20115405Y-18627405D01*
X20124928Y-18646452D01*
X20143976Y-18655976D01*
X20163024Y-18655976D01*
X20382071Y-18522643D02*
X20382071Y-18722643D01*
X20382071Y-18532167D02*
X20401119Y-18522643D01*
X20439214Y-18522643D01*
X20458262Y-18532167D01*
X20467786Y-18541691D01*
X20477309Y-18560738D01*
X20477309Y-18617881D01*
X20467786Y-18636929D01*
X20458262Y-18646452D01*
X20439214Y-18655976D01*
X20401119Y-18655976D01*
X20382071Y-18646452D01*
X20591595Y-18655976D02*
X20572548Y-18646452D01*
X20563024Y-18627405D01*
X20563024Y-18455976D01*
X20753500Y-18655976D02*
X20753500Y-18551214D01*
X20743976Y-18532167D01*
X20724928Y-18522643D01*
X20686833Y-18522643D01*
X20667786Y-18532167D01*
X20753500Y-18646452D02*
X20734452Y-18655976D01*
X20686833Y-18655976D01*
X20667786Y-18646452D01*
X20658262Y-18627405D01*
X20658262Y-18608357D01*
X20667786Y-18589310D01*
X20686833Y-18579786D01*
X20734452Y-18579786D01*
X20753500Y-18570262D01*
X20820167Y-18522643D02*
X20896357Y-18522643D01*
X20848738Y-18455976D02*
X20848738Y-18627405D01*
X20858262Y-18646452D01*
X20877309Y-18655976D01*
X20896357Y-18655976D01*
X21039214Y-18646452D02*
X21020167Y-18655976D01*
X20982071Y-18655976D01*
X20963024Y-18646452D01*
X20953500Y-18627405D01*
X20953500Y-18551214D01*
X20963024Y-18532167D01*
X20982071Y-18522643D01*
X21020167Y-18522643D01*
X21039214Y-18532167D01*
X21048738Y-18551214D01*
X21048738Y-18570262D01*
X20953500Y-18589310D01*
X21220167Y-18655976D02*
X21220167Y-18455976D01*
X21220167Y-18646452D02*
X21201119Y-18655976D01*
X21163024Y-18655976D01*
X21143976Y-18646452D01*
X21134452Y-18636929D01*
X21124928Y-18617881D01*
X21124928Y-18560738D01*
X21134452Y-18541691D01*
X21143976Y-18532167D01*
X21163024Y-18522643D01*
X21201119Y-18522643D01*
X21220167Y-18532167D01*
X21296357Y-18732167D02*
X21305881Y-18722643D01*
X21324928Y-18694072D01*
X21334452Y-18675024D01*
X21343976Y-18646452D01*
X21353500Y-18598833D01*
X21353500Y-18560738D01*
X21343976Y-18513119D01*
X21334452Y-18484548D01*
X21324928Y-18465500D01*
X21305881Y-18436929D01*
X21296357Y-18427405D01*
X14443500Y-18785500D02*
X14443500Y-18985500D01*
X14343500Y-18885500D02*
X14543500Y-18885500D01*
X14782071Y-18775976D02*
X14905881Y-18775976D01*
X14839214Y-18852167D01*
X14867786Y-18852167D01*
X14886833Y-18861691D01*
X14896357Y-18871214D01*
X14905881Y-18890262D01*
X14905881Y-18937881D01*
X14896357Y-18956929D01*
X14886833Y-18966452D01*
X14867786Y-18975976D01*
X14810643Y-18975976D01*
X14791595Y-18966452D01*
X14782071Y-18956929D01*
X14991595Y-18956929D02*
X15001119Y-18966452D01*
X14991595Y-18975976D01*
X14982071Y-18966452D01*
X14991595Y-18956929D01*
X14991595Y-18975976D01*
X15124928Y-18775976D02*
X15143976Y-18775976D01*
X15163024Y-18785500D01*
X15172547Y-18795024D01*
X15182071Y-18814072D01*
X15191595Y-18852167D01*
X15191595Y-18899786D01*
X15182071Y-18937881D01*
X15172547Y-18956929D01*
X15163024Y-18966452D01*
X15143976Y-18975976D01*
X15124928Y-18975976D01*
X15105881Y-18966452D01*
X15096357Y-18956929D01*
X15086833Y-18937881D01*
X15077309Y-18899786D01*
X15077309Y-18852167D01*
X15086833Y-18814072D01*
X15096357Y-18795024D01*
X15105881Y-18785500D01*
X15124928Y-18775976D01*
X15315405Y-18775976D02*
X15334452Y-18775976D01*
X15353500Y-18785500D01*
X15363024Y-18795024D01*
X15372547Y-18814072D01*
X15382071Y-18852167D01*
X15382071Y-18899786D01*
X15372547Y-18937881D01*
X15363024Y-18956929D01*
X15353500Y-18966452D01*
X15334452Y-18975976D01*
X15315405Y-18975976D01*
X15296357Y-18966452D01*
X15286833Y-18956929D01*
X15277309Y-18937881D01*
X15267786Y-18899786D01*
X15267786Y-18852167D01*
X15277309Y-18814072D01*
X15286833Y-18795024D01*
X15296357Y-18785500D01*
X15315405Y-18775976D01*
X15505881Y-18775976D02*
X15524928Y-18775976D01*
X15543976Y-18785500D01*
X15553500Y-18795024D01*
X15563024Y-18814072D01*
X15572547Y-18852167D01*
X15572547Y-18899786D01*
X15563024Y-18937881D01*
X15553500Y-18956929D01*
X15543976Y-18966452D01*
X15524928Y-18975976D01*
X15505881Y-18975976D01*
X15486833Y-18966452D01*
X15477309Y-18956929D01*
X15467786Y-18937881D01*
X15458262Y-18899786D01*
X15458262Y-18852167D01*
X15467786Y-18814072D01*
X15477309Y-18795024D01*
X15486833Y-18785500D01*
X15505881Y-18775976D01*
X15658262Y-18975976D02*
X15658262Y-18842643D01*
X15658262Y-18861691D02*
X15667786Y-18852167D01*
X15686833Y-18842643D01*
X15715405Y-18842643D01*
X15734452Y-18852167D01*
X15743976Y-18871214D01*
X15743976Y-18975976D01*
X15743976Y-18871214D02*
X15753500Y-18852167D01*
X15772547Y-18842643D01*
X15801119Y-18842643D01*
X15820166Y-18852167D01*
X15829690Y-18871214D01*
X15829690Y-18975976D01*
X15924928Y-18975976D02*
X15924928Y-18842643D01*
X15924928Y-18861691D02*
X15934452Y-18852167D01*
X15953500Y-18842643D01*
X15982071Y-18842643D01*
X16001119Y-18852167D01*
X16010643Y-18871214D01*
X16010643Y-18975976D01*
X16010643Y-18871214D02*
X16020166Y-18852167D01*
X16039214Y-18842643D01*
X16067786Y-18842643D01*
X16086833Y-18852167D01*
X16096357Y-18871214D01*
X16096357Y-18975976D01*
X16486833Y-18766452D02*
X16315405Y-19023595D01*
X16743976Y-18775976D02*
X16763024Y-18775976D01*
X16782071Y-18785500D01*
X16791595Y-18795024D01*
X16801119Y-18814072D01*
X16810643Y-18852167D01*
X16810643Y-18899786D01*
X16801119Y-18937881D01*
X16791595Y-18956929D01*
X16782071Y-18966452D01*
X16763024Y-18975976D01*
X16743976Y-18975976D01*
X16724928Y-18966452D01*
X16715405Y-18956929D01*
X16705881Y-18937881D01*
X16696357Y-18899786D01*
X16696357Y-18852167D01*
X16705881Y-18814072D01*
X16715405Y-18795024D01*
X16724928Y-18785500D01*
X16743976Y-18775976D01*
X16896357Y-18956929D02*
X16905881Y-18966452D01*
X16896357Y-18975976D01*
X16886833Y-18966452D01*
X16896357Y-18956929D01*
X16896357Y-18975976D01*
X17096357Y-18975976D02*
X16982071Y-18975976D01*
X17039214Y-18975976D02*
X17039214Y-18775976D01*
X17020167Y-18804548D01*
X17001119Y-18823595D01*
X16982071Y-18833119D01*
X17286833Y-18975976D02*
X17172548Y-18975976D01*
X17229690Y-18975976D02*
X17229690Y-18775976D01*
X17210643Y-18804548D01*
X17191595Y-18823595D01*
X17172548Y-18833119D01*
X17401119Y-18861691D02*
X17382071Y-18852167D01*
X17372548Y-18842643D01*
X17363024Y-18823595D01*
X17363024Y-18814072D01*
X17372548Y-18795024D01*
X17382071Y-18785500D01*
X17401119Y-18775976D01*
X17439214Y-18775976D01*
X17458262Y-18785500D01*
X17467786Y-18795024D01*
X17477309Y-18814072D01*
X17477309Y-18823595D01*
X17467786Y-18842643D01*
X17458262Y-18852167D01*
X17439214Y-18861691D01*
X17401119Y-18861691D01*
X17382071Y-18871214D01*
X17372548Y-18880738D01*
X17363024Y-18899786D01*
X17363024Y-18937881D01*
X17372548Y-18956929D01*
X17382071Y-18966452D01*
X17401119Y-18975976D01*
X17439214Y-18975976D01*
X17458262Y-18966452D01*
X17467786Y-18956929D01*
X17477309Y-18937881D01*
X17477309Y-18899786D01*
X17467786Y-18880738D01*
X17458262Y-18871214D01*
X17439214Y-18861691D01*
X17667786Y-18975976D02*
X17553500Y-18975976D01*
X17610643Y-18975976D02*
X17610643Y-18775976D01*
X17591595Y-18804548D01*
X17572548Y-18823595D01*
X17553500Y-18833119D01*
X17743976Y-18775976D02*
X17743976Y-18814072D01*
X17820167Y-18775976D02*
X17820167Y-18814072D01*
X18115405Y-19052167D02*
X18105881Y-19042643D01*
X18086833Y-19014072D01*
X18077309Y-18995024D01*
X18067786Y-18966452D01*
X18058262Y-18918833D01*
X18058262Y-18880738D01*
X18067786Y-18833119D01*
X18077309Y-18804548D01*
X18086833Y-18785500D01*
X18105881Y-18756929D01*
X18115405Y-18747405D01*
X18277309Y-18775976D02*
X18239214Y-18775976D01*
X18220167Y-18785500D01*
X18210643Y-18795024D01*
X18191595Y-18823595D01*
X18182071Y-18861691D01*
X18182071Y-18937881D01*
X18191595Y-18956929D01*
X18201119Y-18966452D01*
X18220167Y-18975976D01*
X18258262Y-18975976D01*
X18277309Y-18966452D01*
X18286833Y-18956929D01*
X18296357Y-18937881D01*
X18296357Y-18890262D01*
X18286833Y-18871214D01*
X18277309Y-18861691D01*
X18258262Y-18852167D01*
X18220167Y-18852167D01*
X18201119Y-18861691D01*
X18191595Y-18871214D01*
X18182071Y-18890262D01*
X18534452Y-18975976D02*
X18534452Y-18775976D01*
X18620167Y-18975976D02*
X18620167Y-18871214D01*
X18610643Y-18852167D01*
X18591595Y-18842643D01*
X18563024Y-18842643D01*
X18543976Y-18852167D01*
X18534452Y-18861691D01*
X18743976Y-18975976D02*
X18724928Y-18966452D01*
X18715405Y-18956929D01*
X18705881Y-18937881D01*
X18705881Y-18880738D01*
X18715405Y-18861691D01*
X18724928Y-18852167D01*
X18743976Y-18842643D01*
X18772548Y-18842643D01*
X18791595Y-18852167D01*
X18801119Y-18861691D01*
X18810643Y-18880738D01*
X18810643Y-18937881D01*
X18801119Y-18956929D01*
X18791595Y-18966452D01*
X18772548Y-18975976D01*
X18743976Y-18975976D01*
X18924928Y-18975976D02*
X18905881Y-18966452D01*
X18896357Y-18947405D01*
X18896357Y-18775976D01*
X19077309Y-18966452D02*
X19058262Y-18975976D01*
X19020167Y-18975976D01*
X19001119Y-18966452D01*
X18991595Y-18947405D01*
X18991595Y-18871214D01*
X19001119Y-18852167D01*
X19020167Y-18842643D01*
X19058262Y-18842643D01*
X19077309Y-18852167D01*
X19086833Y-18871214D01*
X19086833Y-18890262D01*
X18991595Y-18909310D01*
X19163024Y-18966452D02*
X19182071Y-18975976D01*
X19220167Y-18975976D01*
X19239214Y-18966452D01*
X19248738Y-18947405D01*
X19248738Y-18937881D01*
X19239214Y-18918833D01*
X19220167Y-18909310D01*
X19191595Y-18909310D01*
X19172548Y-18899786D01*
X19163024Y-18880738D01*
X19163024Y-18871214D01*
X19172548Y-18852167D01*
X19191595Y-18842643D01*
X19220167Y-18842643D01*
X19239214Y-18852167D01*
X19315405Y-19052167D02*
X19324928Y-19042643D01*
X19343976Y-19014072D01*
X19353500Y-18995024D01*
X19363024Y-18966452D01*
X19372548Y-18918833D01*
X19372548Y-18880738D01*
X19363024Y-18833119D01*
X19353500Y-18804548D01*
X19343976Y-18785500D01*
X19324928Y-18756929D01*
X19315405Y-18747405D01*
X19677309Y-19052167D02*
X19667786Y-19042643D01*
X19648738Y-19014072D01*
X19639214Y-18995024D01*
X19629690Y-18966452D01*
X19620167Y-18918833D01*
X19620167Y-18880738D01*
X19629690Y-18833119D01*
X19639214Y-18804548D01*
X19648738Y-18785500D01*
X19667786Y-18756929D01*
X19677309Y-18747405D01*
X19753500Y-18842643D02*
X19753500Y-18975976D01*
X19753500Y-18861691D02*
X19763024Y-18852167D01*
X19782071Y-18842643D01*
X19810643Y-18842643D01*
X19829690Y-18852167D01*
X19839214Y-18871214D01*
X19839214Y-18975976D01*
X19963024Y-18975976D02*
X19943976Y-18966452D01*
X19934452Y-18956929D01*
X19924928Y-18937881D01*
X19924928Y-18880738D01*
X19934452Y-18861691D01*
X19943976Y-18852167D01*
X19963024Y-18842643D01*
X19991595Y-18842643D01*
X20010643Y-18852167D01*
X20020167Y-18861691D01*
X20029690Y-18880738D01*
X20029690Y-18937881D01*
X20020167Y-18956929D01*
X20010643Y-18966452D01*
X19991595Y-18975976D01*
X19963024Y-18975976D01*
X20086833Y-18842643D02*
X20163024Y-18842643D01*
X20115405Y-18775976D02*
X20115405Y-18947405D01*
X20124928Y-18966452D01*
X20143976Y-18975976D01*
X20163024Y-18975976D01*
X20382071Y-18842643D02*
X20382071Y-19042643D01*
X20382071Y-18852167D02*
X20401119Y-18842643D01*
X20439214Y-18842643D01*
X20458262Y-18852167D01*
X20467786Y-18861691D01*
X20477309Y-18880738D01*
X20477309Y-18937881D01*
X20467786Y-18956929D01*
X20458262Y-18966452D01*
X20439214Y-18975976D01*
X20401119Y-18975976D01*
X20382071Y-18966452D01*
X20591595Y-18975976D02*
X20572548Y-18966452D01*
X20563024Y-18947405D01*
X20563024Y-18775976D01*
X20753500Y-18975976D02*
X20753500Y-18871214D01*
X20743976Y-18852167D01*
X20724928Y-18842643D01*
X20686833Y-18842643D01*
X20667786Y-18852167D01*
X20753500Y-18966452D02*
X20734452Y-18975976D01*
X20686833Y-18975976D01*
X20667786Y-18966452D01*
X20658262Y-18947405D01*
X20658262Y-18928357D01*
X20667786Y-18909310D01*
X20686833Y-18899786D01*
X20734452Y-18899786D01*
X20753500Y-18890262D01*
X20820167Y-18842643D02*
X20896357Y-18842643D01*
X20848738Y-18775976D02*
X20848738Y-18947405D01*
X20858262Y-18966452D01*
X20877309Y-18975976D01*
X20896357Y-18975976D01*
X21039214Y-18966452D02*
X21020167Y-18975976D01*
X20982071Y-18975976D01*
X20963024Y-18966452D01*
X20953500Y-18947405D01*
X20953500Y-18871214D01*
X20963024Y-18852167D01*
X20982071Y-18842643D01*
X21020167Y-18842643D01*
X21039214Y-18852167D01*
X21048738Y-18871214D01*
X21048738Y-18890262D01*
X20953500Y-18909310D01*
X21220167Y-18975976D02*
X21220167Y-18775976D01*
X21220167Y-18966452D02*
X21201119Y-18975976D01*
X21163024Y-18975976D01*
X21143976Y-18966452D01*
X21134452Y-18956929D01*
X21124928Y-18937881D01*
X21124928Y-18880738D01*
X21134452Y-18861691D01*
X21143976Y-18852167D01*
X21163024Y-18842643D01*
X21201119Y-18842643D01*
X21220167Y-18852167D01*
X21296357Y-19052167D02*
X21305881Y-19042643D01*
X21324928Y-19014072D01*
X21334452Y-18995024D01*
X21343976Y-18966452D01*
X21353500Y-18918833D01*
X21353500Y-18880738D01*
X21343976Y-18833119D01*
X21334452Y-18804548D01*
X21324928Y-18785500D01*
X21305881Y-18756929D01*
X21296357Y-18747405D01*
M02*
