G04 #@! TF.GenerationSoftware,KiCad,Pcbnew,(5.1.0-1548-g3fefe01d2)*
G04 #@! TF.CreationDate,2019-08-20T19:22:30-04:00*
G04 #@! TF.ProjectId,MotorcycleSpeedo,4d6f746f-7263-4796-936c-655370656564,rev?*
G04 #@! TF.SameCoordinates,Original*
G04 #@! TF.FileFunction,Soldermask,Bot*
G04 #@! TF.FilePolarity,Negative*
%FSLAX46Y46*%
G04 Gerber Fmt 4.6, Leading zero omitted, Abs format (unit mm)*
G04 Created by KiCad (PCBNEW (5.1.0-1548-g3fefe01d2)) date 2019-08-20 19:22:30*
%MOMM*%
%LPD*%
G04 APERTURE LIST*
%ADD10C,0.100000*%
%ADD11C,0.400000*%
%ADD12C,0.200000*%
%ADD13C,0.300000*%
%ADD14C,0.150000*%
%ADD15C,0.500000*%
G04 APERTURE END LIST*
D10*
G36*
X106000000Y-87000000D02*
G01*
X95800000Y-87100000D01*
X96400000Y-76800000D01*
X109800000Y-76700000D01*
X106000000Y-87000000D01*
G37*
X106000000Y-87000000D02*
X95800000Y-87100000D01*
X96400000Y-76800000D01*
X109800000Y-76700000D01*
X106000000Y-87000000D01*
D11*
X130900000Y-101800000D02*
X130900000Y-97300000D01*
D10*
X127100000Y-104400000D02*
X122000000Y-104100000D01*
D12*
X127200000Y-103300000D02*
X123900000Y-100100000D01*
D13*
X128600000Y-101900000D02*
X126300000Y-98400000D01*
X136728571Y-94695238D02*
X136633333Y-94600000D01*
X136442857Y-94504761D01*
X135966666Y-94504761D01*
X135776190Y-94600000D01*
X135680952Y-94695238D01*
X135585714Y-94885714D01*
X135585714Y-95076190D01*
X135680952Y-95361904D01*
X136823809Y-96504761D01*
X135585714Y-96504761D01*
X134728571Y-95742857D02*
X133204761Y-95742857D01*
X132347619Y-94695238D02*
X132252380Y-94600000D01*
X132061904Y-94504761D01*
X131585714Y-94504761D01*
X131395238Y-94600000D01*
X131300000Y-94695238D01*
X131204761Y-94885714D01*
X131204761Y-95076190D01*
X131300000Y-95361904D01*
X132442857Y-96504761D01*
X131204761Y-96504761D01*
X130347619Y-95742857D02*
X128823809Y-95742857D01*
X127871428Y-96314285D02*
X127776190Y-96409523D01*
X127871428Y-96504761D01*
X127966666Y-96409523D01*
X127871428Y-96314285D01*
X127871428Y-96504761D01*
X127109523Y-94504761D02*
X125871428Y-94504761D01*
X126538095Y-95266666D01*
X126252380Y-95266666D01*
X126061904Y-95361904D01*
X125966666Y-95457142D01*
X125871428Y-95647619D01*
X125871428Y-96123809D01*
X125966666Y-96314285D01*
X126061904Y-96409523D01*
X126252380Y-96504761D01*
X126823809Y-96504761D01*
X127014285Y-96409523D01*
X127109523Y-96314285D01*
D14*
X127619047Y-106652380D02*
X128190476Y-106652380D01*
X127904761Y-106652380D02*
X127904761Y-105652380D01*
X128000000Y-105795238D01*
X128095238Y-105890476D01*
X128190476Y-105938095D01*
X127190476Y-106271428D02*
X126428571Y-106271428D01*
X125428571Y-106652380D02*
X126000000Y-106652380D01*
X125714285Y-106652380D02*
X125714285Y-105652380D01*
X125809523Y-105795238D01*
X125904761Y-105890476D01*
X126000000Y-105938095D01*
X125000000Y-106271428D02*
X124238095Y-106271428D01*
X123761904Y-106557142D02*
X123714285Y-106604761D01*
X123761904Y-106652380D01*
X123809523Y-106604761D01*
X123761904Y-106557142D01*
X123761904Y-106652380D01*
X122761904Y-106652380D02*
X123333333Y-106652380D01*
X123047619Y-106652380D02*
X123047619Y-105652380D01*
X123142857Y-105795238D01*
X123238095Y-105890476D01*
X123333333Y-105938095D01*
X121857142Y-105652380D02*
X122333333Y-105652380D01*
X122380952Y-106128571D01*
X122333333Y-106080952D01*
X122238095Y-106033333D01*
X122000000Y-106033333D01*
X121904761Y-106080952D01*
X121857142Y-106128571D01*
X121809523Y-106223809D01*
X121809523Y-106461904D01*
X121857142Y-106557142D01*
X121904761Y-106604761D01*
X122000000Y-106652380D01*
X122238095Y-106652380D01*
X122333333Y-106604761D01*
X122380952Y-106557142D01*
D10*
G36*
X135400000Y-80900000D02*
G01*
X136300000Y-81200000D01*
X137200000Y-83100000D01*
X137500000Y-84800000D01*
X136500000Y-86400000D01*
X135700000Y-87100000D01*
X133500000Y-87600000D01*
X133500000Y-87700000D01*
X131500000Y-85900000D01*
X130700000Y-83900000D01*
X131500000Y-81800000D01*
X133400000Y-80800000D01*
X135400000Y-80900000D01*
G37*
X135400000Y-80900000D02*
X136300000Y-81200000D01*
X137200000Y-83100000D01*
X137500000Y-84800000D01*
X136500000Y-86400000D01*
X135700000Y-87100000D01*
X133500000Y-87600000D01*
X133500000Y-87700000D01*
X131500000Y-85900000D01*
X130700000Y-83900000D01*
X131500000Y-81800000D01*
X133400000Y-80800000D01*
X135400000Y-80900000D01*
G36*
X119400000Y-79800000D02*
G01*
X120300000Y-80100000D01*
X121200000Y-82000000D01*
X121500000Y-83700000D01*
X120500000Y-85300000D01*
X119700000Y-86000000D01*
X117500000Y-86500000D01*
X117500000Y-86600000D01*
X115500000Y-84800000D01*
X114700000Y-82800000D01*
X115500000Y-80700000D01*
X117400000Y-79700000D01*
X119400000Y-79800000D01*
G37*
X119400000Y-79800000D02*
X120300000Y-80100000D01*
X121200000Y-82000000D01*
X121500000Y-83700000D01*
X120500000Y-85300000D01*
X119700000Y-86000000D01*
X117500000Y-86500000D01*
X117500000Y-86600000D01*
X115500000Y-84800000D01*
X114700000Y-82800000D01*
X115500000Y-80700000D01*
X117400000Y-79700000D01*
X119400000Y-79800000D01*
G36*
X127300000Y-85000000D02*
G01*
X128200000Y-85300000D01*
X129100000Y-87200000D01*
X129400000Y-88900000D01*
X128400000Y-90500000D01*
X127600000Y-91200000D01*
X125400000Y-91700000D01*
X125400000Y-91800000D01*
X123400000Y-90000000D01*
X122600000Y-88000000D01*
X123400000Y-85900000D01*
X125300000Y-84900000D01*
X127300000Y-85000000D01*
G37*
X127300000Y-85000000D02*
X128200000Y-85300000D01*
X129100000Y-87200000D01*
X129400000Y-88900000D01*
X128400000Y-90500000D01*
X127600000Y-91200000D01*
X125400000Y-91700000D01*
X125400000Y-91800000D01*
X123400000Y-90000000D01*
X122600000Y-88000000D01*
X123400000Y-85900000D01*
X125300000Y-84900000D01*
X127300000Y-85000000D01*
G36*
X112200000Y-84000000D02*
G01*
X113100000Y-84300000D01*
X114000000Y-86200000D01*
X114300000Y-87900000D01*
X113300000Y-89500000D01*
X112500000Y-90200000D01*
X110300000Y-90700000D01*
X110300000Y-90800000D01*
X108300000Y-89000000D01*
X107500000Y-87000000D01*
X108300000Y-84900000D01*
X110200000Y-83900000D01*
X112200000Y-84000000D01*
G37*
X112200000Y-84000000D02*
X113100000Y-84300000D01*
X114000000Y-86200000D01*
X114300000Y-87900000D01*
X113300000Y-89500000D01*
X112500000Y-90200000D01*
X110300000Y-90700000D01*
X110300000Y-90800000D01*
X108300000Y-89000000D01*
X107500000Y-87000000D01*
X108300000Y-84900000D01*
X110200000Y-83900000D01*
X112200000Y-84000000D01*
G36*
X104300000Y-88000000D02*
G01*
X105200000Y-88300000D01*
X106100000Y-90200000D01*
X106400000Y-91900000D01*
X105400000Y-93500000D01*
X104600000Y-94200000D01*
X102400000Y-94700000D01*
X102400000Y-94800000D01*
X100400000Y-93000000D01*
X99600000Y-91000000D01*
X100400000Y-88900000D01*
X102300000Y-87900000D01*
X104300000Y-88000000D01*
G37*
X104300000Y-88000000D02*
X105200000Y-88300000D01*
X106100000Y-90200000D01*
X106400000Y-91900000D01*
X105400000Y-93500000D01*
X104600000Y-94200000D01*
X102400000Y-94700000D01*
X102400000Y-94800000D01*
X100400000Y-93000000D01*
X99600000Y-91000000D01*
X100400000Y-88900000D01*
X102300000Y-87900000D01*
X104300000Y-88000000D01*
G36*
X111200000Y-93100000D02*
G01*
X112100000Y-93400000D01*
X113000000Y-95300000D01*
X113300000Y-97000000D01*
X112300000Y-98600000D01*
X111500000Y-99300000D01*
X109300000Y-99800000D01*
X109300000Y-99900000D01*
X107300000Y-98100000D01*
X106500000Y-96100000D01*
X107300000Y-94000000D01*
X109200000Y-93000000D01*
X111200000Y-93100000D01*
G37*
X111200000Y-93100000D02*
X112100000Y-93400000D01*
X113000000Y-95300000D01*
X113300000Y-97000000D01*
X112300000Y-98600000D01*
X111500000Y-99300000D01*
X109300000Y-99800000D01*
X109300000Y-99900000D01*
X107300000Y-98100000D01*
X106500000Y-96100000D01*
X107300000Y-94000000D01*
X109200000Y-93000000D01*
X111200000Y-93100000D01*
D11*
X125953207Y-104908460D02*
G75*
G02X131099999Y-100800001I4046793J208460D01*
G01*
D13*
X124687978Y-104700868D02*
G75*
G02X131599999Y-99500001I5412022J868D01*
G01*
D12*
X123996878Y-104803321D02*
G75*
G02X131999999Y-98600001I6403122J3321D01*
G01*
D10*
X123075385Y-104900001D02*
G75*
G02X132199999Y-97800001I7324615J1D01*
G01*
D15*
X127157142Y-80694693D02*
X127157142Y-76694693D01*
X125442857Y-80694693D01*
X125442857Y-76694693D01*
X118757142Y-94133935D02*
X118757142Y-90133935D01*
X117042857Y-94133935D01*
X117042857Y-90133935D01*
X102757142Y-102161269D02*
X102757142Y-98161269D01*
X101042857Y-102161269D01*
X101042857Y-98161269D01*
D10*
G36*
X118188360Y-106653835D02*
G01*
X118269397Y-106680166D01*
X118356663Y-106707848D01*
X118359655Y-106709493D01*
X118368488Y-106712363D01*
X118440466Y-106753919D01*
X118511499Y-106792970D01*
X118518986Y-106799253D01*
X118532511Y-106807061D01*
X118590259Y-106859057D01*
X118646857Y-106906549D01*
X118656962Y-106919118D01*
X118673261Y-106933793D01*
X118715454Y-106991867D01*
X118757579Y-107044260D01*
X118767994Y-107064182D01*
X118784586Y-107087019D01*
X118811297Y-107147012D01*
X118839439Y-107200843D01*
X118847582Y-107228510D01*
X118861621Y-107260042D01*
X118873992Y-107318241D01*
X118889328Y-107370349D01*
X118892518Y-107405401D01*
X118900999Y-107445301D01*
X118900999Y-107498592D01*
X118905343Y-107546324D01*
X118900999Y-107587653D01*
X118900999Y-107634699D01*
X118891217Y-107680721D01*
X118886873Y-107722047D01*
X118872702Y-107767827D01*
X118861621Y-107819958D01*
X118845028Y-107857226D01*
X118834622Y-107890843D01*
X118808789Y-107938620D01*
X118784586Y-107992981D01*
X118764298Y-108020905D01*
X118750580Y-108046276D01*
X118711859Y-108093082D01*
X118673261Y-108146207D01*
X118652284Y-108165095D01*
X118637952Y-108182419D01*
X118585845Y-108224917D01*
X118532511Y-108272939D01*
X118513524Y-108283901D01*
X118501025Y-108294095D01*
X118435780Y-108328786D01*
X118368488Y-108367637D01*
X118353636Y-108372463D01*
X118345003Y-108377053D01*
X118267430Y-108400473D01*
X118188360Y-108426165D01*
X118179114Y-108427137D01*
X118175851Y-108428122D01*
X118084710Y-108437059D01*
X118047211Y-108441000D01*
X117952789Y-108441000D01*
X117811640Y-108426165D01*
X117730603Y-108399834D01*
X117643337Y-108372152D01*
X117640345Y-108370507D01*
X117631512Y-108367637D01*
X117559534Y-108326081D01*
X117488501Y-108287030D01*
X117481014Y-108280747D01*
X117467489Y-108272939D01*
X117409741Y-108220943D01*
X117353143Y-108173451D01*
X117343038Y-108160882D01*
X117326739Y-108146207D01*
X117284546Y-108088133D01*
X117242421Y-108035740D01*
X117232006Y-108015818D01*
X117215414Y-107992981D01*
X117188703Y-107932988D01*
X117160561Y-107879157D01*
X117152418Y-107851490D01*
X117138379Y-107819958D01*
X117126008Y-107761759D01*
X117110672Y-107709651D01*
X117107482Y-107674599D01*
X117099001Y-107634699D01*
X117099001Y-107581408D01*
X117094657Y-107533676D01*
X117099001Y-107492347D01*
X117099001Y-107445301D01*
X117108783Y-107399279D01*
X117113127Y-107357953D01*
X117127298Y-107312173D01*
X117138379Y-107260042D01*
X117154972Y-107222774D01*
X117165378Y-107189157D01*
X117191211Y-107141380D01*
X117215414Y-107087019D01*
X117235702Y-107059095D01*
X117249420Y-107033724D01*
X117288141Y-106986918D01*
X117326739Y-106933793D01*
X117347716Y-106914905D01*
X117362048Y-106897581D01*
X117414155Y-106855083D01*
X117467489Y-106807061D01*
X117486476Y-106796099D01*
X117498975Y-106785905D01*
X117564220Y-106751214D01*
X117631512Y-106712363D01*
X117646364Y-106707537D01*
X117654997Y-106702947D01*
X117732570Y-106679527D01*
X117811640Y-106653835D01*
X117820886Y-106652863D01*
X117824149Y-106651878D01*
X117915290Y-106642941D01*
X117952789Y-106639000D01*
X118047211Y-106639000D01*
X118188360Y-106653835D01*
X118188360Y-106653835D01*
G37*
G36*
X118869899Y-104101959D02*
G01*
X118886769Y-104113231D01*
X118898041Y-104130101D01*
X118904448Y-104162312D01*
X118904448Y-105837688D01*
X118901999Y-105850000D01*
X118898041Y-105869899D01*
X118886769Y-105886769D01*
X118869899Y-105898041D01*
X118850000Y-105901999D01*
X118837688Y-105904448D01*
X117162312Y-105904448D01*
X117130101Y-105898041D01*
X117113231Y-105886769D01*
X117101959Y-105869899D01*
X117095552Y-105837688D01*
X117095552Y-104162312D01*
X117101959Y-104130101D01*
X117113231Y-104113231D01*
X117130101Y-104101959D01*
X117162312Y-104095552D01*
X118837688Y-104095552D01*
X118869899Y-104101959D01*
X118869899Y-104101959D01*
G37*
G36*
X101654043Y-85547274D02*
G01*
X101679123Y-85547274D01*
X101731189Y-85561225D01*
X101775903Y-85569311D01*
X101799102Y-85579422D01*
X101831977Y-85588231D01*
X101870985Y-85610752D01*
X101904375Y-85625305D01*
X101931827Y-85645879D01*
X101969023Y-85667354D01*
X101994574Y-85692905D01*
X102016522Y-85709354D01*
X102044276Y-85742607D01*
X102080920Y-85779251D01*
X102094518Y-85802803D01*
X102106321Y-85816945D01*
X102129728Y-85863789D01*
X102160043Y-85916297D01*
X102164759Y-85933898D01*
X102168964Y-85942313D01*
X102183102Y-86002355D01*
X102201000Y-86069151D01*
X102201000Y-86227397D01*
X102182014Y-86298253D01*
X102165282Y-86364134D01*
X102163389Y-86367762D01*
X102160043Y-86380251D01*
X102127185Y-86437163D01*
X102100461Y-86488391D01*
X102091878Y-86498317D01*
X102080920Y-86517297D01*
X102040612Y-86557605D01*
X102008799Y-86594396D01*
X101990857Y-86607360D01*
X101969023Y-86629194D01*
X101927304Y-86653281D01*
X101895200Y-86676477D01*
X101866445Y-86688417D01*
X101831977Y-86708317D01*
X101794040Y-86718482D01*
X101765772Y-86730220D01*
X101726153Y-86736672D01*
X101679123Y-86749274D01*
X101648777Y-86749274D01*
X101627452Y-86752747D01*
X101578405Y-86749274D01*
X101520877Y-86749274D01*
X101500214Y-86743737D01*
X101487655Y-86742848D01*
X101431980Y-86725454D01*
X101368023Y-86708317D01*
X101357288Y-86702119D01*
X101353882Y-86701055D01*
X101294672Y-86665968D01*
X101230977Y-86629194D01*
X101179830Y-86578047D01*
X101132421Y-86532345D01*
X101129344Y-86527561D01*
X101119080Y-86517297D01*
X101086987Y-86461710D01*
X101056609Y-86414482D01*
X101051709Y-86400606D01*
X101039957Y-86380251D01*
X101025602Y-86326678D01*
X101009942Y-86282332D01*
X101007401Y-86258750D01*
X100999000Y-86227397D01*
X100999000Y-86180783D01*
X100994928Y-86142992D01*
X100999000Y-86110530D01*
X100999000Y-86069151D01*
X101008760Y-86032727D01*
X101012371Y-86003938D01*
X101026949Y-85964845D01*
X101039957Y-85916297D01*
X101054344Y-85891377D01*
X101061337Y-85872625D01*
X101089541Y-85830415D01*
X101119080Y-85779251D01*
X101133085Y-85765246D01*
X101139196Y-85756100D01*
X101183113Y-85715218D01*
X101230977Y-85667354D01*
X101240333Y-85661952D01*
X101241775Y-85660610D01*
X101304565Y-85624868D01*
X101368023Y-85588231D01*
X101436629Y-85569848D01*
X101498048Y-85551830D01*
X101505320Y-85551442D01*
X101520877Y-85547274D01*
X101583540Y-85547274D01*
X101637995Y-85544372D01*
X101654043Y-85547274D01*
X101654043Y-85547274D01*
G37*
M02*
