G04 #@! TF.GenerationSoftware,KiCad,Pcbnew,(5.1.0-1548-g3fefe01d2)*
G04 #@! TF.CreationDate,2019-08-20T19:22:30-04:00*
G04 #@! TF.ProjectId,MotorcycleSpeedo,4d6f746f-7263-4796-936c-655370656564,rev?*
G04 #@! TF.SameCoordinates,Original*
G04 #@! TF.FileFunction,Copper,L1,Top*
G04 #@! TF.FilePolarity,Positive*
%FSLAX46Y46*%
G04 Gerber Fmt 4.6, Leading zero omitted, Abs format (unit mm)*
G04 Created by KiCad (PCBNEW (5.1.0-1548-g3fefe01d2)) date 2019-08-20 19:22:30*
%MOMM*%
%LPD*%
G04 APERTURE LIST*
%ADD10C,0.100000*%
%ADD11C,0.875000*%
%ADD12C,0.600000*%
%ADD13R,0.800000X0.800000*%
%ADD14O,1.700000X1.700000*%
%ADD15R,1.700000X1.700000*%
%ADD16R,0.600000X0.800000*%
%ADD17C,0.800000*%
%ADD18C,0.250000*%
%ADD19C,0.160000*%
G04 APERTURE END LIST*
D10*
G36*
X97339962Y-87591651D02*
G01*
X97410930Y-87639070D01*
X97458349Y-87710038D01*
X97475000Y-87793750D01*
X97475000Y-88231250D01*
X97458349Y-88314962D01*
X97410930Y-88385930D01*
X97339962Y-88433349D01*
X97256250Y-88450000D01*
X96743750Y-88450000D01*
X96660038Y-88433349D01*
X96589070Y-88385930D01*
X96541651Y-88314962D01*
X96525000Y-88231250D01*
X96525000Y-87793750D01*
X96541651Y-87710038D01*
X96589070Y-87639070D01*
X96660038Y-87591651D01*
X96743750Y-87575000D01*
X97256250Y-87575000D01*
X97339962Y-87591651D01*
X97339962Y-87591651D01*
G37*
D11*
X97000000Y-88012500D03*
D10*
G36*
X97339962Y-89166651D02*
G01*
X97410930Y-89214070D01*
X97458349Y-89285038D01*
X97475000Y-89368750D01*
X97475000Y-89806250D01*
X97458349Y-89889962D01*
X97410930Y-89960930D01*
X97339962Y-90008349D01*
X97256250Y-90025000D01*
X96743750Y-90025000D01*
X96660038Y-90008349D01*
X96589070Y-89960930D01*
X96541651Y-89889962D01*
X96525000Y-89806250D01*
X96525000Y-89368750D01*
X96541651Y-89285038D01*
X96589070Y-89214070D01*
X96660038Y-89166651D01*
X96743750Y-89150000D01*
X97256250Y-89150000D01*
X97339962Y-89166651D01*
X97339962Y-89166651D01*
G37*
D11*
X97000000Y-89587500D03*
D12*
X99601530Y-85498932D03*
X98366408Y-83798932D03*
X98366408Y-81697616D03*
X99601530Y-79997616D03*
X101600000Y-79348274D03*
X103598470Y-79997616D03*
X104833592Y-81697616D03*
X104833592Y-83798932D03*
X103598470Y-85498932D03*
X100363932Y-86552500D03*
X98363932Y-85099415D03*
X97600000Y-82748274D03*
X98363932Y-80397133D03*
X100363932Y-78944048D03*
X102836068Y-78944048D03*
X104836068Y-80397133D03*
X105600000Y-82748274D03*
X104836068Y-85099415D03*
X102836068Y-86552500D03*
D10*
G36*
X132789962Y-103041651D02*
G01*
X132860930Y-103089070D01*
X132908349Y-103160038D01*
X132925000Y-103243750D01*
X132925000Y-103756250D01*
X132908349Y-103839962D01*
X132860930Y-103910930D01*
X132789962Y-103958349D01*
X132706250Y-103975000D01*
X132268750Y-103975000D01*
X132185038Y-103958349D01*
X132114070Y-103910930D01*
X132066651Y-103839962D01*
X132050000Y-103756250D01*
X132050000Y-103243750D01*
X132066651Y-103160038D01*
X132114070Y-103089070D01*
X132185038Y-103041651D01*
X132268750Y-103025000D01*
X132706250Y-103025000D01*
X132789962Y-103041651D01*
X132789962Y-103041651D01*
G37*
D11*
X132487500Y-103500000D03*
D10*
G36*
X131214962Y-103041651D02*
G01*
X131285930Y-103089070D01*
X131333349Y-103160038D01*
X131350000Y-103243750D01*
X131350000Y-103756250D01*
X131333349Y-103839962D01*
X131285930Y-103910930D01*
X131214962Y-103958349D01*
X131131250Y-103975000D01*
X130693750Y-103975000D01*
X130610038Y-103958349D01*
X130539070Y-103910930D01*
X130491651Y-103839962D01*
X130475000Y-103756250D01*
X130475000Y-103243750D01*
X130491651Y-103160038D01*
X130539070Y-103089070D01*
X130610038Y-103041651D01*
X130693750Y-103025000D01*
X131131250Y-103025000D01*
X131214962Y-103041651D01*
X131214962Y-103041651D01*
G37*
D11*
X130912500Y-103500000D03*
D13*
X134000000Y-94600000D03*
X132500000Y-94600000D03*
X130650000Y-99500000D03*
X129150000Y-99500000D03*
X125950000Y-105200000D03*
X124450000Y-105200000D03*
D14*
X118000000Y-107540000D03*
D15*
X118000000Y-105000000D03*
D10*
G36*
X136302462Y-90541651D02*
G01*
X136373430Y-90589070D01*
X136420849Y-90660038D01*
X136437500Y-90743750D01*
X136437500Y-91256250D01*
X136420849Y-91339962D01*
X136373430Y-91410930D01*
X136302462Y-91458349D01*
X136218750Y-91475000D01*
X135781250Y-91475000D01*
X135697538Y-91458349D01*
X135626570Y-91410930D01*
X135579151Y-91339962D01*
X135562500Y-91256250D01*
X135562500Y-90743750D01*
X135579151Y-90660038D01*
X135626570Y-90589070D01*
X135697538Y-90541651D01*
X135781250Y-90525000D01*
X136218750Y-90525000D01*
X136302462Y-90541651D01*
X136302462Y-90541651D01*
G37*
D11*
X136000000Y-91000000D03*
D10*
G36*
X134727462Y-90541651D02*
G01*
X134798430Y-90589070D01*
X134845849Y-90660038D01*
X134862500Y-90743750D01*
X134862500Y-91256250D01*
X134845849Y-91339962D01*
X134798430Y-91410930D01*
X134727462Y-91458349D01*
X134643750Y-91475000D01*
X134206250Y-91475000D01*
X134122538Y-91458349D01*
X134051570Y-91410930D01*
X134004151Y-91339962D01*
X133987500Y-91256250D01*
X133987500Y-90743750D01*
X134004151Y-90660038D01*
X134051570Y-90589070D01*
X134122538Y-90541651D01*
X134206250Y-90525000D01*
X134643750Y-90525000D01*
X134727462Y-90541651D01*
X134727462Y-90541651D01*
G37*
D11*
X134425000Y-91000000D03*
D10*
G36*
X128089962Y-94541651D02*
G01*
X128160930Y-94589070D01*
X128208349Y-94660038D01*
X128225000Y-94743750D01*
X128225000Y-95256250D01*
X128208349Y-95339962D01*
X128160930Y-95410930D01*
X128089962Y-95458349D01*
X128006250Y-95475000D01*
X127568750Y-95475000D01*
X127485038Y-95458349D01*
X127414070Y-95410930D01*
X127366651Y-95339962D01*
X127350000Y-95256250D01*
X127350000Y-94743750D01*
X127366651Y-94660038D01*
X127414070Y-94589070D01*
X127485038Y-94541651D01*
X127568750Y-94525000D01*
X128006250Y-94525000D01*
X128089962Y-94541651D01*
X128089962Y-94541651D01*
G37*
D11*
X127787500Y-95000000D03*
D10*
G36*
X126514962Y-94541651D02*
G01*
X126585930Y-94589070D01*
X126633349Y-94660038D01*
X126650000Y-94743750D01*
X126650000Y-95256250D01*
X126633349Y-95339962D01*
X126585930Y-95410930D01*
X126514962Y-95458349D01*
X126431250Y-95475000D01*
X125993750Y-95475000D01*
X125910038Y-95458349D01*
X125839070Y-95410930D01*
X125791651Y-95339962D01*
X125775000Y-95256250D01*
X125775000Y-94743750D01*
X125791651Y-94660038D01*
X125839070Y-94589070D01*
X125910038Y-94541651D01*
X125993750Y-94525000D01*
X126431250Y-94525000D01*
X126514962Y-94541651D01*
X126514962Y-94541651D01*
G37*
D11*
X126212500Y-95000000D03*
D10*
G36*
X120089962Y-98541651D02*
G01*
X120160930Y-98589070D01*
X120208349Y-98660038D01*
X120225000Y-98743750D01*
X120225000Y-99256250D01*
X120208349Y-99339962D01*
X120160930Y-99410930D01*
X120089962Y-99458349D01*
X120006250Y-99475000D01*
X119568750Y-99475000D01*
X119485038Y-99458349D01*
X119414070Y-99410930D01*
X119366651Y-99339962D01*
X119350000Y-99256250D01*
X119350000Y-98743750D01*
X119366651Y-98660038D01*
X119414070Y-98589070D01*
X119485038Y-98541651D01*
X119568750Y-98525000D01*
X120006250Y-98525000D01*
X120089962Y-98541651D01*
X120089962Y-98541651D01*
G37*
D11*
X119787500Y-99000000D03*
D10*
G36*
X118514962Y-98541651D02*
G01*
X118585930Y-98589070D01*
X118633349Y-98660038D01*
X118650000Y-98743750D01*
X118650000Y-99256250D01*
X118633349Y-99339962D01*
X118585930Y-99410930D01*
X118514962Y-99458349D01*
X118431250Y-99475000D01*
X117993750Y-99475000D01*
X117910038Y-99458349D01*
X117839070Y-99410930D01*
X117791651Y-99339962D01*
X117775000Y-99256250D01*
X117775000Y-98743750D01*
X117791651Y-98660038D01*
X117839070Y-98589070D01*
X117910038Y-98541651D01*
X117993750Y-98525000D01*
X118431250Y-98525000D01*
X118514962Y-98541651D01*
X118514962Y-98541651D01*
G37*
D11*
X118212500Y-99000000D03*
D10*
G36*
X112089962Y-102541651D02*
G01*
X112160930Y-102589070D01*
X112208349Y-102660038D01*
X112225000Y-102743750D01*
X112225000Y-103256250D01*
X112208349Y-103339962D01*
X112160930Y-103410930D01*
X112089962Y-103458349D01*
X112006250Y-103475000D01*
X111568750Y-103475000D01*
X111485038Y-103458349D01*
X111414070Y-103410930D01*
X111366651Y-103339962D01*
X111350000Y-103256250D01*
X111350000Y-102743750D01*
X111366651Y-102660038D01*
X111414070Y-102589070D01*
X111485038Y-102541651D01*
X111568750Y-102525000D01*
X112006250Y-102525000D01*
X112089962Y-102541651D01*
X112089962Y-102541651D01*
G37*
D11*
X111787500Y-103000000D03*
D10*
G36*
X110514962Y-102541651D02*
G01*
X110585930Y-102589070D01*
X110633349Y-102660038D01*
X110650000Y-102743750D01*
X110650000Y-103256250D01*
X110633349Y-103339962D01*
X110585930Y-103410930D01*
X110514962Y-103458349D01*
X110431250Y-103475000D01*
X109993750Y-103475000D01*
X109910038Y-103458349D01*
X109839070Y-103410930D01*
X109791651Y-103339962D01*
X109775000Y-103256250D01*
X109775000Y-102743750D01*
X109791651Y-102660038D01*
X109839070Y-102589070D01*
X109910038Y-102541651D01*
X109993750Y-102525000D01*
X110431250Y-102525000D01*
X110514962Y-102541651D01*
X110514962Y-102541651D01*
G37*
D11*
X110212500Y-103000000D03*
D10*
G36*
X104089962Y-106541651D02*
G01*
X104160930Y-106589070D01*
X104208349Y-106660038D01*
X104225000Y-106743750D01*
X104225000Y-107256250D01*
X104208349Y-107339962D01*
X104160930Y-107410930D01*
X104089962Y-107458349D01*
X104006250Y-107475000D01*
X103568750Y-107475000D01*
X103485038Y-107458349D01*
X103414070Y-107410930D01*
X103366651Y-107339962D01*
X103350000Y-107256250D01*
X103350000Y-106743750D01*
X103366651Y-106660038D01*
X103414070Y-106589070D01*
X103485038Y-106541651D01*
X103568750Y-106525000D01*
X104006250Y-106525000D01*
X104089962Y-106541651D01*
X104089962Y-106541651D01*
G37*
D11*
X103787500Y-107000000D03*
D10*
G36*
X102514962Y-106541651D02*
G01*
X102585930Y-106589070D01*
X102633349Y-106660038D01*
X102650000Y-106743750D01*
X102650000Y-107256250D01*
X102633349Y-107339962D01*
X102585930Y-107410930D01*
X102514962Y-107458349D01*
X102431250Y-107475000D01*
X101993750Y-107475000D01*
X101910038Y-107458349D01*
X101839070Y-107410930D01*
X101791651Y-107339962D01*
X101775000Y-107256250D01*
X101775000Y-106743750D01*
X101791651Y-106660038D01*
X101839070Y-106589070D01*
X101910038Y-106541651D01*
X101993750Y-106525000D01*
X102431250Y-106525000D01*
X102514962Y-106541651D01*
X102514962Y-106541651D01*
G37*
D11*
X102212500Y-107000000D03*
D13*
X134750000Y-84000000D03*
X133250000Y-84000000D03*
X126750000Y-79000000D03*
X125250000Y-79000000D03*
X127000000Y-88000000D03*
X125500000Y-88000000D03*
X118950000Y-83000000D03*
X117450000Y-83000000D03*
X118750000Y-92000000D03*
X117250000Y-92000000D03*
X111750000Y-87000000D03*
X110250000Y-87000000D03*
X103750000Y-91000000D03*
X102250000Y-91000000D03*
X110750000Y-96000000D03*
X109250000Y-96000000D03*
D16*
X101300000Y-100000000D03*
X102700000Y-100000000D03*
D12*
X133265002Y-80282938D03*
X131894271Y-80813961D03*
X130807931Y-81804291D03*
X130152697Y-83120178D03*
X130017063Y-84583903D03*
X130419347Y-85997783D03*
X131305217Y-87170866D03*
X132555033Y-87944719D03*
X134000000Y-88214830D03*
X135444967Y-87944719D03*
X136694783Y-87170866D03*
X137580653Y-85997783D03*
X137982937Y-84583903D03*
X137847303Y-83120178D03*
X137192069Y-81804291D03*
X136105729Y-80813961D03*
X134734998Y-80282938D03*
X132771778Y-81044424D03*
X131709435Y-81702200D03*
X130956445Y-82699320D03*
X130614504Y-83901118D03*
X130729793Y-85145284D03*
X131286741Y-86263788D03*
X132210131Y-87105568D03*
X133375252Y-87556939D03*
X134624748Y-87556939D03*
X135789869Y-87105568D03*
X136713259Y-86263788D03*
X137270207Y-85145284D03*
X137385496Y-83901118D03*
X137043555Y-82699320D03*
X136290565Y-81702200D03*
X135228222Y-81044424D03*
X134000000Y-80814830D03*
X125565002Y-74968108D03*
X124194271Y-75499131D03*
X123107931Y-76489461D03*
X122452697Y-77805348D03*
X122317063Y-79269073D03*
X122719347Y-80682953D03*
X123605217Y-81856036D03*
X124855033Y-82629889D03*
X126300000Y-82900000D03*
X127744967Y-82629889D03*
X128994783Y-81856036D03*
X129880653Y-80682953D03*
X130282937Y-79269073D03*
X130147303Y-77805348D03*
X129492069Y-76489461D03*
X128405729Y-75499131D03*
X127034998Y-74968108D03*
X125071778Y-75729594D03*
X124009435Y-76387370D03*
X123256445Y-77384490D03*
X122914504Y-78586288D03*
X123029793Y-79830454D03*
X123586741Y-80948958D03*
X124510131Y-81790738D03*
X125675252Y-82242109D03*
X126924748Y-82242109D03*
X128089869Y-81790738D03*
X129013259Y-80948958D03*
X129570207Y-79830454D03*
X129685496Y-78586288D03*
X129343555Y-77384490D03*
X128590565Y-76387370D03*
X127528222Y-75729594D03*
X126300000Y-75500000D03*
X125265002Y-84282938D03*
X123894271Y-84813961D03*
X122807931Y-85804291D03*
X122152697Y-87120178D03*
X122017063Y-88583903D03*
X122419347Y-89997783D03*
X123305217Y-91170866D03*
X124555033Y-91944719D03*
X126000000Y-92214830D03*
X127444967Y-91944719D03*
X128694783Y-91170866D03*
X129580653Y-89997783D03*
X129982937Y-88583903D03*
X129847303Y-87120178D03*
X129192069Y-85804291D03*
X128105729Y-84813961D03*
X126734998Y-84282938D03*
X124771778Y-85044424D03*
X123709435Y-85702200D03*
X122956445Y-86699320D03*
X122614504Y-87901118D03*
X122729793Y-89145284D03*
X123286741Y-90263788D03*
X124210131Y-91105568D03*
X125375252Y-91556939D03*
X126624748Y-91556939D03*
X127789869Y-91105568D03*
X128713259Y-90263788D03*
X129270207Y-89145284D03*
X129385496Y-87901118D03*
X129043555Y-86699320D03*
X128290565Y-85702200D03*
X127228222Y-85044424D03*
X126000000Y-84814830D03*
X117409916Y-79000288D03*
X115806041Y-79772674D03*
X114696125Y-81164465D03*
X114300000Y-82900000D03*
X114696125Y-84635535D03*
X115806041Y-86027326D03*
X117409916Y-86799712D03*
X119190084Y-86799712D03*
X120793959Y-86027326D03*
X121903875Y-84635535D03*
X122300000Y-82900000D03*
X121903875Y-81164465D03*
X120793959Y-79772674D03*
X119190084Y-79000288D03*
X116824795Y-79836706D03*
X115641773Y-80780135D03*
X114985245Y-82143429D03*
X114985245Y-83656571D03*
X115641773Y-85019865D03*
X116824795Y-85963294D03*
X118300000Y-86300000D03*
X119775205Y-85963294D03*
X120958227Y-85019865D03*
X121614755Y-83656571D03*
X121614755Y-82143429D03*
X120958227Y-80780135D03*
X119775205Y-79836706D03*
X118300000Y-79500000D03*
X117109916Y-88324700D03*
X115506041Y-89097086D03*
X114396125Y-90488877D03*
X114000000Y-92224412D03*
X114396125Y-93959947D03*
X115506041Y-95351738D03*
X117109916Y-96124124D03*
X118890084Y-96124124D03*
X120493959Y-95351738D03*
X121603875Y-93959947D03*
X122000000Y-92224412D03*
X121603875Y-90488877D03*
X120493959Y-89097086D03*
X118890084Y-88324700D03*
X116524795Y-89161118D03*
X115341773Y-90104547D03*
X114685245Y-91467841D03*
X114685245Y-92980983D03*
X115341773Y-94344277D03*
X116524795Y-95287706D03*
X118000000Y-95624412D03*
X119475205Y-95287706D03*
X120658227Y-94344277D03*
X121314755Y-92980983D03*
X121314755Y-91467841D03*
X120658227Y-90104547D03*
X119475205Y-89161118D03*
X118000000Y-88824412D03*
X110109916Y-83324700D03*
X108506041Y-84097086D03*
X107396125Y-85488877D03*
X107000000Y-87224412D03*
X107396125Y-88959947D03*
X108506041Y-90351738D03*
X110109916Y-91124124D03*
X111890084Y-91124124D03*
X113493959Y-90351738D03*
X114603875Y-88959947D03*
X115000000Y-87224412D03*
X114603875Y-85488877D03*
X113493959Y-84097086D03*
X111890084Y-83324700D03*
X109524795Y-84161118D03*
X108341773Y-85104547D03*
X107685245Y-86467841D03*
X107685245Y-87980983D03*
X108341773Y-89344277D03*
X109524795Y-90287706D03*
X111000000Y-90624412D03*
X112475205Y-90287706D03*
X113658227Y-89344277D03*
X114314755Y-87980983D03*
X114314755Y-86467841D03*
X113658227Y-85104547D03*
X112475205Y-84161118D03*
X111000000Y-83824412D03*
X108763932Y-92447520D03*
X106763932Y-93900605D03*
X106000000Y-96251746D03*
X106763932Y-98602887D03*
X108763932Y-100055972D03*
X111236068Y-100055972D03*
X113236068Y-98602887D03*
X114000000Y-96251746D03*
X113236068Y-93900605D03*
X111236068Y-92447520D03*
X108001530Y-93501088D03*
X106766408Y-95201088D03*
X106766408Y-97302404D03*
X108001530Y-99002404D03*
X110000000Y-99651746D03*
X111998470Y-99002404D03*
X113233592Y-97302404D03*
X113233592Y-95201088D03*
X111998470Y-93501088D03*
X110000000Y-92851746D03*
X100763932Y-96447520D03*
X98763932Y-97900605D03*
X98000000Y-100251746D03*
X98763932Y-102602887D03*
X100763932Y-104055972D03*
X103236068Y-104055972D03*
X105236068Y-102602887D03*
X106000000Y-100251746D03*
X105236068Y-97900605D03*
X103236068Y-96447520D03*
X100001530Y-97501088D03*
X98766408Y-99201088D03*
X98766408Y-101302404D03*
X100001530Y-103002404D03*
X102000000Y-103651746D03*
X103998470Y-103002404D03*
X105233592Y-101302404D03*
X105233592Y-99201088D03*
X103998470Y-97501088D03*
X102000000Y-96851746D03*
X101763932Y-87447520D03*
X99763932Y-88900605D03*
X99000000Y-91251746D03*
X99763932Y-93602887D03*
X101763932Y-95055972D03*
X104236068Y-95055972D03*
X106236068Y-93602887D03*
X107000000Y-91251746D03*
X106236068Y-88900605D03*
X104236068Y-87447520D03*
X101001530Y-88501088D03*
X99766408Y-90201088D03*
X99766408Y-92302404D03*
X101001530Y-94002404D03*
X103000000Y-94651746D03*
X104998470Y-94002404D03*
X106233592Y-92302404D03*
X106233592Y-90201088D03*
X104998470Y-88501088D03*
X103000000Y-87851746D03*
D17*
X98000000Y-87700000D03*
X97300000Y-90600000D03*
D18*
X102000000Y-86900000D02*
X102100000Y-86800000D01*
X101300000Y-86900000D02*
X102000000Y-86900000D01*
X100952500Y-86552500D02*
X101300000Y-86900000D01*
X100363932Y-86552500D02*
X100952500Y-86552500D01*
X97687500Y-88012500D02*
X98000000Y-87700000D01*
X97000000Y-88012500D02*
X97687500Y-88012500D01*
X97300000Y-90600000D02*
X97300000Y-89887500D01*
X97300000Y-89887500D02*
X97000000Y-89587500D01*
X100952479Y-87147521D02*
X100500000Y-86695042D01*
X101763932Y-87447520D02*
X101463933Y-87147521D01*
X101463933Y-87147521D02*
X100952479Y-87147521D01*
X103000000Y-87851746D02*
X102168158Y-87851746D01*
X102168158Y-87851746D02*
X101763932Y-87447520D01*
D19*
X127800000Y-78100000D02*
X128089869Y-78389869D01*
X128089869Y-78389869D02*
X128089869Y-81790738D01*
X125700000Y-78100000D02*
X127800000Y-78100000D01*
X125450000Y-78350000D02*
X125700000Y-78100000D01*
X125250000Y-78350000D02*
X125450000Y-78350000D01*
D18*
X128116027Y-82127291D02*
X128116027Y-81915159D01*
X128597792Y-82256454D02*
X128245190Y-82256454D01*
X128245190Y-82256454D02*
X128116027Y-82127291D01*
X130304482Y-82684096D02*
X129025434Y-82684096D01*
X129025434Y-82684096D02*
X128597792Y-82256454D01*
X130792377Y-82580464D02*
X130408114Y-82580464D01*
X130408114Y-82580464D02*
X130304482Y-82684096D01*
X133250000Y-84000000D02*
X132211913Y-84000000D01*
X132211913Y-84000000D02*
X130792377Y-82580464D01*
X134000000Y-86300000D02*
X134750000Y-85550000D01*
X134750000Y-85550000D02*
X134750000Y-84000000D01*
X134000000Y-87814830D02*
X134000000Y-86300000D01*
X134313836Y-88202499D02*
X134313836Y-88128666D01*
X134313836Y-88128666D02*
X134000000Y-87814830D01*
X134425000Y-91000000D02*
X134425000Y-88313663D01*
X134425000Y-88313663D02*
X134313836Y-88202499D01*
X133850000Y-92600000D02*
X134400000Y-92600000D01*
X134400000Y-92600000D02*
X136000000Y-91000000D01*
X132500000Y-94600000D02*
X132500000Y-93950000D01*
X132500000Y-93950000D02*
X133850000Y-92600000D01*
X133500000Y-96500000D02*
X134000000Y-96000000D01*
X134000000Y-96000000D02*
X134000000Y-94600000D01*
X130300000Y-96500000D02*
X133500000Y-96500000D01*
X128800000Y-95000000D02*
X130300000Y-96500000D01*
X127787500Y-95000000D02*
X128800000Y-95000000D01*
X120000000Y-108500000D02*
X120000000Y-105900000D01*
X120000000Y-108600000D02*
X120000000Y-108500000D01*
X128300000Y-109100000D02*
X120600000Y-109100000D01*
X120600000Y-109100000D02*
X120000000Y-108500000D01*
X132487500Y-104912500D02*
X128300000Y-109100000D01*
X132487500Y-103500000D02*
X132487500Y-104912500D01*
X132300000Y-101500000D02*
X130912500Y-102887500D01*
X130912500Y-102887500D02*
X130912500Y-103500000D01*
X132300000Y-98600000D02*
X132300000Y-101500000D01*
X131800000Y-98100000D02*
X132300000Y-98600000D01*
X129900000Y-98100000D02*
X131800000Y-98100000D01*
X129150000Y-99500000D02*
X129150000Y-98850000D01*
X129150000Y-98850000D02*
X129900000Y-98100000D01*
X128700000Y-102700000D02*
X130650000Y-100750000D01*
X130650000Y-100750000D02*
X130650000Y-99500000D01*
X128700000Y-107287500D02*
X128700000Y-102700000D01*
X126800000Y-108200000D02*
X127787500Y-108200000D01*
X127787500Y-108200000D02*
X128700000Y-107287500D01*
X124450000Y-105200000D02*
X124450000Y-105850000D01*
X124450000Y-105850000D02*
X126800000Y-108200000D01*
X119787500Y-99000000D02*
X120400000Y-99000000D01*
X120400000Y-99000000D02*
X125950000Y-104550000D01*
X125950000Y-104550000D02*
X125950000Y-105200000D01*
X120000000Y-105900000D02*
X119100000Y-105000000D01*
X119100000Y-105000000D02*
X118000000Y-105000000D01*
X119100000Y-109500000D02*
X120000000Y-108600000D01*
X103100000Y-109500000D02*
X119100000Y-109500000D01*
X100500000Y-106900000D02*
X103100000Y-109500000D01*
X100500000Y-106000000D02*
X100500000Y-106900000D01*
X97100000Y-102600000D02*
X100500000Y-106000000D01*
X97100000Y-98500000D02*
X97100000Y-102600000D01*
X100171573Y-95428427D02*
X97100000Y-98500000D01*
X100171573Y-94080173D02*
X100171573Y-95428427D01*
X102250000Y-91000000D02*
X101600000Y-91000000D01*
X100171573Y-93868041D02*
X100171573Y-94080173D01*
X101600000Y-91000000D02*
X100171573Y-92428427D01*
X100171573Y-92428427D02*
X100171573Y-93868041D01*
X128468629Y-76302369D02*
X128597792Y-76173206D01*
X125250000Y-79000000D02*
X125250000Y-78350000D01*
X125436836Y-82770508D02*
X126750000Y-81457344D01*
X126750000Y-81457344D02*
X126750000Y-79000000D01*
X125686164Y-83202499D02*
X125686164Y-83019836D01*
X125686164Y-83019836D02*
X125436836Y-82770508D01*
X125686164Y-84227161D02*
X125686164Y-83202499D01*
X126000000Y-84614830D02*
X126000000Y-84540997D01*
X126000000Y-84540997D02*
X125686164Y-84227161D01*
X125500000Y-88000000D02*
X125500000Y-85114830D01*
X125500000Y-85114830D02*
X126000000Y-84614830D01*
X125586835Y-90313165D02*
X127000000Y-88900000D01*
X127000000Y-88900000D02*
X127000000Y-88000000D01*
X125436836Y-91770508D02*
X125586835Y-91620509D01*
X125586835Y-91620509D02*
X125586835Y-90313165D01*
X125686164Y-92202499D02*
X125686164Y-92019836D01*
X125686164Y-92019836D02*
X125436836Y-91770508D01*
X126212500Y-95000000D02*
X126212500Y-92728835D01*
X126212500Y-92728835D02*
X125686164Y-92202499D01*
X127787500Y-95000000D02*
X127787500Y-95575000D01*
X127787500Y-95575000D02*
X124362500Y-99000000D01*
X124362500Y-99000000D02*
X120325000Y-99000000D01*
X120325000Y-99000000D02*
X119787500Y-99000000D01*
X122400000Y-79214830D02*
X125035170Y-79214830D01*
X125035170Y-79214830D02*
X125250000Y-79000000D01*
X122012331Y-79528666D02*
X122086164Y-79528666D01*
X122086164Y-79528666D02*
X122400000Y-79214830D01*
X120976522Y-79927421D02*
X121613576Y-79927421D01*
X121613576Y-79927421D02*
X122012331Y-79528666D01*
X120416027Y-79987539D02*
X120916404Y-79987539D01*
X120916404Y-79987539D02*
X120976522Y-79927421D01*
X117450000Y-83000000D02*
X117450000Y-82350000D01*
X117450000Y-82350000D02*
X119812461Y-79987539D01*
X119812461Y-79987539D02*
X120203895Y-79987539D01*
X120203895Y-79987539D02*
X120416027Y-79987539D01*
X118300000Y-86500000D02*
X118950000Y-85850000D01*
X118950000Y-85850000D02*
X118950000Y-83000000D01*
X117881886Y-86878088D02*
X117921912Y-86878088D01*
X117921912Y-86878088D02*
X118300000Y-86500000D01*
X117581886Y-88246324D02*
X117581886Y-87178088D01*
X117581886Y-87178088D02*
X117881886Y-86878088D01*
X117251518Y-88703081D02*
X117251518Y-88576692D01*
X117251518Y-88576692D02*
X117581886Y-88246324D01*
X117250000Y-92000000D02*
X117250000Y-88704599D01*
X117250000Y-88704599D02*
X117251518Y-88703081D01*
X117401517Y-94498483D02*
X118750000Y-93150000D01*
X118750000Y-93150000D02*
X118750000Y-92000000D01*
X117251518Y-95745743D02*
X117401517Y-95595744D01*
X117401517Y-95595744D02*
X117401517Y-94498483D01*
X117581886Y-96202500D02*
X117581886Y-96076111D01*
X117581886Y-96076111D02*
X117251518Y-95745743D01*
X118212500Y-99000000D02*
X118212500Y-96833114D01*
X118212500Y-96833114D02*
X117581886Y-96202500D01*
X119787500Y-100212500D02*
X117000000Y-103000000D01*
X117000000Y-103000000D02*
X111787500Y-103000000D01*
X119787500Y-99000000D02*
X119787500Y-100212500D01*
X114719721Y-82523698D02*
X116973698Y-82523698D01*
X116973698Y-82523698D02*
X117450000Y-83000000D01*
X114300000Y-82900000D02*
X114343419Y-82900000D01*
X114343419Y-82900000D02*
X114719721Y-82523698D01*
X113000000Y-83760310D02*
X113439690Y-83760310D01*
X113439690Y-83760310D02*
X114300000Y-82900000D01*
X112464252Y-83935648D02*
X112824662Y-83935648D01*
X112824662Y-83935648D02*
X113000000Y-83760310D01*
X111700000Y-84900000D02*
X111700000Y-84699900D01*
X111700000Y-84699900D02*
X112464252Y-83935648D01*
X110250000Y-87000000D02*
X110250000Y-86350000D01*
X110250000Y-86350000D02*
X111700000Y-84900000D01*
X111000000Y-89300000D02*
X111750000Y-88550000D01*
X111750000Y-88550000D02*
X111750000Y-87000000D01*
X111000000Y-90824412D02*
X111000000Y-89300000D01*
X110581886Y-91202500D02*
X110621912Y-91202500D01*
X110621912Y-91202500D02*
X111000000Y-90824412D01*
X110625738Y-92300993D02*
X110625738Y-91246352D01*
X110625738Y-91246352D02*
X110581886Y-91202500D01*
X110000000Y-92651746D02*
X110274985Y-92651746D01*
X110274985Y-92651746D02*
X110625738Y-92300993D01*
X109250000Y-96000000D02*
X109250000Y-93401746D01*
X109250000Y-93401746D02*
X110000000Y-92651746D01*
X110212500Y-103000000D02*
X110212500Y-96537500D01*
X110212500Y-96537500D02*
X110750000Y-96000000D01*
X111540000Y-107540000D02*
X104327500Y-107540000D01*
X118000000Y-107540000D02*
X111540000Y-107540000D01*
X111500000Y-103862500D02*
X111500000Y-107500000D01*
X111500000Y-107500000D02*
X111540000Y-107540000D01*
X111787500Y-103000000D02*
X111787500Y-103575000D01*
X111787500Y-103575000D02*
X111500000Y-103862500D01*
X107000000Y-87224412D02*
X103702319Y-87224412D01*
X103702319Y-87224412D02*
X103625738Y-87300993D01*
X107419721Y-86848110D02*
X107376302Y-86848110D01*
X107376302Y-86848110D02*
X107000000Y-87224412D01*
X110250000Y-87000000D02*
X107571611Y-87000000D01*
X107571611Y-87000000D02*
X107419721Y-86848110D01*
X103000000Y-87651746D02*
X103274985Y-87651746D01*
X103274985Y-87651746D02*
X103625738Y-87300993D01*
X102250000Y-91000000D02*
X102250000Y-88401746D01*
X102250000Y-88401746D02*
X103000000Y-87651746D01*
X103000000Y-93700000D02*
X103750000Y-92950000D01*
X103750000Y-92950000D02*
X103750000Y-91000000D01*
X103000000Y-94851746D02*
X103000000Y-93700000D01*
X102374262Y-95202499D02*
X102649247Y-95202499D01*
X102649247Y-95202499D02*
X103000000Y-94851746D01*
X102625738Y-96300993D02*
X102625738Y-95453975D01*
X102625738Y-95453975D02*
X102374262Y-95202499D01*
X102000000Y-96651746D02*
X102274985Y-96651746D01*
X102274985Y-96651746D02*
X102625738Y-96300993D01*
X101300000Y-100000000D02*
X101300000Y-97351746D01*
X101300000Y-97351746D02*
X102000000Y-96651746D01*
X103112461Y-103675549D02*
X103112461Y-100412461D01*
X103112461Y-100412461D02*
X102700000Y-100000000D01*
X102625738Y-104202499D02*
X102625738Y-104162272D01*
X102625738Y-104162272D02*
X103112461Y-103675549D01*
X102212500Y-107000000D02*
X102212500Y-104615737D01*
X102212500Y-104615737D02*
X102625738Y-104202499D01*
X104327500Y-107540000D02*
X103787500Y-107000000D01*
M02*
