G04 #@! TF.GenerationSoftware,KiCad,Pcbnew,(5.1.0-1548-g3fefe01d2)*
G04 #@! TF.CreationDate,2019-08-20T19:22:30-04:00*
G04 #@! TF.ProjectId,MotorcycleSpeedo,4d6f746f-7263-4796-936c-655370656564,rev?*
G04 #@! TF.SameCoordinates,Original*
G04 #@! TF.FileFunction,Soldermask,Top*
G04 #@! TF.FilePolarity,Negative*
%FSLAX46Y46*%
G04 Gerber Fmt 4.6, Leading zero omitted, Abs format (unit mm)*
G04 Created by KiCad (PCBNEW (5.1.0-1548-g3fefe01d2)) date 2019-08-20 19:22:30*
%MOMM*%
%LPD*%
G04 APERTURE LIST*
%ADD10C,0.100000*%
G04 APERTURE END LIST*
D10*
G36*
X103700000Y-87000000D02*
G01*
X102200000Y-87400000D01*
X100100000Y-87400000D01*
X100100000Y-85400000D01*
X103700000Y-87000000D01*
G37*
X103700000Y-87000000D02*
X102200000Y-87400000D01*
X100100000Y-87400000D01*
X100100000Y-85400000D01*
X103700000Y-87000000D01*
G36*
X118188360Y-106653835D02*
G01*
X118269397Y-106680166D01*
X118356663Y-106707848D01*
X118359655Y-106709493D01*
X118368488Y-106712363D01*
X118440466Y-106753919D01*
X118511499Y-106792970D01*
X118518986Y-106799253D01*
X118532511Y-106807061D01*
X118590259Y-106859057D01*
X118646857Y-106906549D01*
X118656962Y-106919118D01*
X118673261Y-106933793D01*
X118715454Y-106991867D01*
X118757579Y-107044260D01*
X118767994Y-107064182D01*
X118784586Y-107087019D01*
X118811297Y-107147012D01*
X118839439Y-107200843D01*
X118847582Y-107228510D01*
X118861621Y-107260042D01*
X118873992Y-107318241D01*
X118889328Y-107370349D01*
X118892518Y-107405401D01*
X118900999Y-107445301D01*
X118900999Y-107498592D01*
X118905343Y-107546324D01*
X118900999Y-107587653D01*
X118900999Y-107634699D01*
X118891217Y-107680721D01*
X118886873Y-107722047D01*
X118872702Y-107767827D01*
X118861621Y-107819958D01*
X118845028Y-107857226D01*
X118834622Y-107890843D01*
X118808789Y-107938620D01*
X118784586Y-107992981D01*
X118764298Y-108020905D01*
X118750580Y-108046276D01*
X118711859Y-108093082D01*
X118673261Y-108146207D01*
X118652284Y-108165095D01*
X118637952Y-108182419D01*
X118585845Y-108224917D01*
X118532511Y-108272939D01*
X118513524Y-108283901D01*
X118501025Y-108294095D01*
X118435780Y-108328786D01*
X118368488Y-108367637D01*
X118353636Y-108372463D01*
X118345003Y-108377053D01*
X118267430Y-108400473D01*
X118188360Y-108426165D01*
X118179114Y-108427137D01*
X118175851Y-108428122D01*
X118084710Y-108437059D01*
X118047211Y-108441000D01*
X117952789Y-108441000D01*
X117811640Y-108426165D01*
X117730603Y-108399834D01*
X117643337Y-108372152D01*
X117640345Y-108370507D01*
X117631512Y-108367637D01*
X117559534Y-108326081D01*
X117488501Y-108287030D01*
X117481014Y-108280747D01*
X117467489Y-108272939D01*
X117409741Y-108220943D01*
X117353143Y-108173451D01*
X117343038Y-108160882D01*
X117326739Y-108146207D01*
X117284546Y-108088133D01*
X117242421Y-108035740D01*
X117232006Y-108015818D01*
X117215414Y-107992981D01*
X117188703Y-107932988D01*
X117160561Y-107879157D01*
X117152418Y-107851490D01*
X117138379Y-107819958D01*
X117126008Y-107761759D01*
X117110672Y-107709651D01*
X117107482Y-107674599D01*
X117099001Y-107634699D01*
X117099001Y-107581408D01*
X117094657Y-107533676D01*
X117099001Y-107492347D01*
X117099001Y-107445301D01*
X117108783Y-107399279D01*
X117113127Y-107357953D01*
X117127298Y-107312173D01*
X117138379Y-107260042D01*
X117154972Y-107222774D01*
X117165378Y-107189157D01*
X117191211Y-107141380D01*
X117215414Y-107087019D01*
X117235702Y-107059095D01*
X117249420Y-107033724D01*
X117288141Y-106986918D01*
X117326739Y-106933793D01*
X117347716Y-106914905D01*
X117362048Y-106897581D01*
X117414155Y-106855083D01*
X117467489Y-106807061D01*
X117486476Y-106796099D01*
X117498975Y-106785905D01*
X117564220Y-106751214D01*
X117631512Y-106712363D01*
X117646364Y-106707537D01*
X117654997Y-106702947D01*
X117732570Y-106679527D01*
X117811640Y-106653835D01*
X117820886Y-106652863D01*
X117824149Y-106651878D01*
X117915290Y-106642941D01*
X117952789Y-106639000D01*
X118047211Y-106639000D01*
X118188360Y-106653835D01*
X118188360Y-106653835D01*
G37*
G36*
X104001231Y-106473001D02*
G01*
X104001964Y-106473001D01*
X104004829Y-106473571D01*
X104087918Y-106486731D01*
X104098760Y-106492255D01*
X104107215Y-106493937D01*
X104123768Y-106504998D01*
X104164054Y-106525524D01*
X104183316Y-106544786D01*
X104196443Y-106553557D01*
X104205214Y-106566684D01*
X104224476Y-106585946D01*
X104245002Y-106626232D01*
X104256063Y-106642785D01*
X104257745Y-106651240D01*
X104263269Y-106662082D01*
X104276429Y-106745171D01*
X104276999Y-106748036D01*
X104276999Y-106748769D01*
X104278194Y-106756314D01*
X104278194Y-107243686D01*
X104276999Y-107251231D01*
X104276999Y-107251964D01*
X104276429Y-107254829D01*
X104263269Y-107337918D01*
X104257745Y-107348760D01*
X104256063Y-107357215D01*
X104245002Y-107373768D01*
X104224476Y-107414054D01*
X104205214Y-107433316D01*
X104196443Y-107446443D01*
X104183316Y-107455214D01*
X104164054Y-107474476D01*
X104123768Y-107495002D01*
X104107215Y-107506063D01*
X104098760Y-107507745D01*
X104087918Y-107513269D01*
X104004829Y-107526429D01*
X104001964Y-107526999D01*
X104001231Y-107526999D01*
X103993686Y-107528194D01*
X103581314Y-107528194D01*
X103573769Y-107526999D01*
X103573036Y-107526999D01*
X103570171Y-107526429D01*
X103487082Y-107513269D01*
X103476240Y-107507745D01*
X103467785Y-107506063D01*
X103451232Y-107495002D01*
X103410946Y-107474476D01*
X103391684Y-107455214D01*
X103378557Y-107446443D01*
X103369786Y-107433316D01*
X103350524Y-107414054D01*
X103329998Y-107373768D01*
X103318937Y-107357215D01*
X103317255Y-107348760D01*
X103311731Y-107337918D01*
X103298571Y-107254829D01*
X103298001Y-107251964D01*
X103298001Y-107251231D01*
X103296806Y-107243686D01*
X103296806Y-106756314D01*
X103298001Y-106748769D01*
X103298001Y-106748036D01*
X103298571Y-106745171D01*
X103311731Y-106662082D01*
X103317255Y-106651240D01*
X103318937Y-106642785D01*
X103329998Y-106626232D01*
X103350524Y-106585946D01*
X103369786Y-106566684D01*
X103378557Y-106553557D01*
X103391684Y-106544786D01*
X103410946Y-106525524D01*
X103451232Y-106504998D01*
X103467785Y-106493937D01*
X103476240Y-106492255D01*
X103487082Y-106486731D01*
X103570171Y-106473571D01*
X103573036Y-106473001D01*
X103573769Y-106473001D01*
X103581314Y-106471806D01*
X103993686Y-106471806D01*
X104001231Y-106473001D01*
X104001231Y-106473001D01*
G37*
G36*
X102426231Y-106473001D02*
G01*
X102426964Y-106473001D01*
X102429829Y-106473571D01*
X102512918Y-106486731D01*
X102523760Y-106492255D01*
X102532215Y-106493937D01*
X102548768Y-106504998D01*
X102589054Y-106525524D01*
X102608316Y-106544786D01*
X102621443Y-106553557D01*
X102630214Y-106566684D01*
X102649476Y-106585946D01*
X102670002Y-106626232D01*
X102681063Y-106642785D01*
X102682745Y-106651240D01*
X102688269Y-106662082D01*
X102701429Y-106745171D01*
X102701999Y-106748036D01*
X102701999Y-106748769D01*
X102703194Y-106756314D01*
X102703194Y-107243686D01*
X102701999Y-107251231D01*
X102701999Y-107251964D01*
X102701429Y-107254829D01*
X102688269Y-107337918D01*
X102682745Y-107348760D01*
X102681063Y-107357215D01*
X102670002Y-107373768D01*
X102649476Y-107414054D01*
X102630214Y-107433316D01*
X102621443Y-107446443D01*
X102608316Y-107455214D01*
X102589054Y-107474476D01*
X102548768Y-107495002D01*
X102532215Y-107506063D01*
X102523760Y-107507745D01*
X102512918Y-107513269D01*
X102429829Y-107526429D01*
X102426964Y-107526999D01*
X102426231Y-107526999D01*
X102418686Y-107528194D01*
X102006314Y-107528194D01*
X101998769Y-107526999D01*
X101998036Y-107526999D01*
X101995171Y-107526429D01*
X101912082Y-107513269D01*
X101901240Y-107507745D01*
X101892785Y-107506063D01*
X101876232Y-107495002D01*
X101835946Y-107474476D01*
X101816684Y-107455214D01*
X101803557Y-107446443D01*
X101794786Y-107433316D01*
X101775524Y-107414054D01*
X101754998Y-107373768D01*
X101743937Y-107357215D01*
X101742255Y-107348760D01*
X101736731Y-107337918D01*
X101723571Y-107254829D01*
X101723001Y-107251964D01*
X101723001Y-107251231D01*
X101721806Y-107243686D01*
X101721806Y-106756314D01*
X101723001Y-106748769D01*
X101723001Y-106748036D01*
X101723571Y-106745171D01*
X101736731Y-106662082D01*
X101742255Y-106651240D01*
X101743937Y-106642785D01*
X101754998Y-106626232D01*
X101775524Y-106585946D01*
X101794786Y-106566684D01*
X101803557Y-106553557D01*
X101816684Y-106544786D01*
X101835946Y-106525524D01*
X101876232Y-106504998D01*
X101892785Y-106493937D01*
X101901240Y-106492255D01*
X101912082Y-106486731D01*
X101995171Y-106473571D01*
X101998036Y-106473001D01*
X101998769Y-106473001D01*
X102006314Y-106471806D01*
X102418686Y-106471806D01*
X102426231Y-106473001D01*
X102426231Y-106473001D01*
G37*
G36*
X118869899Y-104101959D02*
G01*
X118886769Y-104113231D01*
X118898041Y-104130101D01*
X118904448Y-104162312D01*
X118904448Y-105837688D01*
X118901999Y-105850000D01*
X118898041Y-105869899D01*
X118886769Y-105886769D01*
X118869899Y-105898041D01*
X118850000Y-105901999D01*
X118837688Y-105904448D01*
X117162312Y-105904448D01*
X117130101Y-105898041D01*
X117113231Y-105886769D01*
X117101959Y-105869899D01*
X117095552Y-105837688D01*
X117095552Y-104162312D01*
X117101959Y-104130101D01*
X117113231Y-104113231D01*
X117130101Y-104101959D01*
X117162312Y-104095552D01*
X118837688Y-104095552D01*
X118869899Y-104101959D01*
X118869899Y-104101959D01*
G37*
G36*
X126369899Y-104751959D02*
G01*
X126386769Y-104763231D01*
X126398041Y-104780101D01*
X126404448Y-104812312D01*
X126404448Y-105587688D01*
X126401999Y-105600000D01*
X126398041Y-105619899D01*
X126386769Y-105636769D01*
X126369899Y-105648041D01*
X126350000Y-105651999D01*
X126337688Y-105654448D01*
X125562312Y-105654448D01*
X125530101Y-105648041D01*
X125513231Y-105636769D01*
X125501959Y-105619899D01*
X125495552Y-105587688D01*
X125495552Y-104812312D01*
X125501959Y-104780101D01*
X125513231Y-104763231D01*
X125530101Y-104751959D01*
X125562312Y-104745552D01*
X126337688Y-104745552D01*
X126369899Y-104751959D01*
X126369899Y-104751959D01*
G37*
G36*
X124869899Y-104751959D02*
G01*
X124886769Y-104763231D01*
X124898041Y-104780101D01*
X124904448Y-104812312D01*
X124904448Y-105587688D01*
X124901999Y-105600000D01*
X124898041Y-105619899D01*
X124886769Y-105636769D01*
X124869899Y-105648041D01*
X124850000Y-105651999D01*
X124837688Y-105654448D01*
X124062312Y-105654448D01*
X124030101Y-105648041D01*
X124013231Y-105636769D01*
X124001959Y-105619899D01*
X123995552Y-105587688D01*
X123995552Y-104812312D01*
X124001959Y-104780101D01*
X124013231Y-104763231D01*
X124030101Y-104751959D01*
X124062312Y-104745552D01*
X124837688Y-104745552D01*
X124869899Y-104751959D01*
X124869899Y-104751959D01*
G37*
G36*
X132701231Y-102973001D02*
G01*
X132701964Y-102973001D01*
X132704829Y-102973571D01*
X132787918Y-102986731D01*
X132798760Y-102992255D01*
X132807215Y-102993937D01*
X132823768Y-103004998D01*
X132864054Y-103025524D01*
X132883316Y-103044786D01*
X132896443Y-103053557D01*
X132905214Y-103066684D01*
X132924476Y-103085946D01*
X132945002Y-103126232D01*
X132956063Y-103142785D01*
X132957745Y-103151240D01*
X132963269Y-103162082D01*
X132976429Y-103245171D01*
X132976999Y-103248036D01*
X132976999Y-103248769D01*
X132978194Y-103256314D01*
X132978194Y-103743686D01*
X132976999Y-103751231D01*
X132976999Y-103751964D01*
X132976429Y-103754829D01*
X132963269Y-103837918D01*
X132957745Y-103848760D01*
X132956063Y-103857215D01*
X132945002Y-103873768D01*
X132924476Y-103914054D01*
X132905214Y-103933316D01*
X132896443Y-103946443D01*
X132883316Y-103955214D01*
X132864054Y-103974476D01*
X132823768Y-103995002D01*
X132807215Y-104006063D01*
X132798760Y-104007745D01*
X132787918Y-104013269D01*
X132704829Y-104026429D01*
X132701964Y-104026999D01*
X132701231Y-104026999D01*
X132693686Y-104028194D01*
X132281314Y-104028194D01*
X132273769Y-104026999D01*
X132273036Y-104026999D01*
X132270171Y-104026429D01*
X132187082Y-104013269D01*
X132176240Y-104007745D01*
X132167785Y-104006063D01*
X132151232Y-103995002D01*
X132110946Y-103974476D01*
X132091684Y-103955214D01*
X132078557Y-103946443D01*
X132069786Y-103933316D01*
X132050524Y-103914054D01*
X132029998Y-103873768D01*
X132018937Y-103857215D01*
X132017255Y-103848760D01*
X132011731Y-103837918D01*
X131998571Y-103754829D01*
X131998001Y-103751964D01*
X131998001Y-103751231D01*
X131996806Y-103743686D01*
X131996806Y-103256314D01*
X131998001Y-103248769D01*
X131998001Y-103248036D01*
X131998571Y-103245171D01*
X132011731Y-103162082D01*
X132017255Y-103151240D01*
X132018937Y-103142785D01*
X132029998Y-103126232D01*
X132050524Y-103085946D01*
X132069786Y-103066684D01*
X132078557Y-103053557D01*
X132091684Y-103044786D01*
X132110946Y-103025524D01*
X132151232Y-103004998D01*
X132167785Y-102993937D01*
X132176240Y-102992255D01*
X132187082Y-102986731D01*
X132270171Y-102973571D01*
X132273036Y-102973001D01*
X132273769Y-102973001D01*
X132281314Y-102971806D01*
X132693686Y-102971806D01*
X132701231Y-102973001D01*
X132701231Y-102973001D01*
G37*
G36*
X131126231Y-102973001D02*
G01*
X131126964Y-102973001D01*
X131129829Y-102973571D01*
X131212918Y-102986731D01*
X131223760Y-102992255D01*
X131232215Y-102993937D01*
X131248768Y-103004998D01*
X131289054Y-103025524D01*
X131308316Y-103044786D01*
X131321443Y-103053557D01*
X131330214Y-103066684D01*
X131349476Y-103085946D01*
X131370002Y-103126232D01*
X131381063Y-103142785D01*
X131382745Y-103151240D01*
X131388269Y-103162082D01*
X131401429Y-103245171D01*
X131401999Y-103248036D01*
X131401999Y-103248769D01*
X131403194Y-103256314D01*
X131403194Y-103743686D01*
X131401999Y-103751231D01*
X131401999Y-103751964D01*
X131401429Y-103754829D01*
X131388269Y-103837918D01*
X131382745Y-103848760D01*
X131381063Y-103857215D01*
X131370002Y-103873768D01*
X131349476Y-103914054D01*
X131330214Y-103933316D01*
X131321443Y-103946443D01*
X131308316Y-103955214D01*
X131289054Y-103974476D01*
X131248768Y-103995002D01*
X131232215Y-104006063D01*
X131223760Y-104007745D01*
X131212918Y-104013269D01*
X131129829Y-104026429D01*
X131126964Y-104026999D01*
X131126231Y-104026999D01*
X131118686Y-104028194D01*
X130706314Y-104028194D01*
X130698769Y-104026999D01*
X130698036Y-104026999D01*
X130695171Y-104026429D01*
X130612082Y-104013269D01*
X130601240Y-104007745D01*
X130592785Y-104006063D01*
X130576232Y-103995002D01*
X130535946Y-103974476D01*
X130516684Y-103955214D01*
X130503557Y-103946443D01*
X130494786Y-103933316D01*
X130475524Y-103914054D01*
X130454998Y-103873768D01*
X130443937Y-103857215D01*
X130442255Y-103848760D01*
X130436731Y-103837918D01*
X130423571Y-103754829D01*
X130423001Y-103751964D01*
X130423001Y-103751231D01*
X130421806Y-103743686D01*
X130421806Y-103256314D01*
X130423001Y-103248769D01*
X130423001Y-103248036D01*
X130423571Y-103245171D01*
X130436731Y-103162082D01*
X130442255Y-103151240D01*
X130443937Y-103142785D01*
X130454998Y-103126232D01*
X130475524Y-103085946D01*
X130494786Y-103066684D01*
X130503557Y-103053557D01*
X130516684Y-103044786D01*
X130535946Y-103025524D01*
X130576232Y-103004998D01*
X130592785Y-102993937D01*
X130601240Y-102992255D01*
X130612082Y-102986731D01*
X130695171Y-102973571D01*
X130698036Y-102973001D01*
X130698769Y-102973001D01*
X130706314Y-102971806D01*
X131118686Y-102971806D01*
X131126231Y-102973001D01*
X131126231Y-102973001D01*
G37*
G36*
X110426231Y-102473001D02*
G01*
X110426964Y-102473001D01*
X110429829Y-102473571D01*
X110512918Y-102486731D01*
X110523760Y-102492255D01*
X110532215Y-102493937D01*
X110548768Y-102504998D01*
X110589054Y-102525524D01*
X110608316Y-102544786D01*
X110621443Y-102553557D01*
X110630214Y-102566684D01*
X110649476Y-102585946D01*
X110670002Y-102626232D01*
X110681063Y-102642785D01*
X110682745Y-102651240D01*
X110688269Y-102662082D01*
X110701429Y-102745171D01*
X110701999Y-102748036D01*
X110701999Y-102748769D01*
X110703194Y-102756314D01*
X110703194Y-103243686D01*
X110701999Y-103251231D01*
X110701999Y-103251964D01*
X110701429Y-103254829D01*
X110688269Y-103337918D01*
X110682745Y-103348760D01*
X110681063Y-103357215D01*
X110670002Y-103373768D01*
X110649476Y-103414054D01*
X110630214Y-103433316D01*
X110621443Y-103446443D01*
X110608316Y-103455214D01*
X110589054Y-103474476D01*
X110548768Y-103495002D01*
X110532215Y-103506063D01*
X110523760Y-103507745D01*
X110512918Y-103513269D01*
X110429829Y-103526429D01*
X110426964Y-103526999D01*
X110426231Y-103526999D01*
X110418686Y-103528194D01*
X110006314Y-103528194D01*
X109998769Y-103526999D01*
X109998036Y-103526999D01*
X109995171Y-103526429D01*
X109912082Y-103513269D01*
X109901240Y-103507745D01*
X109892785Y-103506063D01*
X109876232Y-103495002D01*
X109835946Y-103474476D01*
X109816684Y-103455214D01*
X109803557Y-103446443D01*
X109794786Y-103433316D01*
X109775524Y-103414054D01*
X109754998Y-103373768D01*
X109743937Y-103357215D01*
X109742255Y-103348760D01*
X109736731Y-103337918D01*
X109723571Y-103254829D01*
X109723001Y-103251964D01*
X109723001Y-103251231D01*
X109721806Y-103243686D01*
X109721806Y-102756314D01*
X109723001Y-102748769D01*
X109723001Y-102748036D01*
X109723571Y-102745171D01*
X109736731Y-102662082D01*
X109742255Y-102651240D01*
X109743937Y-102642785D01*
X109754998Y-102626232D01*
X109775524Y-102585946D01*
X109794786Y-102566684D01*
X109803557Y-102553557D01*
X109816684Y-102544786D01*
X109835946Y-102525524D01*
X109876232Y-102504998D01*
X109892785Y-102493937D01*
X109901240Y-102492255D01*
X109912082Y-102486731D01*
X109995171Y-102473571D01*
X109998036Y-102473001D01*
X109998769Y-102473001D01*
X110006314Y-102471806D01*
X110418686Y-102471806D01*
X110426231Y-102473001D01*
X110426231Y-102473001D01*
G37*
G36*
X112001231Y-102473001D02*
G01*
X112001964Y-102473001D01*
X112004829Y-102473571D01*
X112087918Y-102486731D01*
X112098760Y-102492255D01*
X112107215Y-102493937D01*
X112123768Y-102504998D01*
X112164054Y-102525524D01*
X112183316Y-102544786D01*
X112196443Y-102553557D01*
X112205214Y-102566684D01*
X112224476Y-102585946D01*
X112245002Y-102626232D01*
X112256063Y-102642785D01*
X112257745Y-102651240D01*
X112263269Y-102662082D01*
X112276429Y-102745171D01*
X112276999Y-102748036D01*
X112276999Y-102748769D01*
X112278194Y-102756314D01*
X112278194Y-103243686D01*
X112276999Y-103251231D01*
X112276999Y-103251964D01*
X112276429Y-103254829D01*
X112263269Y-103337918D01*
X112257745Y-103348760D01*
X112256063Y-103357215D01*
X112245002Y-103373768D01*
X112224476Y-103414054D01*
X112205214Y-103433316D01*
X112196443Y-103446443D01*
X112183316Y-103455214D01*
X112164054Y-103474476D01*
X112123768Y-103495002D01*
X112107215Y-103506063D01*
X112098760Y-103507745D01*
X112087918Y-103513269D01*
X112004829Y-103526429D01*
X112001964Y-103526999D01*
X112001231Y-103526999D01*
X111993686Y-103528194D01*
X111581314Y-103528194D01*
X111573769Y-103526999D01*
X111573036Y-103526999D01*
X111570171Y-103526429D01*
X111487082Y-103513269D01*
X111476240Y-103507745D01*
X111467785Y-103506063D01*
X111451232Y-103495002D01*
X111410946Y-103474476D01*
X111391684Y-103455214D01*
X111378557Y-103446443D01*
X111369786Y-103433316D01*
X111350524Y-103414054D01*
X111329998Y-103373768D01*
X111318937Y-103357215D01*
X111317255Y-103348760D01*
X111311731Y-103337918D01*
X111298571Y-103254829D01*
X111298001Y-103251964D01*
X111298001Y-103251231D01*
X111296806Y-103243686D01*
X111296806Y-102756314D01*
X111298001Y-102748769D01*
X111298001Y-102748036D01*
X111298571Y-102745171D01*
X111311731Y-102662082D01*
X111317255Y-102651240D01*
X111318937Y-102642785D01*
X111329998Y-102626232D01*
X111350524Y-102585946D01*
X111369786Y-102566684D01*
X111378557Y-102553557D01*
X111391684Y-102544786D01*
X111410946Y-102525524D01*
X111451232Y-102504998D01*
X111467785Y-102493937D01*
X111476240Y-102492255D01*
X111487082Y-102486731D01*
X111570171Y-102473571D01*
X111573036Y-102473001D01*
X111573769Y-102473001D01*
X111581314Y-102471806D01*
X111993686Y-102471806D01*
X112001231Y-102473001D01*
X112001231Y-102473001D01*
G37*
G36*
X103019899Y-99551959D02*
G01*
X103036769Y-99563231D01*
X103048041Y-99580101D01*
X103054448Y-99612312D01*
X103054448Y-100387688D01*
X103051999Y-100400000D01*
X103048041Y-100419899D01*
X103036769Y-100436769D01*
X103019899Y-100448041D01*
X103000000Y-100451999D01*
X102987688Y-100454448D01*
X102412312Y-100454448D01*
X102380101Y-100448041D01*
X102363231Y-100436769D01*
X102351959Y-100419899D01*
X102345552Y-100387688D01*
X102345552Y-99612312D01*
X102351959Y-99580101D01*
X102363231Y-99563231D01*
X102380101Y-99551959D01*
X102412312Y-99545552D01*
X102987688Y-99545552D01*
X103019899Y-99551959D01*
X103019899Y-99551959D01*
G37*
G36*
X101619899Y-99551959D02*
G01*
X101636769Y-99563231D01*
X101648041Y-99580101D01*
X101654448Y-99612312D01*
X101654448Y-100387688D01*
X101651999Y-100400000D01*
X101648041Y-100419899D01*
X101636769Y-100436769D01*
X101619899Y-100448041D01*
X101600000Y-100451999D01*
X101587688Y-100454448D01*
X101012312Y-100454448D01*
X100980101Y-100448041D01*
X100963231Y-100436769D01*
X100951959Y-100419899D01*
X100945552Y-100387688D01*
X100945552Y-99612312D01*
X100951959Y-99580101D01*
X100963231Y-99563231D01*
X100980101Y-99551959D01*
X101012312Y-99545552D01*
X101587688Y-99545552D01*
X101619899Y-99551959D01*
X101619899Y-99551959D01*
G37*
G36*
X131069899Y-99051959D02*
G01*
X131086769Y-99063231D01*
X131098041Y-99080101D01*
X131104448Y-99112312D01*
X131104448Y-99887688D01*
X131101999Y-99900000D01*
X131098041Y-99919899D01*
X131086769Y-99936769D01*
X131069899Y-99948041D01*
X131050000Y-99951999D01*
X131037688Y-99954448D01*
X130262312Y-99954448D01*
X130230101Y-99948041D01*
X130213231Y-99936769D01*
X130201959Y-99919899D01*
X130195552Y-99887688D01*
X130195552Y-99112312D01*
X130201959Y-99080101D01*
X130213231Y-99063231D01*
X130230101Y-99051959D01*
X130262312Y-99045552D01*
X131037688Y-99045552D01*
X131069899Y-99051959D01*
X131069899Y-99051959D01*
G37*
G36*
X129569899Y-99051959D02*
G01*
X129586769Y-99063231D01*
X129598041Y-99080101D01*
X129604448Y-99112312D01*
X129604448Y-99887688D01*
X129601999Y-99900000D01*
X129598041Y-99919899D01*
X129586769Y-99936769D01*
X129569899Y-99948041D01*
X129550000Y-99951999D01*
X129537688Y-99954448D01*
X128762312Y-99954448D01*
X128730101Y-99948041D01*
X128713231Y-99936769D01*
X128701959Y-99919899D01*
X128695552Y-99887688D01*
X128695552Y-99112312D01*
X128701959Y-99080101D01*
X128713231Y-99063231D01*
X128730101Y-99051959D01*
X128762312Y-99045552D01*
X129537688Y-99045552D01*
X129569899Y-99051959D01*
X129569899Y-99051959D01*
G37*
G36*
X120001231Y-98473001D02*
G01*
X120001964Y-98473001D01*
X120004829Y-98473571D01*
X120087918Y-98486731D01*
X120098760Y-98492255D01*
X120107215Y-98493937D01*
X120123768Y-98504998D01*
X120164054Y-98525524D01*
X120183316Y-98544786D01*
X120196443Y-98553557D01*
X120205214Y-98566684D01*
X120224476Y-98585946D01*
X120245002Y-98626232D01*
X120256063Y-98642785D01*
X120257745Y-98651240D01*
X120263269Y-98662082D01*
X120276429Y-98745171D01*
X120276999Y-98748036D01*
X120276999Y-98748769D01*
X120278194Y-98756314D01*
X120278194Y-99243686D01*
X120276999Y-99251231D01*
X120276999Y-99251964D01*
X120276429Y-99254829D01*
X120263269Y-99337918D01*
X120257745Y-99348760D01*
X120256063Y-99357215D01*
X120245002Y-99373768D01*
X120224476Y-99414054D01*
X120205214Y-99433316D01*
X120196443Y-99446443D01*
X120183316Y-99455214D01*
X120164054Y-99474476D01*
X120123768Y-99495002D01*
X120107215Y-99506063D01*
X120098760Y-99507745D01*
X120087918Y-99513269D01*
X120004829Y-99526429D01*
X120001964Y-99526999D01*
X120001231Y-99526999D01*
X119993686Y-99528194D01*
X119581314Y-99528194D01*
X119573769Y-99526999D01*
X119573036Y-99526999D01*
X119570171Y-99526429D01*
X119487082Y-99513269D01*
X119476240Y-99507745D01*
X119467785Y-99506063D01*
X119451232Y-99495002D01*
X119410946Y-99474476D01*
X119391684Y-99455214D01*
X119378557Y-99446443D01*
X119369786Y-99433316D01*
X119350524Y-99414054D01*
X119329998Y-99373768D01*
X119318937Y-99357215D01*
X119317255Y-99348760D01*
X119311731Y-99337918D01*
X119298571Y-99254829D01*
X119298001Y-99251964D01*
X119298001Y-99251231D01*
X119296806Y-99243686D01*
X119296806Y-98756314D01*
X119298001Y-98748769D01*
X119298001Y-98748036D01*
X119298571Y-98745171D01*
X119311731Y-98662082D01*
X119317255Y-98651240D01*
X119318937Y-98642785D01*
X119329998Y-98626232D01*
X119350524Y-98585946D01*
X119369786Y-98566684D01*
X119378557Y-98553557D01*
X119391684Y-98544786D01*
X119410946Y-98525524D01*
X119451232Y-98504998D01*
X119467785Y-98493937D01*
X119476240Y-98492255D01*
X119487082Y-98486731D01*
X119570171Y-98473571D01*
X119573036Y-98473001D01*
X119573769Y-98473001D01*
X119581314Y-98471806D01*
X119993686Y-98471806D01*
X120001231Y-98473001D01*
X120001231Y-98473001D01*
G37*
G36*
X118426231Y-98473001D02*
G01*
X118426964Y-98473001D01*
X118429829Y-98473571D01*
X118512918Y-98486731D01*
X118523760Y-98492255D01*
X118532215Y-98493937D01*
X118548768Y-98504998D01*
X118589054Y-98525524D01*
X118608316Y-98544786D01*
X118621443Y-98553557D01*
X118630214Y-98566684D01*
X118649476Y-98585946D01*
X118670002Y-98626232D01*
X118681063Y-98642785D01*
X118682745Y-98651240D01*
X118688269Y-98662082D01*
X118701429Y-98745171D01*
X118701999Y-98748036D01*
X118701999Y-98748769D01*
X118703194Y-98756314D01*
X118703194Y-99243686D01*
X118701999Y-99251231D01*
X118701999Y-99251964D01*
X118701429Y-99254829D01*
X118688269Y-99337918D01*
X118682745Y-99348760D01*
X118681063Y-99357215D01*
X118670002Y-99373768D01*
X118649476Y-99414054D01*
X118630214Y-99433316D01*
X118621443Y-99446443D01*
X118608316Y-99455214D01*
X118589054Y-99474476D01*
X118548768Y-99495002D01*
X118532215Y-99506063D01*
X118523760Y-99507745D01*
X118512918Y-99513269D01*
X118429829Y-99526429D01*
X118426964Y-99526999D01*
X118426231Y-99526999D01*
X118418686Y-99528194D01*
X118006314Y-99528194D01*
X117998769Y-99526999D01*
X117998036Y-99526999D01*
X117995171Y-99526429D01*
X117912082Y-99513269D01*
X117901240Y-99507745D01*
X117892785Y-99506063D01*
X117876232Y-99495002D01*
X117835946Y-99474476D01*
X117816684Y-99455214D01*
X117803557Y-99446443D01*
X117794786Y-99433316D01*
X117775524Y-99414054D01*
X117754998Y-99373768D01*
X117743937Y-99357215D01*
X117742255Y-99348760D01*
X117736731Y-99337918D01*
X117723571Y-99254829D01*
X117723001Y-99251964D01*
X117723001Y-99251231D01*
X117721806Y-99243686D01*
X117721806Y-98756314D01*
X117723001Y-98748769D01*
X117723001Y-98748036D01*
X117723571Y-98745171D01*
X117736731Y-98662082D01*
X117742255Y-98651240D01*
X117743937Y-98642785D01*
X117754998Y-98626232D01*
X117775524Y-98585946D01*
X117794786Y-98566684D01*
X117803557Y-98553557D01*
X117816684Y-98544786D01*
X117835946Y-98525524D01*
X117876232Y-98504998D01*
X117892785Y-98493937D01*
X117901240Y-98492255D01*
X117912082Y-98486731D01*
X117995171Y-98473571D01*
X117998036Y-98473001D01*
X117998769Y-98473001D01*
X118006314Y-98471806D01*
X118418686Y-98471806D01*
X118426231Y-98473001D01*
X118426231Y-98473001D01*
G37*
G36*
X111169899Y-95551959D02*
G01*
X111186769Y-95563231D01*
X111198041Y-95580101D01*
X111204448Y-95612312D01*
X111204448Y-96387688D01*
X111201999Y-96400000D01*
X111198041Y-96419899D01*
X111186769Y-96436769D01*
X111169899Y-96448041D01*
X111150000Y-96451999D01*
X111137688Y-96454448D01*
X110362312Y-96454448D01*
X110330101Y-96448041D01*
X110313231Y-96436769D01*
X110301959Y-96419899D01*
X110295552Y-96387688D01*
X110295552Y-95612312D01*
X110301959Y-95580101D01*
X110313231Y-95563231D01*
X110330101Y-95551959D01*
X110362312Y-95545552D01*
X111137688Y-95545552D01*
X111169899Y-95551959D01*
X111169899Y-95551959D01*
G37*
G36*
X109669899Y-95551959D02*
G01*
X109686769Y-95563231D01*
X109698041Y-95580101D01*
X109704448Y-95612312D01*
X109704448Y-96387688D01*
X109701999Y-96400000D01*
X109698041Y-96419899D01*
X109686769Y-96436769D01*
X109669899Y-96448041D01*
X109650000Y-96451999D01*
X109637688Y-96454448D01*
X108862312Y-96454448D01*
X108830101Y-96448041D01*
X108813231Y-96436769D01*
X108801959Y-96419899D01*
X108795552Y-96387688D01*
X108795552Y-95612312D01*
X108801959Y-95580101D01*
X108813231Y-95563231D01*
X108830101Y-95551959D01*
X108862312Y-95545552D01*
X109637688Y-95545552D01*
X109669899Y-95551959D01*
X109669899Y-95551959D01*
G37*
G36*
X128001231Y-94473001D02*
G01*
X128001964Y-94473001D01*
X128004829Y-94473571D01*
X128087918Y-94486731D01*
X128098760Y-94492255D01*
X128107215Y-94493937D01*
X128123768Y-94504998D01*
X128164054Y-94525524D01*
X128183316Y-94544786D01*
X128196443Y-94553557D01*
X128205214Y-94566684D01*
X128224476Y-94585946D01*
X128245002Y-94626232D01*
X128256063Y-94642785D01*
X128257745Y-94651240D01*
X128263269Y-94662082D01*
X128276429Y-94745171D01*
X128276999Y-94748036D01*
X128276999Y-94748769D01*
X128278194Y-94756314D01*
X128278194Y-95243686D01*
X128276999Y-95251231D01*
X128276999Y-95251964D01*
X128276429Y-95254829D01*
X128263269Y-95337918D01*
X128257745Y-95348760D01*
X128256063Y-95357215D01*
X128245002Y-95373768D01*
X128224476Y-95414054D01*
X128205214Y-95433316D01*
X128196443Y-95446443D01*
X128183316Y-95455214D01*
X128164054Y-95474476D01*
X128123768Y-95495002D01*
X128107215Y-95506063D01*
X128098760Y-95507745D01*
X128087918Y-95513269D01*
X128004829Y-95526429D01*
X128001964Y-95526999D01*
X128001231Y-95526999D01*
X127993686Y-95528194D01*
X127581314Y-95528194D01*
X127573769Y-95526999D01*
X127573036Y-95526999D01*
X127570171Y-95526429D01*
X127487082Y-95513269D01*
X127476240Y-95507745D01*
X127467785Y-95506063D01*
X127451232Y-95495002D01*
X127410946Y-95474476D01*
X127391684Y-95455214D01*
X127378557Y-95446443D01*
X127369786Y-95433316D01*
X127350524Y-95414054D01*
X127329998Y-95373768D01*
X127318937Y-95357215D01*
X127317255Y-95348760D01*
X127311731Y-95337918D01*
X127298571Y-95254829D01*
X127298001Y-95251964D01*
X127298001Y-95251231D01*
X127296806Y-95243686D01*
X127296806Y-94756314D01*
X127298001Y-94748769D01*
X127298001Y-94748036D01*
X127298571Y-94745171D01*
X127311731Y-94662082D01*
X127317255Y-94651240D01*
X127318937Y-94642785D01*
X127329998Y-94626232D01*
X127350524Y-94585946D01*
X127369786Y-94566684D01*
X127378557Y-94553557D01*
X127391684Y-94544786D01*
X127410946Y-94525524D01*
X127451232Y-94504998D01*
X127467785Y-94493937D01*
X127476240Y-94492255D01*
X127487082Y-94486731D01*
X127570171Y-94473571D01*
X127573036Y-94473001D01*
X127573769Y-94473001D01*
X127581314Y-94471806D01*
X127993686Y-94471806D01*
X128001231Y-94473001D01*
X128001231Y-94473001D01*
G37*
G36*
X126426231Y-94473001D02*
G01*
X126426964Y-94473001D01*
X126429829Y-94473571D01*
X126512918Y-94486731D01*
X126523760Y-94492255D01*
X126532215Y-94493937D01*
X126548768Y-94504998D01*
X126589054Y-94525524D01*
X126608316Y-94544786D01*
X126621443Y-94553557D01*
X126630214Y-94566684D01*
X126649476Y-94585946D01*
X126670002Y-94626232D01*
X126681063Y-94642785D01*
X126682745Y-94651240D01*
X126688269Y-94662082D01*
X126701429Y-94745171D01*
X126701999Y-94748036D01*
X126701999Y-94748769D01*
X126703194Y-94756314D01*
X126703194Y-95243686D01*
X126701999Y-95251231D01*
X126701999Y-95251964D01*
X126701429Y-95254829D01*
X126688269Y-95337918D01*
X126682745Y-95348760D01*
X126681063Y-95357215D01*
X126670002Y-95373768D01*
X126649476Y-95414054D01*
X126630214Y-95433316D01*
X126621443Y-95446443D01*
X126608316Y-95455214D01*
X126589054Y-95474476D01*
X126548768Y-95495002D01*
X126532215Y-95506063D01*
X126523760Y-95507745D01*
X126512918Y-95513269D01*
X126429829Y-95526429D01*
X126426964Y-95526999D01*
X126426231Y-95526999D01*
X126418686Y-95528194D01*
X126006314Y-95528194D01*
X125998769Y-95526999D01*
X125998036Y-95526999D01*
X125995171Y-95526429D01*
X125912082Y-95513269D01*
X125901240Y-95507745D01*
X125892785Y-95506063D01*
X125876232Y-95495002D01*
X125835946Y-95474476D01*
X125816684Y-95455214D01*
X125803557Y-95446443D01*
X125794786Y-95433316D01*
X125775524Y-95414054D01*
X125754998Y-95373768D01*
X125743937Y-95357215D01*
X125742255Y-95348760D01*
X125736731Y-95337918D01*
X125723571Y-95254829D01*
X125723001Y-95251964D01*
X125723001Y-95251231D01*
X125721806Y-95243686D01*
X125721806Y-94756314D01*
X125723001Y-94748769D01*
X125723001Y-94748036D01*
X125723571Y-94745171D01*
X125736731Y-94662082D01*
X125742255Y-94651240D01*
X125743937Y-94642785D01*
X125754998Y-94626232D01*
X125775524Y-94585946D01*
X125794786Y-94566684D01*
X125803557Y-94553557D01*
X125816684Y-94544786D01*
X125835946Y-94525524D01*
X125876232Y-94504998D01*
X125892785Y-94493937D01*
X125901240Y-94492255D01*
X125912082Y-94486731D01*
X125995171Y-94473571D01*
X125998036Y-94473001D01*
X125998769Y-94473001D01*
X126006314Y-94471806D01*
X126418686Y-94471806D01*
X126426231Y-94473001D01*
X126426231Y-94473001D01*
G37*
G36*
X134419899Y-94151959D02*
G01*
X134436769Y-94163231D01*
X134448041Y-94180101D01*
X134454448Y-94212312D01*
X134454448Y-94987688D01*
X134451999Y-95000000D01*
X134448041Y-95019899D01*
X134436769Y-95036769D01*
X134419899Y-95048041D01*
X134400000Y-95051999D01*
X134387688Y-95054448D01*
X133612312Y-95054448D01*
X133580101Y-95048041D01*
X133563231Y-95036769D01*
X133551959Y-95019899D01*
X133545552Y-94987688D01*
X133545552Y-94212312D01*
X133551959Y-94180101D01*
X133563231Y-94163231D01*
X133580101Y-94151959D01*
X133612312Y-94145552D01*
X134387688Y-94145552D01*
X134419899Y-94151959D01*
X134419899Y-94151959D01*
G37*
G36*
X132919899Y-94151959D02*
G01*
X132936769Y-94163231D01*
X132948041Y-94180101D01*
X132954448Y-94212312D01*
X132954448Y-94987688D01*
X132951999Y-95000000D01*
X132948041Y-95019899D01*
X132936769Y-95036769D01*
X132919899Y-95048041D01*
X132900000Y-95051999D01*
X132887688Y-95054448D01*
X132112312Y-95054448D01*
X132080101Y-95048041D01*
X132063231Y-95036769D01*
X132051959Y-95019899D01*
X132045552Y-94987688D01*
X132045552Y-94212312D01*
X132051959Y-94180101D01*
X132063231Y-94163231D01*
X132080101Y-94151959D01*
X132112312Y-94145552D01*
X132887688Y-94145552D01*
X132919899Y-94151959D01*
X132919899Y-94151959D01*
G37*
G36*
X117669899Y-91551959D02*
G01*
X117686769Y-91563231D01*
X117698041Y-91580101D01*
X117704448Y-91612312D01*
X117704448Y-92387688D01*
X117701999Y-92400000D01*
X117698041Y-92419899D01*
X117686769Y-92436769D01*
X117669899Y-92448041D01*
X117650000Y-92451999D01*
X117637688Y-92454448D01*
X116862312Y-92454448D01*
X116830101Y-92448041D01*
X116813231Y-92436769D01*
X116801959Y-92419899D01*
X116795552Y-92387688D01*
X116795552Y-91612312D01*
X116801959Y-91580101D01*
X116813231Y-91563231D01*
X116830101Y-91551959D01*
X116862312Y-91545552D01*
X117637688Y-91545552D01*
X117669899Y-91551959D01*
X117669899Y-91551959D01*
G37*
G36*
X119169899Y-91551959D02*
G01*
X119186769Y-91563231D01*
X119198041Y-91580101D01*
X119204448Y-91612312D01*
X119204448Y-92387688D01*
X119201999Y-92400000D01*
X119198041Y-92419899D01*
X119186769Y-92436769D01*
X119169899Y-92448041D01*
X119150000Y-92451999D01*
X119137688Y-92454448D01*
X118362312Y-92454448D01*
X118330101Y-92448041D01*
X118313231Y-92436769D01*
X118301959Y-92419899D01*
X118295552Y-92387688D01*
X118295552Y-91612312D01*
X118301959Y-91580101D01*
X118313231Y-91563231D01*
X118330101Y-91551959D01*
X118362312Y-91545552D01*
X119137688Y-91545552D01*
X119169899Y-91551959D01*
X119169899Y-91551959D01*
G37*
G36*
X134638731Y-90473001D02*
G01*
X134639464Y-90473001D01*
X134642329Y-90473571D01*
X134725418Y-90486731D01*
X134736260Y-90492255D01*
X134744715Y-90493937D01*
X134761268Y-90504998D01*
X134801554Y-90525524D01*
X134820816Y-90544786D01*
X134833943Y-90553557D01*
X134842714Y-90566684D01*
X134861976Y-90585946D01*
X134882502Y-90626232D01*
X134893563Y-90642785D01*
X134895245Y-90651240D01*
X134900769Y-90662082D01*
X134913929Y-90745171D01*
X134914499Y-90748036D01*
X134914499Y-90748769D01*
X134915694Y-90756314D01*
X134915694Y-91243686D01*
X134914499Y-91251231D01*
X134914499Y-91251964D01*
X134913929Y-91254829D01*
X134900769Y-91337918D01*
X134895245Y-91348760D01*
X134893563Y-91357215D01*
X134882502Y-91373768D01*
X134861976Y-91414054D01*
X134842714Y-91433316D01*
X134833943Y-91446443D01*
X134820816Y-91455214D01*
X134801554Y-91474476D01*
X134761268Y-91495002D01*
X134744715Y-91506063D01*
X134736260Y-91507745D01*
X134725418Y-91513269D01*
X134642329Y-91526429D01*
X134639464Y-91526999D01*
X134638731Y-91526999D01*
X134631186Y-91528194D01*
X134218814Y-91528194D01*
X134211269Y-91526999D01*
X134210536Y-91526999D01*
X134207671Y-91526429D01*
X134124582Y-91513269D01*
X134113740Y-91507745D01*
X134105285Y-91506063D01*
X134088732Y-91495002D01*
X134048446Y-91474476D01*
X134029184Y-91455214D01*
X134016057Y-91446443D01*
X134007286Y-91433316D01*
X133988024Y-91414054D01*
X133967498Y-91373768D01*
X133956437Y-91357215D01*
X133954755Y-91348760D01*
X133949231Y-91337918D01*
X133936071Y-91254829D01*
X133935501Y-91251964D01*
X133935501Y-91251231D01*
X133934306Y-91243686D01*
X133934306Y-90756314D01*
X133935501Y-90748769D01*
X133935501Y-90748036D01*
X133936071Y-90745171D01*
X133949231Y-90662082D01*
X133954755Y-90651240D01*
X133956437Y-90642785D01*
X133967498Y-90626232D01*
X133988024Y-90585946D01*
X134007286Y-90566684D01*
X134016057Y-90553557D01*
X134029184Y-90544786D01*
X134048446Y-90525524D01*
X134088732Y-90504998D01*
X134105285Y-90493937D01*
X134113740Y-90492255D01*
X134124582Y-90486731D01*
X134207671Y-90473571D01*
X134210536Y-90473001D01*
X134211269Y-90473001D01*
X134218814Y-90471806D01*
X134631186Y-90471806D01*
X134638731Y-90473001D01*
X134638731Y-90473001D01*
G37*
G36*
X136213731Y-90473001D02*
G01*
X136214464Y-90473001D01*
X136217329Y-90473571D01*
X136300418Y-90486731D01*
X136311260Y-90492255D01*
X136319715Y-90493937D01*
X136336268Y-90504998D01*
X136376554Y-90525524D01*
X136395816Y-90544786D01*
X136408943Y-90553557D01*
X136417714Y-90566684D01*
X136436976Y-90585946D01*
X136457502Y-90626232D01*
X136468563Y-90642785D01*
X136470245Y-90651240D01*
X136475769Y-90662082D01*
X136488929Y-90745171D01*
X136489499Y-90748036D01*
X136489499Y-90748769D01*
X136490694Y-90756314D01*
X136490694Y-91243686D01*
X136489499Y-91251231D01*
X136489499Y-91251964D01*
X136488929Y-91254829D01*
X136475769Y-91337918D01*
X136470245Y-91348760D01*
X136468563Y-91357215D01*
X136457502Y-91373768D01*
X136436976Y-91414054D01*
X136417714Y-91433316D01*
X136408943Y-91446443D01*
X136395816Y-91455214D01*
X136376554Y-91474476D01*
X136336268Y-91495002D01*
X136319715Y-91506063D01*
X136311260Y-91507745D01*
X136300418Y-91513269D01*
X136217329Y-91526429D01*
X136214464Y-91526999D01*
X136213731Y-91526999D01*
X136206186Y-91528194D01*
X135793814Y-91528194D01*
X135786269Y-91526999D01*
X135785536Y-91526999D01*
X135782671Y-91526429D01*
X135699582Y-91513269D01*
X135688740Y-91507745D01*
X135680285Y-91506063D01*
X135663732Y-91495002D01*
X135623446Y-91474476D01*
X135604184Y-91455214D01*
X135591057Y-91446443D01*
X135582286Y-91433316D01*
X135563024Y-91414054D01*
X135542498Y-91373768D01*
X135531437Y-91357215D01*
X135529755Y-91348760D01*
X135524231Y-91337918D01*
X135511071Y-91254829D01*
X135510501Y-91251964D01*
X135510501Y-91251231D01*
X135509306Y-91243686D01*
X135509306Y-90756314D01*
X135510501Y-90748769D01*
X135510501Y-90748036D01*
X135511071Y-90745171D01*
X135524231Y-90662082D01*
X135529755Y-90651240D01*
X135531437Y-90642785D01*
X135542498Y-90626232D01*
X135563024Y-90585946D01*
X135582286Y-90566684D01*
X135591057Y-90553557D01*
X135604184Y-90544786D01*
X135623446Y-90525524D01*
X135663732Y-90504998D01*
X135680285Y-90493937D01*
X135688740Y-90492255D01*
X135699582Y-90486731D01*
X135782671Y-90473571D01*
X135785536Y-90473001D01*
X135786269Y-90473001D01*
X135793814Y-90471806D01*
X136206186Y-90471806D01*
X136213731Y-90473001D01*
X136213731Y-90473001D01*
G37*
G36*
X102669899Y-90551959D02*
G01*
X102686769Y-90563231D01*
X102698041Y-90580101D01*
X102704448Y-90612312D01*
X102704448Y-91387688D01*
X102701999Y-91400000D01*
X102698041Y-91419899D01*
X102686769Y-91436769D01*
X102669899Y-91448041D01*
X102650000Y-91451999D01*
X102637688Y-91454448D01*
X101862312Y-91454448D01*
X101830101Y-91448041D01*
X101813231Y-91436769D01*
X101801959Y-91419899D01*
X101795552Y-91387688D01*
X101795552Y-90612312D01*
X101801959Y-90580101D01*
X101813231Y-90563231D01*
X101830101Y-90551959D01*
X101862312Y-90545552D01*
X102637688Y-90545552D01*
X102669899Y-90551959D01*
X102669899Y-90551959D01*
G37*
G36*
X104169899Y-90551959D02*
G01*
X104186769Y-90563231D01*
X104198041Y-90580101D01*
X104204448Y-90612312D01*
X104204448Y-91387688D01*
X104201999Y-91400000D01*
X104198041Y-91419899D01*
X104186769Y-91436769D01*
X104169899Y-91448041D01*
X104150000Y-91451999D01*
X104137688Y-91454448D01*
X103362312Y-91454448D01*
X103330101Y-91448041D01*
X103313231Y-91436769D01*
X103301959Y-91419899D01*
X103295552Y-91387688D01*
X103295552Y-90612312D01*
X103301959Y-90580101D01*
X103313231Y-90563231D01*
X103330101Y-90551959D01*
X103362312Y-90545552D01*
X104137688Y-90545552D01*
X104169899Y-90551959D01*
X104169899Y-90551959D01*
G37*
G36*
X97251231Y-89098001D02*
G01*
X97251964Y-89098001D01*
X97254829Y-89098571D01*
X97337918Y-89111731D01*
X97348760Y-89117255D01*
X97357215Y-89118937D01*
X97373768Y-89129998D01*
X97414054Y-89150524D01*
X97433316Y-89169786D01*
X97446443Y-89178557D01*
X97455214Y-89191684D01*
X97474476Y-89210946D01*
X97495002Y-89251232D01*
X97506063Y-89267785D01*
X97507745Y-89276240D01*
X97513269Y-89287082D01*
X97526429Y-89370171D01*
X97526999Y-89373036D01*
X97526999Y-89373769D01*
X97528194Y-89381314D01*
X97528194Y-89793686D01*
X97526999Y-89801231D01*
X97526999Y-89801964D01*
X97526429Y-89804829D01*
X97513269Y-89887918D01*
X97507745Y-89898760D01*
X97506063Y-89907215D01*
X97495002Y-89923768D01*
X97474476Y-89964054D01*
X97455214Y-89983316D01*
X97446443Y-89996443D01*
X97433316Y-90005214D01*
X97414054Y-90024476D01*
X97373768Y-90045002D01*
X97357215Y-90056063D01*
X97348760Y-90057745D01*
X97337918Y-90063269D01*
X97254829Y-90076429D01*
X97251964Y-90076999D01*
X97251231Y-90076999D01*
X97243686Y-90078194D01*
X96756314Y-90078194D01*
X96748769Y-90076999D01*
X96748036Y-90076999D01*
X96745171Y-90076429D01*
X96662082Y-90063269D01*
X96651240Y-90057745D01*
X96642785Y-90056063D01*
X96626232Y-90045002D01*
X96585946Y-90024476D01*
X96566684Y-90005214D01*
X96553557Y-89996443D01*
X96544786Y-89983316D01*
X96525524Y-89964054D01*
X96504998Y-89923768D01*
X96493937Y-89907215D01*
X96492255Y-89898760D01*
X96486731Y-89887918D01*
X96473571Y-89804829D01*
X96473001Y-89801964D01*
X96473001Y-89801231D01*
X96471806Y-89793686D01*
X96471806Y-89381314D01*
X96473001Y-89373769D01*
X96473001Y-89373036D01*
X96473571Y-89370171D01*
X96486731Y-89287082D01*
X96492255Y-89276240D01*
X96493937Y-89267785D01*
X96504998Y-89251232D01*
X96525524Y-89210946D01*
X96544786Y-89191684D01*
X96553557Y-89178557D01*
X96566684Y-89169786D01*
X96585946Y-89150524D01*
X96626232Y-89129998D01*
X96642785Y-89118937D01*
X96651240Y-89117255D01*
X96662082Y-89111731D01*
X96745171Y-89098571D01*
X96748036Y-89098001D01*
X96748769Y-89098001D01*
X96756314Y-89096806D01*
X97243686Y-89096806D01*
X97251231Y-89098001D01*
X97251231Y-89098001D01*
G37*
G36*
X97251231Y-87523001D02*
G01*
X97251964Y-87523001D01*
X97254829Y-87523571D01*
X97337918Y-87536731D01*
X97348760Y-87542255D01*
X97357215Y-87543937D01*
X97373768Y-87554998D01*
X97414054Y-87575524D01*
X97433316Y-87594786D01*
X97446443Y-87603557D01*
X97455214Y-87616684D01*
X97474476Y-87635946D01*
X97495002Y-87676232D01*
X97506063Y-87692785D01*
X97507745Y-87701240D01*
X97513269Y-87712082D01*
X97526429Y-87795171D01*
X97526999Y-87798036D01*
X97526999Y-87798769D01*
X97528194Y-87806314D01*
X97528194Y-88218686D01*
X97526999Y-88226231D01*
X97526999Y-88226964D01*
X97526429Y-88229829D01*
X97513269Y-88312918D01*
X97507745Y-88323760D01*
X97506063Y-88332215D01*
X97495002Y-88348768D01*
X97474476Y-88389054D01*
X97455214Y-88408316D01*
X97446443Y-88421443D01*
X97433316Y-88430214D01*
X97414054Y-88449476D01*
X97373768Y-88470002D01*
X97357215Y-88481063D01*
X97348760Y-88482745D01*
X97337918Y-88488269D01*
X97254829Y-88501429D01*
X97251964Y-88501999D01*
X97251231Y-88501999D01*
X97243686Y-88503194D01*
X96756314Y-88503194D01*
X96748769Y-88501999D01*
X96748036Y-88501999D01*
X96745171Y-88501429D01*
X96662082Y-88488269D01*
X96651240Y-88482745D01*
X96642785Y-88481063D01*
X96626232Y-88470002D01*
X96585946Y-88449476D01*
X96566684Y-88430214D01*
X96553557Y-88421443D01*
X96544786Y-88408316D01*
X96525524Y-88389054D01*
X96504998Y-88348768D01*
X96493937Y-88332215D01*
X96492255Y-88323760D01*
X96486731Y-88312918D01*
X96473571Y-88229829D01*
X96473001Y-88226964D01*
X96473001Y-88226231D01*
X96471806Y-88218686D01*
X96471806Y-87806314D01*
X96473001Y-87798769D01*
X96473001Y-87798036D01*
X96473571Y-87795171D01*
X96486731Y-87712082D01*
X96492255Y-87701240D01*
X96493937Y-87692785D01*
X96504998Y-87676232D01*
X96525524Y-87635946D01*
X96544786Y-87616684D01*
X96553557Y-87603557D01*
X96566684Y-87594786D01*
X96585946Y-87575524D01*
X96626232Y-87554998D01*
X96642785Y-87543937D01*
X96651240Y-87542255D01*
X96662082Y-87536731D01*
X96745171Y-87523571D01*
X96748036Y-87523001D01*
X96748769Y-87523001D01*
X96756314Y-87521806D01*
X97243686Y-87521806D01*
X97251231Y-87523001D01*
X97251231Y-87523001D01*
G37*
G36*
X127419899Y-87551959D02*
G01*
X127436769Y-87563231D01*
X127448041Y-87580101D01*
X127454448Y-87612312D01*
X127454448Y-88387688D01*
X127448041Y-88419899D01*
X127436769Y-88436769D01*
X127419899Y-88448041D01*
X127412685Y-88449476D01*
X127400000Y-88451999D01*
X127387688Y-88454448D01*
X126612312Y-88454448D01*
X126580101Y-88448041D01*
X126563231Y-88436769D01*
X126551959Y-88419899D01*
X126545552Y-88387688D01*
X126545552Y-87612312D01*
X126551959Y-87580101D01*
X126563231Y-87563231D01*
X126580101Y-87551959D01*
X126612312Y-87545552D01*
X127387688Y-87545552D01*
X127419899Y-87551959D01*
X127419899Y-87551959D01*
G37*
G36*
X125919899Y-87551959D02*
G01*
X125936769Y-87563231D01*
X125948041Y-87580101D01*
X125954448Y-87612312D01*
X125954448Y-88387688D01*
X125948041Y-88419899D01*
X125936769Y-88436769D01*
X125919899Y-88448041D01*
X125912685Y-88449476D01*
X125900000Y-88451999D01*
X125887688Y-88454448D01*
X125112312Y-88454448D01*
X125080101Y-88448041D01*
X125063231Y-88436769D01*
X125051959Y-88419899D01*
X125045552Y-88387688D01*
X125045552Y-87612312D01*
X125051959Y-87580101D01*
X125063231Y-87563231D01*
X125080101Y-87551959D01*
X125112312Y-87545552D01*
X125887688Y-87545552D01*
X125919899Y-87551959D01*
X125919899Y-87551959D01*
G37*
G36*
X112169899Y-86551959D02*
G01*
X112186769Y-86563231D01*
X112198041Y-86580101D01*
X112204448Y-86612312D01*
X112204448Y-87387688D01*
X112201999Y-87400000D01*
X112198041Y-87419899D01*
X112186769Y-87436769D01*
X112169899Y-87448041D01*
X112150000Y-87451999D01*
X112137688Y-87454448D01*
X111362312Y-87454448D01*
X111330101Y-87448041D01*
X111313231Y-87436769D01*
X111301959Y-87419899D01*
X111295552Y-87387688D01*
X111295552Y-86612312D01*
X111301959Y-86580101D01*
X111313231Y-86563231D01*
X111330101Y-86551959D01*
X111362312Y-86545552D01*
X112137688Y-86545552D01*
X112169899Y-86551959D01*
X112169899Y-86551959D01*
G37*
G36*
X110669899Y-86551959D02*
G01*
X110686769Y-86563231D01*
X110698041Y-86580101D01*
X110704448Y-86612312D01*
X110704448Y-87387688D01*
X110701999Y-87400000D01*
X110698041Y-87419899D01*
X110686769Y-87436769D01*
X110669899Y-87448041D01*
X110650000Y-87451999D01*
X110637688Y-87454448D01*
X109862312Y-87454448D01*
X109830101Y-87448041D01*
X109813231Y-87436769D01*
X109801959Y-87419899D01*
X109795552Y-87387688D01*
X109795552Y-86612312D01*
X109801959Y-86580101D01*
X109813231Y-86563231D01*
X109830101Y-86551959D01*
X109862312Y-86545552D01*
X110637688Y-86545552D01*
X110669899Y-86551959D01*
X110669899Y-86551959D01*
G37*
G36*
X101654043Y-85547274D02*
G01*
X101679123Y-85547274D01*
X101731189Y-85561225D01*
X101775903Y-85569311D01*
X101799102Y-85579422D01*
X101831977Y-85588231D01*
X101870985Y-85610752D01*
X101904375Y-85625305D01*
X101931827Y-85645879D01*
X101969023Y-85667354D01*
X101994574Y-85692905D01*
X102016522Y-85709354D01*
X102044276Y-85742607D01*
X102080920Y-85779251D01*
X102094518Y-85802803D01*
X102106321Y-85816945D01*
X102129728Y-85863789D01*
X102160043Y-85916297D01*
X102164759Y-85933898D01*
X102168964Y-85942313D01*
X102183102Y-86002355D01*
X102201000Y-86069151D01*
X102201000Y-86227397D01*
X102182014Y-86298253D01*
X102165282Y-86364134D01*
X102163389Y-86367762D01*
X102160043Y-86380251D01*
X102127185Y-86437163D01*
X102100461Y-86488391D01*
X102091878Y-86498317D01*
X102080920Y-86517297D01*
X102040612Y-86557605D01*
X102008799Y-86594396D01*
X101990857Y-86607360D01*
X101969023Y-86629194D01*
X101927304Y-86653281D01*
X101895200Y-86676477D01*
X101866445Y-86688417D01*
X101831977Y-86708317D01*
X101794040Y-86718482D01*
X101765772Y-86730220D01*
X101726153Y-86736672D01*
X101679123Y-86749274D01*
X101648777Y-86749274D01*
X101627452Y-86752747D01*
X101578405Y-86749274D01*
X101520877Y-86749274D01*
X101500214Y-86743737D01*
X101487655Y-86742848D01*
X101431980Y-86725454D01*
X101368023Y-86708317D01*
X101357288Y-86702119D01*
X101353882Y-86701055D01*
X101294672Y-86665968D01*
X101230977Y-86629194D01*
X101179830Y-86578047D01*
X101132421Y-86532345D01*
X101129344Y-86527561D01*
X101119080Y-86517297D01*
X101086987Y-86461710D01*
X101056609Y-86414482D01*
X101051709Y-86400606D01*
X101039957Y-86380251D01*
X101025602Y-86326678D01*
X101009942Y-86282332D01*
X101007401Y-86258750D01*
X100999000Y-86227397D01*
X100999000Y-86180783D01*
X100994928Y-86142992D01*
X100999000Y-86110530D01*
X100999000Y-86069151D01*
X101008760Y-86032727D01*
X101012371Y-86003938D01*
X101026949Y-85964845D01*
X101039957Y-85916297D01*
X101054344Y-85891377D01*
X101061337Y-85872625D01*
X101089541Y-85830415D01*
X101119080Y-85779251D01*
X101133085Y-85765246D01*
X101139196Y-85756100D01*
X101183113Y-85715218D01*
X101230977Y-85667354D01*
X101240333Y-85661952D01*
X101241775Y-85660610D01*
X101304565Y-85624868D01*
X101368023Y-85588231D01*
X101436629Y-85569848D01*
X101498048Y-85551830D01*
X101505320Y-85551442D01*
X101520877Y-85547274D01*
X101583540Y-85547274D01*
X101637995Y-85544372D01*
X101654043Y-85547274D01*
X101654043Y-85547274D01*
G37*
G36*
X135169899Y-83551959D02*
G01*
X135186769Y-83563231D01*
X135198041Y-83580101D01*
X135204448Y-83612312D01*
X135204448Y-84387688D01*
X135201999Y-84400000D01*
X135198041Y-84419899D01*
X135186769Y-84436769D01*
X135169899Y-84448041D01*
X135150000Y-84451999D01*
X135137688Y-84454448D01*
X134362312Y-84454448D01*
X134330101Y-84448041D01*
X134313231Y-84436769D01*
X134301959Y-84419899D01*
X134295552Y-84387688D01*
X134295552Y-83612312D01*
X134301959Y-83580101D01*
X134313231Y-83563231D01*
X134330101Y-83551959D01*
X134362312Y-83545552D01*
X135137688Y-83545552D01*
X135169899Y-83551959D01*
X135169899Y-83551959D01*
G37*
G36*
X133669899Y-83551959D02*
G01*
X133686769Y-83563231D01*
X133698041Y-83580101D01*
X133704448Y-83612312D01*
X133704448Y-84387688D01*
X133701999Y-84400000D01*
X133698041Y-84419899D01*
X133686769Y-84436769D01*
X133669899Y-84448041D01*
X133650000Y-84451999D01*
X133637688Y-84454448D01*
X132862312Y-84454448D01*
X132830101Y-84448041D01*
X132813231Y-84436769D01*
X132801959Y-84419899D01*
X132795552Y-84387688D01*
X132795552Y-83612312D01*
X132801959Y-83580101D01*
X132813231Y-83563231D01*
X132830101Y-83551959D01*
X132862312Y-83545552D01*
X133637688Y-83545552D01*
X133669899Y-83551959D01*
X133669899Y-83551959D01*
G37*
G36*
X117869899Y-82551959D02*
G01*
X117886769Y-82563231D01*
X117898041Y-82580101D01*
X117904448Y-82612312D01*
X117904448Y-83387688D01*
X117901999Y-83400000D01*
X117898041Y-83419899D01*
X117886769Y-83436769D01*
X117869899Y-83448041D01*
X117850000Y-83451999D01*
X117837688Y-83454448D01*
X117062312Y-83454448D01*
X117030101Y-83448041D01*
X117013231Y-83436769D01*
X117001959Y-83419899D01*
X116995552Y-83387688D01*
X116995552Y-82612312D01*
X117001959Y-82580101D01*
X117013231Y-82563231D01*
X117030101Y-82551959D01*
X117062312Y-82545552D01*
X117837688Y-82545552D01*
X117869899Y-82551959D01*
X117869899Y-82551959D01*
G37*
G36*
X119369899Y-82551959D02*
G01*
X119386769Y-82563231D01*
X119398041Y-82580101D01*
X119404448Y-82612312D01*
X119404448Y-83387688D01*
X119401999Y-83400000D01*
X119398041Y-83419899D01*
X119386769Y-83436769D01*
X119369899Y-83448041D01*
X119350000Y-83451999D01*
X119337688Y-83454448D01*
X118562312Y-83454448D01*
X118530101Y-83448041D01*
X118513231Y-83436769D01*
X118501959Y-83419899D01*
X118495552Y-83387688D01*
X118495552Y-82612312D01*
X118501959Y-82580101D01*
X118513231Y-82563231D01*
X118530101Y-82551959D01*
X118562312Y-82545552D01*
X119337688Y-82545552D01*
X119369899Y-82551959D01*
X119369899Y-82551959D01*
G37*
G36*
X127169899Y-78551959D02*
G01*
X127186769Y-78563231D01*
X127198041Y-78580101D01*
X127204448Y-78612312D01*
X127204448Y-79387688D01*
X127201999Y-79400000D01*
X127198041Y-79419899D01*
X127186769Y-79436769D01*
X127169899Y-79448041D01*
X127150000Y-79451999D01*
X127137688Y-79454448D01*
X126362312Y-79454448D01*
X126330101Y-79448041D01*
X126313231Y-79436769D01*
X126301959Y-79419899D01*
X126295552Y-79387688D01*
X126295552Y-78612312D01*
X126301959Y-78580101D01*
X126313231Y-78563231D01*
X126330101Y-78551959D01*
X126362312Y-78545552D01*
X127137688Y-78545552D01*
X127169899Y-78551959D01*
X127169899Y-78551959D01*
G37*
G36*
X125669899Y-78551959D02*
G01*
X125686769Y-78563231D01*
X125698041Y-78580101D01*
X125704448Y-78612312D01*
X125704448Y-79387688D01*
X125701999Y-79400000D01*
X125698041Y-79419899D01*
X125686769Y-79436769D01*
X125669899Y-79448041D01*
X125650000Y-79451999D01*
X125637688Y-79454448D01*
X124862312Y-79454448D01*
X124830101Y-79448041D01*
X124813231Y-79436769D01*
X124801959Y-79419899D01*
X124795552Y-79387688D01*
X124795552Y-78612312D01*
X124801959Y-78580101D01*
X124813231Y-78563231D01*
X124830101Y-78551959D01*
X124862312Y-78545552D01*
X125637688Y-78545552D01*
X125669899Y-78551959D01*
X125669899Y-78551959D01*
G37*
M02*
