G04 #@! TF.GenerationSoftware,KiCad,Pcbnew,(5.99.0-286-g11f0acefe)*
G04 #@! TF.CreationDate,2019-11-05T18:07:44-05:00*
G04 #@! TF.ProjectId,MotorcycleSpeedo,4d6f746f-7263-4796-936c-655370656564,rev?*
G04 #@! TF.SameCoordinates,Original*
G04 #@! TF.FileFunction,Legend,Top*
G04 #@! TF.FilePolarity,Positive*
%FSLAX46Y46*%
G04 Gerber Fmt 4.6, Leading zero omitted, Abs format (unit mm)*
G04 Created by KiCad (PCBNEW (5.99.0-286-g11f0acefe)) date 2019-11-05 18:07:44*
%MOMM*%
%LPD*%
G04 APERTURE LIST*
%ADD10C,0.300000*%
%ADD11C,0.120000*%
%ADD12C,0.150000*%
%ADD13C,0.500000*%
%ADD14C,0.420000*%
G04 APERTURE END LIST*
D10*
X207567142Y-90128928D02*
X207638571Y-90057500D01*
X207781428Y-89986071D01*
X208138571Y-89986071D01*
X208281428Y-90057500D01*
X208352857Y-90128928D01*
X208424285Y-90271785D01*
X208424285Y-90414642D01*
X208352857Y-90628928D01*
X207495714Y-91486071D01*
X208424285Y-91486071D01*
X209352857Y-89986071D02*
X209495714Y-89986071D01*
X209638571Y-90057500D01*
X209710000Y-90128928D01*
X209781428Y-90271785D01*
X209852857Y-90557500D01*
X209852857Y-90914642D01*
X209781428Y-91200357D01*
X209710000Y-91343214D01*
X209638571Y-91414642D01*
X209495714Y-91486071D01*
X209352857Y-91486071D01*
X209210000Y-91414642D01*
X209138571Y-91343214D01*
X209067142Y-91200357D01*
X208995714Y-90914642D01*
X208995714Y-90557500D01*
X209067142Y-90271785D01*
X209138571Y-90128928D01*
X209210000Y-90057500D01*
X209352857Y-89986071D01*
X211281428Y-91486071D02*
X210424285Y-91486071D01*
X210852857Y-91486071D02*
X210852857Y-89986071D01*
X210710000Y-90200357D01*
X210567142Y-90343214D01*
X210424285Y-90414642D01*
X211995714Y-91486071D02*
X212281428Y-91486071D01*
X212424285Y-91414642D01*
X212495714Y-91343214D01*
X212638571Y-91128928D01*
X212710000Y-90843214D01*
X212710000Y-90271785D01*
X212638571Y-90128928D01*
X212567142Y-90057500D01*
X212424285Y-89986071D01*
X212138571Y-89986071D01*
X211995714Y-90057500D01*
X211924285Y-90128928D01*
X211852857Y-90271785D01*
X211852857Y-90628928D01*
X211924285Y-90771785D01*
X211995714Y-90843214D01*
X212138571Y-90914642D01*
X212424285Y-90914642D01*
X212567142Y-90843214D01*
X212638571Y-90771785D01*
X212710000Y-90628928D01*
X214424285Y-91057500D02*
X215138571Y-91057500D01*
X214281428Y-91486071D02*
X214781428Y-89986071D01*
X215281428Y-91486071D01*
X216281428Y-90700357D02*
X216495714Y-90771785D01*
X216567142Y-90843214D01*
X216638571Y-90986071D01*
X216638571Y-91200357D01*
X216567142Y-91343214D01*
X216495714Y-91414642D01*
X216352857Y-91486071D01*
X215781428Y-91486071D01*
X215781428Y-89986071D01*
X216281428Y-89986071D01*
X216424285Y-90057500D01*
X216495714Y-90128928D01*
X216567142Y-90271785D01*
X216567142Y-90414642D01*
X216495714Y-90557500D01*
X216424285Y-90628928D01*
X216281428Y-90700357D01*
X215781428Y-90700357D01*
X218067142Y-91486071D02*
X217210000Y-91486071D01*
X217638571Y-91486071D02*
X217638571Y-89986071D01*
X217495714Y-90200357D01*
X217352857Y-90343214D01*
X217210000Y-90414642D01*
X218495714Y-89986071D02*
X219352857Y-89986071D01*
X218924285Y-91486071D02*
X218924285Y-89986071D01*
X220281428Y-89986071D02*
X220281428Y-91057500D01*
X220210000Y-91271785D01*
X220067142Y-91414642D01*
X219852857Y-91486071D01*
X219710000Y-91486071D01*
X200531428Y-93901071D02*
X200531428Y-92401071D01*
X201031428Y-93472500D01*
X201531428Y-92401071D01*
X201531428Y-93901071D01*
X202460000Y-93901071D02*
X202317142Y-93829642D01*
X202245714Y-93758214D01*
X202174285Y-93615357D01*
X202174285Y-93186785D01*
X202245714Y-93043928D01*
X202317142Y-92972500D01*
X202460000Y-92901071D01*
X202674285Y-92901071D01*
X202817142Y-92972500D01*
X202888571Y-93043928D01*
X202960000Y-93186785D01*
X202960000Y-93615357D01*
X202888571Y-93758214D01*
X202817142Y-93829642D01*
X202674285Y-93901071D01*
X202460000Y-93901071D01*
X203388571Y-92901071D02*
X203960000Y-92901071D01*
X203602857Y-92401071D02*
X203602857Y-93686785D01*
X203674285Y-93829642D01*
X203817142Y-93901071D01*
X203960000Y-93901071D01*
X204674285Y-93901071D02*
X204531428Y-93829642D01*
X204460000Y-93758214D01*
X204388571Y-93615357D01*
X204388571Y-93186785D01*
X204460000Y-93043928D01*
X204531428Y-92972500D01*
X204674285Y-92901071D01*
X204888571Y-92901071D01*
X205031428Y-92972500D01*
X205102857Y-93043928D01*
X205174285Y-93186785D01*
X205174285Y-93615357D01*
X205102857Y-93758214D01*
X205031428Y-93829642D01*
X204888571Y-93901071D01*
X204674285Y-93901071D01*
X205817142Y-93901071D02*
X205817142Y-92901071D01*
X205817142Y-93186785D02*
X205888571Y-93043928D01*
X205960000Y-92972500D01*
X206102857Y-92901071D01*
X206245714Y-92901071D01*
X207388571Y-93829642D02*
X207245714Y-93901071D01*
X206960000Y-93901071D01*
X206817142Y-93829642D01*
X206745714Y-93758214D01*
X206674285Y-93615357D01*
X206674285Y-93186785D01*
X206745714Y-93043928D01*
X206817142Y-92972500D01*
X206960000Y-92901071D01*
X207245714Y-92901071D01*
X207388571Y-92972500D01*
X207888571Y-92901071D02*
X208245714Y-93901071D01*
X208602857Y-92901071D02*
X208245714Y-93901071D01*
X208102857Y-94258214D01*
X208031428Y-94329642D01*
X207888571Y-94401071D01*
X209817142Y-93829642D02*
X209674285Y-93901071D01*
X209388571Y-93901071D01*
X209245714Y-93829642D01*
X209174285Y-93758214D01*
X209102857Y-93615357D01*
X209102857Y-93186785D01*
X209174285Y-93043928D01*
X209245714Y-92972500D01*
X209388571Y-92901071D01*
X209674285Y-92901071D01*
X209817142Y-92972500D01*
X210674285Y-93901071D02*
X210531428Y-93829642D01*
X210460000Y-93686785D01*
X210460000Y-92401071D01*
X211817142Y-93829642D02*
X211674285Y-93901071D01*
X211388571Y-93901071D01*
X211245714Y-93829642D01*
X211174285Y-93686785D01*
X211174285Y-93115357D01*
X211245714Y-92972500D01*
X211388571Y-92901071D01*
X211674285Y-92901071D01*
X211817142Y-92972500D01*
X211888571Y-93115357D01*
X211888571Y-93258214D01*
X211174285Y-93401071D01*
X213602857Y-93829642D02*
X213817142Y-93901071D01*
X214174285Y-93901071D01*
X214317142Y-93829642D01*
X214388571Y-93758214D01*
X214460000Y-93615357D01*
X214460000Y-93472500D01*
X214388571Y-93329642D01*
X214317142Y-93258214D01*
X214174285Y-93186785D01*
X213888571Y-93115357D01*
X213745714Y-93043928D01*
X213674285Y-92972500D01*
X213602857Y-92829642D01*
X213602857Y-92686785D01*
X213674285Y-92543928D01*
X213745714Y-92472500D01*
X213888571Y-92401071D01*
X214245714Y-92401071D01*
X214460000Y-92472500D01*
X215102857Y-92901071D02*
X215102857Y-94401071D01*
X215102857Y-92972500D02*
X215245714Y-92901071D01*
X215531428Y-92901071D01*
X215674285Y-92972500D01*
X215745714Y-93043928D01*
X215817142Y-93186785D01*
X215817142Y-93615357D01*
X215745714Y-93758214D01*
X215674285Y-93829642D01*
X215531428Y-93901071D01*
X215245714Y-93901071D01*
X215102857Y-93829642D01*
X217031428Y-93829642D02*
X216888571Y-93901071D01*
X216602857Y-93901071D01*
X216460000Y-93829642D01*
X216388571Y-93686785D01*
X216388571Y-93115357D01*
X216460000Y-92972500D01*
X216602857Y-92901071D01*
X216888571Y-92901071D01*
X217031428Y-92972500D01*
X217102857Y-93115357D01*
X217102857Y-93258214D01*
X216388571Y-93401071D01*
X218317142Y-93829642D02*
X218174285Y-93901071D01*
X217888571Y-93901071D01*
X217745714Y-93829642D01*
X217674285Y-93686785D01*
X217674285Y-93115357D01*
X217745714Y-92972500D01*
X217888571Y-92901071D01*
X218174285Y-92901071D01*
X218317142Y-92972500D01*
X218388571Y-93115357D01*
X218388571Y-93258214D01*
X217674285Y-93401071D01*
X219674285Y-93901071D02*
X219674285Y-92401071D01*
X219674285Y-93829642D02*
X219531428Y-93901071D01*
X219245714Y-93901071D01*
X219102857Y-93829642D01*
X219031428Y-93758214D01*
X218960000Y-93615357D01*
X218960000Y-93186785D01*
X219031428Y-93043928D01*
X219102857Y-92972500D01*
X219245714Y-92901071D01*
X219531428Y-92901071D01*
X219674285Y-92972500D01*
X220602857Y-93901071D02*
X220460000Y-93829642D01*
X220388571Y-93758214D01*
X220317142Y-93615357D01*
X220317142Y-93186785D01*
X220388571Y-93043928D01*
X220460000Y-92972500D01*
X220602857Y-92901071D01*
X220817142Y-92901071D01*
X220960000Y-92972500D01*
X221031428Y-93043928D01*
X221102857Y-93186785D01*
X221102857Y-93615357D01*
X221031428Y-93758214D01*
X220960000Y-93829642D01*
X220817142Y-93901071D01*
X220602857Y-93901071D01*
X221745714Y-93901071D02*
X221745714Y-92901071D01*
X221745714Y-93043928D02*
X221817142Y-92972500D01*
X221960000Y-92901071D01*
X222174285Y-92901071D01*
X222317142Y-92972500D01*
X222388571Y-93115357D01*
X222388571Y-93901071D01*
X222388571Y-93115357D02*
X222460000Y-92972500D01*
X222602857Y-92901071D01*
X222817142Y-92901071D01*
X222960000Y-92972500D01*
X223031428Y-93115357D01*
X223031428Y-93901071D01*
X224317142Y-93829642D02*
X224174285Y-93901071D01*
X223888571Y-93901071D01*
X223745714Y-93829642D01*
X223674285Y-93686785D01*
X223674285Y-93115357D01*
X223745714Y-92972500D01*
X223888571Y-92901071D01*
X224174285Y-92901071D01*
X224317142Y-92972500D01*
X224388571Y-93115357D01*
X224388571Y-93258214D01*
X223674285Y-93401071D01*
X224817142Y-92901071D02*
X225388571Y-92901071D01*
X225031428Y-92401071D02*
X225031428Y-93686785D01*
X225102857Y-93829642D01*
X225245714Y-93901071D01*
X225388571Y-93901071D01*
X226460000Y-93829642D02*
X226317142Y-93901071D01*
X226031428Y-93901071D01*
X225888571Y-93829642D01*
X225817142Y-93686785D01*
X225817142Y-93115357D01*
X225888571Y-92972500D01*
X226031428Y-92901071D01*
X226317142Y-92901071D01*
X226460000Y-92972500D01*
X226531428Y-93115357D01*
X226531428Y-93258214D01*
X225817142Y-93401071D01*
X227174285Y-93901071D02*
X227174285Y-92901071D01*
X227174285Y-93186785D02*
X227245714Y-93043928D01*
X227317142Y-92972500D01*
X227460000Y-92901071D01*
X227602857Y-92901071D01*
X212138571Y-96316071D02*
X211638571Y-95601785D01*
X211281428Y-96316071D02*
X211281428Y-94816071D01*
X211852857Y-94816071D01*
X211995714Y-94887500D01*
X212067142Y-94958928D01*
X212138571Y-95101785D01*
X212138571Y-95316071D01*
X212067142Y-95458928D01*
X211995714Y-95530357D01*
X211852857Y-95601785D01*
X211281428Y-95601785D01*
X213352857Y-96244642D02*
X213210000Y-96316071D01*
X212924285Y-96316071D01*
X212781428Y-96244642D01*
X212710000Y-96101785D01*
X212710000Y-95530357D01*
X212781428Y-95387500D01*
X212924285Y-95316071D01*
X213210000Y-95316071D01*
X213352857Y-95387500D01*
X213424285Y-95530357D01*
X213424285Y-95673214D01*
X212710000Y-95816071D01*
X213924285Y-95316071D02*
X214281428Y-96316071D01*
X214638571Y-95316071D01*
X215210000Y-96173214D02*
X215281428Y-96244642D01*
X215210000Y-96316071D01*
X215138571Y-96244642D01*
X215210000Y-96173214D01*
X215210000Y-96316071D01*
X216210000Y-94816071D02*
X216352857Y-94816071D01*
X216495714Y-94887500D01*
X216567142Y-94958928D01*
X216638571Y-95101785D01*
X216710000Y-95387500D01*
X216710000Y-95744642D01*
X216638571Y-96030357D01*
X216567142Y-96173214D01*
X216495714Y-96244642D01*
X216352857Y-96316071D01*
X216210000Y-96316071D01*
X216067142Y-96244642D01*
X215995714Y-96173214D01*
X215924285Y-96030357D01*
X215852857Y-95744642D01*
X215852857Y-95387500D01*
X215924285Y-95101785D01*
X215995714Y-94958928D01*
X216067142Y-94887500D01*
X216210000Y-94816071D01*
X203210000Y-97945357D02*
X203424285Y-98016785D01*
X203495714Y-98088214D01*
X203567142Y-98231071D01*
X203567142Y-98445357D01*
X203495714Y-98588214D01*
X203424285Y-98659642D01*
X203281428Y-98731071D01*
X202710000Y-98731071D01*
X202710000Y-97231071D01*
X203210000Y-97231071D01*
X203352857Y-97302500D01*
X203424285Y-97373928D01*
X203495714Y-97516785D01*
X203495714Y-97659642D01*
X203424285Y-97802500D01*
X203352857Y-97873928D01*
X203210000Y-97945357D01*
X202710000Y-97945357D01*
X204781428Y-98659642D02*
X204638571Y-98731071D01*
X204352857Y-98731071D01*
X204210000Y-98659642D01*
X204138571Y-98516785D01*
X204138571Y-97945357D01*
X204210000Y-97802500D01*
X204352857Y-97731071D01*
X204638571Y-97731071D01*
X204781428Y-97802500D01*
X204852857Y-97945357D01*
X204852857Y-98088214D01*
X204138571Y-98231071D01*
X206424285Y-97731071D02*
X206995714Y-97731071D01*
X206638571Y-97231071D02*
X206638571Y-98516785D01*
X206710000Y-98659642D01*
X206852857Y-98731071D01*
X206995714Y-98731071D01*
X207710000Y-98731071D02*
X207567142Y-98659642D01*
X207495714Y-98588214D01*
X207424285Y-98445357D01*
X207424285Y-98016785D01*
X207495714Y-97873928D01*
X207567142Y-97802500D01*
X207710000Y-97731071D01*
X207924285Y-97731071D01*
X208067142Y-97802500D01*
X208138571Y-97873928D01*
X208210000Y-98016785D01*
X208210000Y-98445357D01*
X208138571Y-98588214D01*
X208067142Y-98659642D01*
X207924285Y-98731071D01*
X207710000Y-98731071D01*
X209067142Y-98731071D02*
X208924285Y-98659642D01*
X208852857Y-98588214D01*
X208781428Y-98445357D01*
X208781428Y-98016785D01*
X208852857Y-97873928D01*
X208924285Y-97802500D01*
X209067142Y-97731071D01*
X209281428Y-97731071D01*
X209424285Y-97802500D01*
X209495714Y-97873928D01*
X209567142Y-98016785D01*
X209567142Y-98445357D01*
X209495714Y-98588214D01*
X209424285Y-98659642D01*
X209281428Y-98731071D01*
X209067142Y-98731071D01*
X211567142Y-98731071D02*
X211424285Y-98659642D01*
X211352857Y-98516785D01*
X211352857Y-97231071D01*
X212781428Y-98731071D02*
X212781428Y-97945357D01*
X212710000Y-97802500D01*
X212567142Y-97731071D01*
X212281428Y-97731071D01*
X212138571Y-97802500D01*
X212781428Y-98659642D02*
X212638571Y-98731071D01*
X212281428Y-98731071D01*
X212138571Y-98659642D01*
X212067142Y-98516785D01*
X212067142Y-98373928D01*
X212138571Y-98231071D01*
X212281428Y-98159642D01*
X212638571Y-98159642D01*
X212781428Y-98088214D01*
X213352857Y-97731071D02*
X214138571Y-97731071D01*
X213352857Y-98731071D01*
X214138571Y-98731071D01*
X214567142Y-97731071D02*
X214924285Y-98731071D01*
X215281428Y-97731071D02*
X214924285Y-98731071D01*
X214781428Y-99088214D01*
X214710000Y-99159642D01*
X214567142Y-99231071D01*
X216781428Y-97731071D02*
X217352857Y-97731071D01*
X216995714Y-97231071D02*
X216995714Y-98516785D01*
X217067142Y-98659642D01*
X217210000Y-98731071D01*
X217352857Y-98731071D01*
X218067142Y-98731071D02*
X217924285Y-98659642D01*
X217852857Y-98588214D01*
X217781428Y-98445357D01*
X217781428Y-98016785D01*
X217852857Y-97873928D01*
X217924285Y-97802500D01*
X218067142Y-97731071D01*
X218281428Y-97731071D01*
X218424285Y-97802500D01*
X218495714Y-97873928D01*
X218567142Y-98016785D01*
X218567142Y-98445357D01*
X218495714Y-98588214D01*
X218424285Y-98659642D01*
X218281428Y-98731071D01*
X218067142Y-98731071D01*
X220138571Y-97731071D02*
X220710000Y-97731071D01*
X220352857Y-98731071D02*
X220352857Y-97445357D01*
X220424285Y-97302500D01*
X220567142Y-97231071D01*
X220710000Y-97231071D01*
X221852857Y-98731071D02*
X221852857Y-97945357D01*
X221781428Y-97802500D01*
X221638571Y-97731071D01*
X221352857Y-97731071D01*
X221210000Y-97802500D01*
X221852857Y-98659642D02*
X221710000Y-98731071D01*
X221352857Y-98731071D01*
X221210000Y-98659642D01*
X221138571Y-98516785D01*
X221138571Y-98373928D01*
X221210000Y-98231071D01*
X221352857Y-98159642D01*
X221710000Y-98159642D01*
X221852857Y-98088214D01*
X222567142Y-98731071D02*
X222567142Y-97731071D01*
X222567142Y-97231071D02*
X222495714Y-97302500D01*
X222567142Y-97373928D01*
X222638571Y-97302500D01*
X222567142Y-97231071D01*
X222567142Y-97373928D01*
X223495714Y-98731071D02*
X223352857Y-98659642D01*
X223281428Y-98516785D01*
X223281428Y-97231071D01*
X224067142Y-98588214D02*
X224138571Y-98659642D01*
X224067142Y-98731071D01*
X223995714Y-98659642D01*
X224067142Y-98588214D01*
X224067142Y-98731071D01*
D11*
X223860000Y-113330000D02*
X237260000Y-63430000D01*
X223860000Y-113430000D02*
X249660000Y-68630000D01*
X223860000Y-113330000D02*
X268260000Y-87730000D01*
X223860000Y-113330000D02*
X273360000Y-100030000D01*
X223860000Y-113430000D02*
X273360000Y-126730000D01*
X223860000Y-113430000D02*
X275160000Y-113430000D01*
X223860000Y-113430000D02*
X260260000Y-77030000D01*
X223860000Y-61430000D02*
X223860000Y-113430000D01*
X223860000Y-113430000D02*
X223860000Y-61430000D01*
X203850000Y-113373641D02*
X190610000Y-63780000D01*
X203850000Y-113378640D02*
X178110000Y-69030000D01*
X203850000Y-113378640D02*
X167610000Y-77030000D01*
X203850000Y-113373641D02*
X159360000Y-87780000D01*
X203850000Y-113373641D02*
X154360000Y-100030000D01*
X203850000Y-113378640D02*
X152610000Y-113280000D01*
X203850000Y-113373641D02*
X203792083Y-62059193D01*
X203850000Y-113373641D02*
X154110000Y-126280000D01*
X186210000Y-168730000D02*
X186210000Y-167400000D01*
X187540000Y-168730000D02*
X186210000Y-168730000D01*
X188810000Y-168730000D02*
X188810000Y-166070000D01*
X188810000Y-166070000D02*
X204110000Y-166070000D01*
X188810000Y-168730000D02*
X204110000Y-168730000D01*
X204110000Y-168730000D02*
X204110000Y-166070000D01*
X174520000Y-175380000D02*
X174520000Y-174050000D01*
X175850000Y-175380000D02*
X174520000Y-175380000D01*
X177120000Y-175380000D02*
X177120000Y-172720000D01*
X177120000Y-172720000D02*
X184800000Y-172720000D01*
X177120000Y-175380000D02*
X184800000Y-175380000D01*
X184800000Y-175380000D02*
X184800000Y-172720000D01*
X178605000Y-160810000D02*
X178605000Y-160007530D01*
X178605000Y-159392470D02*
X178605000Y-158590000D01*
X174860000Y-160810000D02*
X178605000Y-160810000D01*
X174860000Y-158590000D02*
X178605000Y-158590000D01*
X174860000Y-160810000D02*
X174860000Y-160263471D01*
X174860000Y-159136529D02*
X174860000Y-158590000D01*
X174100000Y-160810000D02*
X173340000Y-160810000D01*
X173340000Y-160810000D02*
X173340000Y-159700000D01*
D12*
X271300000Y-165500000D02*
X265300000Y-165500000D01*
X271300000Y-165400000D02*
X271300000Y-165500000D01*
X271300000Y-129500000D02*
X265300000Y-129500000D01*
X271300000Y-129700000D02*
X271300000Y-129500000D01*
X271300000Y-132400000D02*
X271300000Y-129700000D01*
X156700000Y-129500000D02*
X162700000Y-129500000D01*
X156700000Y-132500000D02*
X156700000Y-129500000D01*
X156700000Y-165500000D02*
X156700000Y-162500000D01*
X162700000Y-165500000D02*
X156700000Y-165500000D01*
X257800000Y-139000000D02*
X170200000Y-139000000D01*
X257800000Y-157000000D02*
X257800000Y-139000000D01*
X170200000Y-157000000D02*
X257800000Y-157000000D01*
X170200000Y-139000000D02*
X170200000Y-157000000D01*
X156700000Y-132500000D02*
X156700000Y-162500000D01*
X271300000Y-165400000D02*
X271300000Y-132400000D01*
X162700000Y-165500000D02*
X265300000Y-165500000D01*
D11*
X162700000Y-129500000D02*
X265300000Y-129500000D01*
X231580002Y-172419999D02*
X231580002Y-175079999D01*
X236720002Y-172419999D02*
X231580002Y-172419999D01*
X236720002Y-175079999D02*
X231580002Y-175079999D01*
X236720002Y-172419999D02*
X236720002Y-175079999D01*
X237990002Y-172419999D02*
X239320002Y-172419999D01*
X239320002Y-172419999D02*
X239320002Y-173749999D01*
X202314038Y-112365409D02*
X204053521Y-110625926D01*
X204053521Y-110625926D02*
X203014074Y-109586479D01*
X203014074Y-109586479D02*
X201274591Y-111325962D01*
X202896529Y-115355320D02*
X201666529Y-113224898D01*
X201666529Y-113224898D02*
X200393471Y-113959898D01*
X200393471Y-113959898D02*
X201623471Y-116090320D01*
X226695409Y-111625962D02*
X224955926Y-109886479D01*
X224955926Y-109886479D02*
X223916479Y-110925926D01*
X223916479Y-110925926D02*
X225655962Y-112665409D01*
X225545320Y-116184127D02*
X227284803Y-114444644D01*
X227284803Y-114444644D02*
X226245356Y-113405197D01*
X226245356Y-113405197D02*
X224505873Y-115144680D01*
D13*
X231117142Y-81072857D02*
X233402857Y-82215714D01*
X231117142Y-83358571D01*
X219402857Y-83739523D02*
X219402857Y-79739523D01*
X221117142Y-83739523D01*
X221117142Y-79739523D01*
X205902857Y-83739523D02*
X205902857Y-79739523D01*
X205902857Y-81644285D02*
X207617142Y-81644285D01*
X207617142Y-83739523D02*
X207617142Y-79739523D01*
X195402857Y-81572857D02*
X193117142Y-82715714D01*
X195402857Y-83858571D01*
D14*
X178858571Y-146252380D02*
X178467142Y-145953333D01*
X178271428Y-145654285D01*
X178075714Y-145056190D01*
X178075714Y-144757142D01*
X178271428Y-144159047D01*
X178467142Y-143860000D01*
X178858571Y-143560952D01*
X179641428Y-143560952D01*
X180032857Y-143860000D01*
X180228571Y-144159047D01*
X180424285Y-144757142D01*
X180424285Y-145056190D01*
X180228571Y-145654285D01*
X180032857Y-145953333D01*
X179641428Y-146252380D01*
X178858571Y-146252380D01*
X178467142Y-146551428D01*
X178271428Y-146850476D01*
X178075714Y-147448571D01*
X178075714Y-148644761D01*
X178271428Y-149242857D01*
X178467142Y-149541904D01*
X178858571Y-149840952D01*
X179641428Y-149840952D01*
X180032857Y-149541904D01*
X180228571Y-149242857D01*
X180424285Y-148644761D01*
X180424285Y-147448571D01*
X180228571Y-146850476D01*
X180032857Y-146551428D01*
X179641428Y-146252380D01*
X185904285Y-146252380D02*
X185512857Y-145953333D01*
X185317142Y-145654285D01*
X185121428Y-145056190D01*
X185121428Y-144757142D01*
X185317142Y-144159047D01*
X185512857Y-143860000D01*
X185904285Y-143560952D01*
X186687142Y-143560952D01*
X187078571Y-143860000D01*
X187274285Y-144159047D01*
X187470000Y-144757142D01*
X187470000Y-145056190D01*
X187274285Y-145654285D01*
X187078571Y-145953333D01*
X186687142Y-146252380D01*
X185904285Y-146252380D01*
X185512857Y-146551428D01*
X185317142Y-146850476D01*
X185121428Y-147448571D01*
X185121428Y-148644761D01*
X185317142Y-149242857D01*
X185512857Y-149541904D01*
X185904285Y-149840952D01*
X186687142Y-149840952D01*
X187078571Y-149541904D01*
X187274285Y-149242857D01*
X187470000Y-148644761D01*
X187470000Y-147448571D01*
X187274285Y-146850476D01*
X187078571Y-146551428D01*
X186687142Y-146252380D01*
X192950000Y-146252380D02*
X192558571Y-145953333D01*
X192362857Y-145654285D01*
X192167142Y-145056190D01*
X192167142Y-144757142D01*
X192362857Y-144159047D01*
X192558571Y-143860000D01*
X192950000Y-143560952D01*
X193732857Y-143560952D01*
X194124285Y-143860000D01*
X194320000Y-144159047D01*
X194515714Y-144757142D01*
X194515714Y-145056190D01*
X194320000Y-145654285D01*
X194124285Y-145953333D01*
X193732857Y-146252380D01*
X192950000Y-146252380D01*
X192558571Y-146551428D01*
X192362857Y-146850476D01*
X192167142Y-147448571D01*
X192167142Y-148644761D01*
X192362857Y-149242857D01*
X192558571Y-149541904D01*
X192950000Y-149840952D01*
X193732857Y-149840952D01*
X194124285Y-149541904D01*
X194320000Y-149242857D01*
X194515714Y-148644761D01*
X194515714Y-147448571D01*
X194320000Y-146850476D01*
X194124285Y-146551428D01*
X193732857Y-146252380D01*
X199995714Y-146252380D02*
X199604285Y-145953333D01*
X199408571Y-145654285D01*
X199212857Y-145056190D01*
X199212857Y-144757142D01*
X199408571Y-144159047D01*
X199604285Y-143860000D01*
X199995714Y-143560952D01*
X200778571Y-143560952D01*
X201170000Y-143860000D01*
X201365714Y-144159047D01*
X201561428Y-144757142D01*
X201561428Y-145056190D01*
X201365714Y-145654285D01*
X201170000Y-145953333D01*
X200778571Y-146252380D01*
X199995714Y-146252380D01*
X199604285Y-146551428D01*
X199408571Y-146850476D01*
X199212857Y-147448571D01*
X199212857Y-148644761D01*
X199408571Y-149242857D01*
X199604285Y-149541904D01*
X199995714Y-149840952D01*
X200778571Y-149840952D01*
X201170000Y-149541904D01*
X201365714Y-149242857D01*
X201561428Y-148644761D01*
X201561428Y-147448571D01*
X201365714Y-146850476D01*
X201170000Y-146551428D01*
X200778571Y-146252380D01*
X207041428Y-146252380D02*
X206650000Y-145953333D01*
X206454285Y-145654285D01*
X206258571Y-145056190D01*
X206258571Y-144757142D01*
X206454285Y-144159047D01*
X206650000Y-143860000D01*
X207041428Y-143560952D01*
X207824285Y-143560952D01*
X208215714Y-143860000D01*
X208411428Y-144159047D01*
X208607142Y-144757142D01*
X208607142Y-145056190D01*
X208411428Y-145654285D01*
X208215714Y-145953333D01*
X207824285Y-146252380D01*
X207041428Y-146252380D01*
X206650000Y-146551428D01*
X206454285Y-146850476D01*
X206258571Y-147448571D01*
X206258571Y-148644761D01*
X206454285Y-149242857D01*
X206650000Y-149541904D01*
X207041428Y-149840952D01*
X207824285Y-149840952D01*
X208215714Y-149541904D01*
X208411428Y-149242857D01*
X208607142Y-148644761D01*
X208607142Y-147448571D01*
X208411428Y-146850476D01*
X208215714Y-146551428D01*
X207824285Y-146252380D01*
X214087142Y-146252380D02*
X213695714Y-145953333D01*
X213500000Y-145654285D01*
X213304285Y-145056190D01*
X213304285Y-144757142D01*
X213500000Y-144159047D01*
X213695714Y-143860000D01*
X214087142Y-143560952D01*
X214870000Y-143560952D01*
X215261428Y-143860000D01*
X215457142Y-144159047D01*
X215652857Y-144757142D01*
X215652857Y-145056190D01*
X215457142Y-145654285D01*
X215261428Y-145953333D01*
X214870000Y-146252380D01*
X214087142Y-146252380D01*
X213695714Y-146551428D01*
X213500000Y-146850476D01*
X213304285Y-147448571D01*
X213304285Y-148644761D01*
X213500000Y-149242857D01*
X213695714Y-149541904D01*
X214087142Y-149840952D01*
X214870000Y-149840952D01*
X215261428Y-149541904D01*
X215457142Y-149242857D01*
X215652857Y-148644761D01*
X215652857Y-147448571D01*
X215457142Y-146850476D01*
X215261428Y-146551428D01*
X214870000Y-146252380D01*
X221132857Y-146252380D02*
X220741428Y-145953333D01*
X220545714Y-145654285D01*
X220350000Y-145056190D01*
X220350000Y-144757142D01*
X220545714Y-144159047D01*
X220741428Y-143860000D01*
X221132857Y-143560952D01*
X221915714Y-143560952D01*
X222307142Y-143860000D01*
X222502857Y-144159047D01*
X222698571Y-144757142D01*
X222698571Y-145056190D01*
X222502857Y-145654285D01*
X222307142Y-145953333D01*
X221915714Y-146252380D01*
X221132857Y-146252380D01*
X220741428Y-146551428D01*
X220545714Y-146850476D01*
X220350000Y-147448571D01*
X220350000Y-148644761D01*
X220545714Y-149242857D01*
X220741428Y-149541904D01*
X221132857Y-149840952D01*
X221915714Y-149840952D01*
X222307142Y-149541904D01*
X222502857Y-149242857D01*
X222698571Y-148644761D01*
X222698571Y-147448571D01*
X222502857Y-146850476D01*
X222307142Y-146551428D01*
X221915714Y-146252380D01*
X228178571Y-146252380D02*
X227787142Y-145953333D01*
X227591428Y-145654285D01*
X227395714Y-145056190D01*
X227395714Y-144757142D01*
X227591428Y-144159047D01*
X227787142Y-143860000D01*
X228178571Y-143560952D01*
X228961428Y-143560952D01*
X229352857Y-143860000D01*
X229548571Y-144159047D01*
X229744285Y-144757142D01*
X229744285Y-145056190D01*
X229548571Y-145654285D01*
X229352857Y-145953333D01*
X228961428Y-146252380D01*
X228178571Y-146252380D01*
X227787142Y-146551428D01*
X227591428Y-146850476D01*
X227395714Y-147448571D01*
X227395714Y-148644761D01*
X227591428Y-149242857D01*
X227787142Y-149541904D01*
X228178571Y-149840952D01*
X228961428Y-149840952D01*
X229352857Y-149541904D01*
X229548571Y-149242857D01*
X229744285Y-148644761D01*
X229744285Y-147448571D01*
X229548571Y-146850476D01*
X229352857Y-146551428D01*
X228961428Y-146252380D01*
X234637142Y-149242857D02*
X234832857Y-149541904D01*
X234637142Y-149840952D01*
X234441428Y-149541904D01*
X234637142Y-149242857D01*
X234637142Y-149840952D01*
X234637142Y-145953333D02*
X234832857Y-146252380D01*
X234637142Y-146551428D01*
X234441428Y-146252380D01*
X234637142Y-145953333D01*
X234637142Y-146551428D01*
X240312857Y-146252380D02*
X239921428Y-145953333D01*
X239725714Y-145654285D01*
X239530000Y-145056190D01*
X239530000Y-144757142D01*
X239725714Y-144159047D01*
X239921428Y-143860000D01*
X240312857Y-143560952D01*
X241095714Y-143560952D01*
X241487142Y-143860000D01*
X241682857Y-144159047D01*
X241878571Y-144757142D01*
X241878571Y-145056190D01*
X241682857Y-145654285D01*
X241487142Y-145953333D01*
X241095714Y-146252380D01*
X240312857Y-146252380D01*
X239921428Y-146551428D01*
X239725714Y-146850476D01*
X239530000Y-147448571D01*
X239530000Y-148644761D01*
X239725714Y-149242857D01*
X239921428Y-149541904D01*
X240312857Y-149840952D01*
X241095714Y-149840952D01*
X241487142Y-149541904D01*
X241682857Y-149242857D01*
X241878571Y-148644761D01*
X241878571Y-147448571D01*
X241682857Y-146850476D01*
X241487142Y-146551428D01*
X241095714Y-146252380D01*
X247358571Y-146252380D02*
X246967142Y-145953333D01*
X246771428Y-145654285D01*
X246575714Y-145056190D01*
X246575714Y-144757142D01*
X246771428Y-144159047D01*
X246967142Y-143860000D01*
X247358571Y-143560952D01*
X248141428Y-143560952D01*
X248532857Y-143860000D01*
X248728571Y-144159047D01*
X248924285Y-144757142D01*
X248924285Y-145056190D01*
X248728571Y-145654285D01*
X248532857Y-145953333D01*
X248141428Y-146252380D01*
X247358571Y-146252380D01*
X246967142Y-146551428D01*
X246771428Y-146850476D01*
X246575714Y-147448571D01*
X246575714Y-148644761D01*
X246771428Y-149242857D01*
X246967142Y-149541904D01*
X247358571Y-149840952D01*
X248141428Y-149840952D01*
X248532857Y-149541904D01*
X248728571Y-149242857D01*
X248924285Y-148644761D01*
X248924285Y-147448571D01*
X248728571Y-146850476D01*
X248532857Y-146551428D01*
X248141428Y-146252380D01*
X178858571Y-153152380D02*
X178467142Y-152853333D01*
X178271428Y-152554285D01*
X178075714Y-151956190D01*
X178075714Y-151657142D01*
X178271428Y-151059047D01*
X178467142Y-150760000D01*
X178858571Y-150460952D01*
X179641428Y-150460952D01*
X180032857Y-150760000D01*
X180228571Y-151059047D01*
X180424285Y-151657142D01*
X180424285Y-151956190D01*
X180228571Y-152554285D01*
X180032857Y-152853333D01*
X179641428Y-153152380D01*
X178858571Y-153152380D01*
X178467142Y-153451428D01*
X178271428Y-153750476D01*
X178075714Y-154348571D01*
X178075714Y-155544761D01*
X178271428Y-156142857D01*
X178467142Y-156441904D01*
X178858571Y-156740952D01*
X179641428Y-156740952D01*
X180032857Y-156441904D01*
X180228571Y-156142857D01*
X180424285Y-155544761D01*
X180424285Y-154348571D01*
X180228571Y-153750476D01*
X180032857Y-153451428D01*
X179641428Y-153152380D01*
X185904285Y-153152380D02*
X185512857Y-152853333D01*
X185317142Y-152554285D01*
X185121428Y-151956190D01*
X185121428Y-151657142D01*
X185317142Y-151059047D01*
X185512857Y-150760000D01*
X185904285Y-150460952D01*
X186687142Y-150460952D01*
X187078571Y-150760000D01*
X187274285Y-151059047D01*
X187470000Y-151657142D01*
X187470000Y-151956190D01*
X187274285Y-152554285D01*
X187078571Y-152853333D01*
X186687142Y-153152380D01*
X185904285Y-153152380D01*
X185512857Y-153451428D01*
X185317142Y-153750476D01*
X185121428Y-154348571D01*
X185121428Y-155544761D01*
X185317142Y-156142857D01*
X185512857Y-156441904D01*
X185904285Y-156740952D01*
X186687142Y-156740952D01*
X187078571Y-156441904D01*
X187274285Y-156142857D01*
X187470000Y-155544761D01*
X187470000Y-154348571D01*
X187274285Y-153750476D01*
X187078571Y-153451428D01*
X186687142Y-153152380D01*
X192950000Y-153152380D02*
X192558571Y-152853333D01*
X192362857Y-152554285D01*
X192167142Y-151956190D01*
X192167142Y-151657142D01*
X192362857Y-151059047D01*
X192558571Y-150760000D01*
X192950000Y-150460952D01*
X193732857Y-150460952D01*
X194124285Y-150760000D01*
X194320000Y-151059047D01*
X194515714Y-151657142D01*
X194515714Y-151956190D01*
X194320000Y-152554285D01*
X194124285Y-152853333D01*
X193732857Y-153152380D01*
X192950000Y-153152380D01*
X192558571Y-153451428D01*
X192362857Y-153750476D01*
X192167142Y-154348571D01*
X192167142Y-155544761D01*
X192362857Y-156142857D01*
X192558571Y-156441904D01*
X192950000Y-156740952D01*
X193732857Y-156740952D01*
X194124285Y-156441904D01*
X194320000Y-156142857D01*
X194515714Y-155544761D01*
X194515714Y-154348571D01*
X194320000Y-153750476D01*
X194124285Y-153451428D01*
X193732857Y-153152380D01*
X199995714Y-153152380D02*
X199604285Y-152853333D01*
X199408571Y-152554285D01*
X199212857Y-151956190D01*
X199212857Y-151657142D01*
X199408571Y-151059047D01*
X199604285Y-150760000D01*
X199995714Y-150460952D01*
X200778571Y-150460952D01*
X201170000Y-150760000D01*
X201365714Y-151059047D01*
X201561428Y-151657142D01*
X201561428Y-151956190D01*
X201365714Y-152554285D01*
X201170000Y-152853333D01*
X200778571Y-153152380D01*
X199995714Y-153152380D01*
X199604285Y-153451428D01*
X199408571Y-153750476D01*
X199212857Y-154348571D01*
X199212857Y-155544761D01*
X199408571Y-156142857D01*
X199604285Y-156441904D01*
X199995714Y-156740952D01*
X200778571Y-156740952D01*
X201170000Y-156441904D01*
X201365714Y-156142857D01*
X201561428Y-155544761D01*
X201561428Y-154348571D01*
X201365714Y-153750476D01*
X201170000Y-153451428D01*
X200778571Y-153152380D01*
X207041428Y-153152380D02*
X206650000Y-152853333D01*
X206454285Y-152554285D01*
X206258571Y-151956190D01*
X206258571Y-151657142D01*
X206454285Y-151059047D01*
X206650000Y-150760000D01*
X207041428Y-150460952D01*
X207824285Y-150460952D01*
X208215714Y-150760000D01*
X208411428Y-151059047D01*
X208607142Y-151657142D01*
X208607142Y-151956190D01*
X208411428Y-152554285D01*
X208215714Y-152853333D01*
X207824285Y-153152380D01*
X207041428Y-153152380D01*
X206650000Y-153451428D01*
X206454285Y-153750476D01*
X206258571Y-154348571D01*
X206258571Y-155544761D01*
X206454285Y-156142857D01*
X206650000Y-156441904D01*
X207041428Y-156740952D01*
X207824285Y-156740952D01*
X208215714Y-156441904D01*
X208411428Y-156142857D01*
X208607142Y-155544761D01*
X208607142Y-154348571D01*
X208411428Y-153750476D01*
X208215714Y-153451428D01*
X207824285Y-153152380D01*
X214087142Y-153152380D02*
X213695714Y-152853333D01*
X213500000Y-152554285D01*
X213304285Y-151956190D01*
X213304285Y-151657142D01*
X213500000Y-151059047D01*
X213695714Y-150760000D01*
X214087142Y-150460952D01*
X214870000Y-150460952D01*
X215261428Y-150760000D01*
X215457142Y-151059047D01*
X215652857Y-151657142D01*
X215652857Y-151956190D01*
X215457142Y-152554285D01*
X215261428Y-152853333D01*
X214870000Y-153152380D01*
X214087142Y-153152380D01*
X213695714Y-153451428D01*
X213500000Y-153750476D01*
X213304285Y-154348571D01*
X213304285Y-155544761D01*
X213500000Y-156142857D01*
X213695714Y-156441904D01*
X214087142Y-156740952D01*
X214870000Y-156740952D01*
X215261428Y-156441904D01*
X215457142Y-156142857D01*
X215652857Y-155544761D01*
X215652857Y-154348571D01*
X215457142Y-153750476D01*
X215261428Y-153451428D01*
X214870000Y-153152380D01*
X221132857Y-153152380D02*
X220741428Y-152853333D01*
X220545714Y-152554285D01*
X220350000Y-151956190D01*
X220350000Y-151657142D01*
X220545714Y-151059047D01*
X220741428Y-150760000D01*
X221132857Y-150460952D01*
X221915714Y-150460952D01*
X222307142Y-150760000D01*
X222502857Y-151059047D01*
X222698571Y-151657142D01*
X222698571Y-151956190D01*
X222502857Y-152554285D01*
X222307142Y-152853333D01*
X221915714Y-153152380D01*
X221132857Y-153152380D01*
X220741428Y-153451428D01*
X220545714Y-153750476D01*
X220350000Y-154348571D01*
X220350000Y-155544761D01*
X220545714Y-156142857D01*
X220741428Y-156441904D01*
X221132857Y-156740952D01*
X221915714Y-156740952D01*
X222307142Y-156441904D01*
X222502857Y-156142857D01*
X222698571Y-155544761D01*
X222698571Y-154348571D01*
X222502857Y-153750476D01*
X222307142Y-153451428D01*
X221915714Y-153152380D01*
X228178571Y-153152380D02*
X227787142Y-152853333D01*
X227591428Y-152554285D01*
X227395714Y-151956190D01*
X227395714Y-151657142D01*
X227591428Y-151059047D01*
X227787142Y-150760000D01*
X228178571Y-150460952D01*
X228961428Y-150460952D01*
X229352857Y-150760000D01*
X229548571Y-151059047D01*
X229744285Y-151657142D01*
X229744285Y-151956190D01*
X229548571Y-152554285D01*
X229352857Y-152853333D01*
X228961428Y-153152380D01*
X228178571Y-153152380D01*
X227787142Y-153451428D01*
X227591428Y-153750476D01*
X227395714Y-154348571D01*
X227395714Y-155544761D01*
X227591428Y-156142857D01*
X227787142Y-156441904D01*
X228178571Y-156740952D01*
X228961428Y-156740952D01*
X229352857Y-156441904D01*
X229548571Y-156142857D01*
X229744285Y-155544761D01*
X229744285Y-154348571D01*
X229548571Y-153750476D01*
X229352857Y-153451428D01*
X228961428Y-153152380D01*
X234637142Y-156142857D02*
X234832857Y-156441904D01*
X234637142Y-156740952D01*
X234441428Y-156441904D01*
X234637142Y-156142857D01*
X234637142Y-156740952D01*
X234637142Y-152853333D02*
X234832857Y-153152380D01*
X234637142Y-153451428D01*
X234441428Y-153152380D01*
X234637142Y-152853333D01*
X234637142Y-153451428D01*
X240312857Y-153152380D02*
X239921428Y-152853333D01*
X239725714Y-152554285D01*
X239530000Y-151956190D01*
X239530000Y-151657142D01*
X239725714Y-151059047D01*
X239921428Y-150760000D01*
X240312857Y-150460952D01*
X241095714Y-150460952D01*
X241487142Y-150760000D01*
X241682857Y-151059047D01*
X241878571Y-151657142D01*
X241878571Y-151956190D01*
X241682857Y-152554285D01*
X241487142Y-152853333D01*
X241095714Y-153152380D01*
X240312857Y-153152380D01*
X239921428Y-153451428D01*
X239725714Y-153750476D01*
X239530000Y-154348571D01*
X239530000Y-155544761D01*
X239725714Y-156142857D01*
X239921428Y-156441904D01*
X240312857Y-156740952D01*
X241095714Y-156740952D01*
X241487142Y-156441904D01*
X241682857Y-156142857D01*
X241878571Y-155544761D01*
X241878571Y-154348571D01*
X241682857Y-153750476D01*
X241487142Y-153451428D01*
X241095714Y-153152380D01*
X247358571Y-153152380D02*
X246967142Y-152853333D01*
X246771428Y-152554285D01*
X246575714Y-151956190D01*
X246575714Y-151657142D01*
X246771428Y-151059047D01*
X246967142Y-150760000D01*
X247358571Y-150460952D01*
X248141428Y-150460952D01*
X248532857Y-150760000D01*
X248728571Y-151059047D01*
X248924285Y-151657142D01*
X248924285Y-151956190D01*
X248728571Y-152554285D01*
X248532857Y-152853333D01*
X248141428Y-153152380D01*
X247358571Y-153152380D01*
X246967142Y-153451428D01*
X246771428Y-153750476D01*
X246575714Y-154348571D01*
X246575714Y-155544761D01*
X246771428Y-156142857D01*
X246967142Y-156441904D01*
X247358571Y-156740952D01*
X248141428Y-156740952D01*
X248532857Y-156441904D01*
X248728571Y-156142857D01*
X248924285Y-155544761D01*
X248924285Y-154348571D01*
X248728571Y-153750476D01*
X248532857Y-153451428D01*
X248141428Y-153152380D01*
D12*
X202897619Y-111616735D02*
X203897619Y-111616735D01*
X203183333Y-111950068D01*
X203897619Y-112283401D01*
X202897619Y-112283401D01*
X202897619Y-113283401D02*
X202897619Y-112711973D01*
X202897619Y-112997687D02*
X203897619Y-112997687D01*
X203754761Y-112902449D01*
X203659523Y-112807211D01*
X203611904Y-112711973D01*
X203897619Y-113902449D02*
X203897619Y-113997687D01*
X203850000Y-114092925D01*
X203802380Y-114140544D01*
X203707142Y-114188163D01*
X203516666Y-114235782D01*
X203278571Y-114235782D01*
X203088095Y-114188163D01*
X202992857Y-114140544D01*
X202945238Y-114092925D01*
X202897619Y-113997687D01*
X202897619Y-113902449D01*
X202945238Y-113807211D01*
X202992857Y-113759592D01*
X203088095Y-113711973D01*
X203278571Y-113664354D01*
X203516666Y-113664354D01*
X203707142Y-113711973D01*
X203802380Y-113759592D01*
X203850000Y-113807211D01*
X203897619Y-113902449D01*
X202897619Y-115188163D02*
X202897619Y-114616735D01*
X202897619Y-114902449D02*
X203897619Y-114902449D01*
X203754761Y-114807211D01*
X203659523Y-114711973D01*
X203611904Y-114616735D01*
M02*
