G04 #@! TF.GenerationSoftware,KiCad,Pcbnew,(5.99.0-286-g11f0acefe)*
G04 #@! TF.CreationDate,2019-11-05T18:07:43-05:00*
G04 #@! TF.ProjectId,MotorcycleSpeedo,4d6f746f-7263-4796-936c-655370656564,rev?*
G04 #@! TF.SameCoordinates,Original*
G04 #@! TF.FileFunction,Paste,Top*
G04 #@! TF.FilePolarity,Positive*
%FSLAX46Y46*%
G04 Gerber Fmt 4.6, Leading zero omitted, Abs format (unit mm)*
G04 Created by KiCad (PCBNEW (5.99.0-286-g11f0acefe)) date 2019-11-05 18:07:43*
%MOMM*%
%LPD*%
G04 APERTURE LIST*
G04 APERTURE END LIST*
G36*
X201867524Y-111308066D02*
G01*
X201944575Y-111359549D01*
X202280451Y-111695425D01*
X202331934Y-111772476D01*
X202350013Y-111863363D01*
X202331934Y-111954250D01*
X202280451Y-112031301D01*
X201873865Y-112437887D01*
X201796814Y-112489370D01*
X201705927Y-112507449D01*
X201615040Y-112489370D01*
X201537989Y-112437887D01*
X201202113Y-112102011D01*
X201150630Y-112024960D01*
X201132551Y-111934073D01*
X201150630Y-111843186D01*
X201202113Y-111766135D01*
X201608699Y-111359549D01*
X201685750Y-111308066D01*
X201776637Y-111289987D01*
X201867524Y-111308066D01*
G37*
G36*
X203104960Y-110070630D02*
G01*
X203182011Y-110122113D01*
X203517887Y-110457989D01*
X203569370Y-110535040D01*
X203587449Y-110625927D01*
X203569370Y-110716814D01*
X203517887Y-110793865D01*
X203111301Y-111200451D01*
X203034250Y-111251934D01*
X202943363Y-111270013D01*
X202852476Y-111251934D01*
X202775425Y-111200451D01*
X202439549Y-110864575D01*
X202388066Y-110787524D01*
X202369987Y-110696637D01*
X202388066Y-110605750D01*
X202439549Y-110528699D01*
X202846135Y-110122113D01*
X202923186Y-110070630D01*
X203014073Y-110052551D01*
X203104960Y-110070630D01*
G37*
G36*
X202420901Y-115190633D02*
G01*
X202504012Y-115231619D01*
X202565112Y-115301290D01*
X202852612Y-115799254D01*
X202882399Y-115887004D01*
X202876338Y-115979473D01*
X202835352Y-116062585D01*
X202765681Y-116123685D01*
X202354319Y-116361185D01*
X202266569Y-116390972D01*
X202174099Y-116384911D01*
X202090988Y-116343925D01*
X202029888Y-116274254D01*
X201742388Y-115776290D01*
X201712601Y-115688540D01*
X201718662Y-115596071D01*
X201759648Y-115512959D01*
X201829319Y-115451859D01*
X202240681Y-115214359D01*
X202328431Y-115184572D01*
X202420901Y-115190633D01*
G37*
G36*
X201545901Y-113675089D02*
G01*
X201629012Y-113716075D01*
X201690112Y-113785746D01*
X201977612Y-114283710D01*
X202007399Y-114371460D01*
X202001338Y-114463929D01*
X201960352Y-114547041D01*
X201890681Y-114608141D01*
X201479319Y-114845641D01*
X201391569Y-114875428D01*
X201299099Y-114869367D01*
X201215988Y-114828381D01*
X201154888Y-114758710D01*
X200867388Y-114260746D01*
X200837601Y-114172996D01*
X200843662Y-114080527D01*
X200884648Y-113997415D01*
X200954319Y-113936315D01*
X201365681Y-113698815D01*
X201453431Y-113669028D01*
X201545901Y-113675089D01*
G37*
G36*
X226284250Y-111608066D02*
G01*
X226361301Y-111659549D01*
X226767887Y-112066135D01*
X226819370Y-112143186D01*
X226837449Y-112234073D01*
X226819370Y-112324960D01*
X226767887Y-112402011D01*
X226432011Y-112737887D01*
X226354960Y-112789370D01*
X226264073Y-112807449D01*
X226173186Y-112789370D01*
X226096135Y-112737887D01*
X225689549Y-112331301D01*
X225638066Y-112254250D01*
X225619987Y-112163363D01*
X225638066Y-112072476D01*
X225689549Y-111995425D01*
X226025425Y-111659549D01*
X226102476Y-111608066D01*
X226193363Y-111589987D01*
X226284250Y-111608066D01*
G37*
G36*
X225046814Y-110370630D02*
G01*
X225123865Y-110422113D01*
X225530451Y-110828699D01*
X225581934Y-110905750D01*
X225600013Y-110996637D01*
X225581934Y-111087524D01*
X225530451Y-111164575D01*
X225194575Y-111500451D01*
X225117524Y-111551934D01*
X225026637Y-111570013D01*
X224935750Y-111551934D01*
X224858699Y-111500451D01*
X224452113Y-111093865D01*
X224400630Y-111016814D01*
X224382551Y-110925927D01*
X224400630Y-110835040D01*
X224452113Y-110757989D01*
X224787989Y-110422113D01*
X224865040Y-110370630D01*
X224955927Y-110352551D01*
X225046814Y-110370630D01*
G37*
G36*
X225098806Y-115126784D02*
G01*
X225175857Y-115178267D01*
X225511733Y-115514143D01*
X225563216Y-115591194D01*
X225581295Y-115682081D01*
X225563216Y-115772968D01*
X225511733Y-115850019D01*
X225105147Y-116256605D01*
X225028096Y-116308088D01*
X224937209Y-116326167D01*
X224846322Y-116308088D01*
X224769271Y-116256605D01*
X224433395Y-115920729D01*
X224381912Y-115843678D01*
X224363833Y-115752791D01*
X224381912Y-115661904D01*
X224433395Y-115584853D01*
X224839981Y-115178267D01*
X224917032Y-115126784D01*
X225007919Y-115108705D01*
X225098806Y-115126784D01*
G37*
G36*
X226336242Y-113889348D02*
G01*
X226413293Y-113940831D01*
X226749169Y-114276707D01*
X226800652Y-114353758D01*
X226818731Y-114444645D01*
X226800652Y-114535532D01*
X226749169Y-114612583D01*
X226342583Y-115019169D01*
X226265532Y-115070652D01*
X226174645Y-115088731D01*
X226083758Y-115070652D01*
X226006707Y-115019169D01*
X225670831Y-114683293D01*
X225619348Y-114606242D01*
X225601269Y-114515355D01*
X225619348Y-114424468D01*
X225670831Y-114347417D01*
X226077417Y-113940831D01*
X226154468Y-113889348D01*
X226245355Y-113871269D01*
X226336242Y-113889348D01*
G37*
M02*
