M48
; DRILL file {KiCad (5.99.0-286-g11f0acefe)} date Tue 05 Nov 2019 05:59:37 PM EST
; FORMAT={-:-/ absolute / metric / decimal}
; #@! TF.CreationDate,2019-11-05T17:59:37-05:00
; #@! TF.GenerationSoftware,Kicad,Pcbnew,(5.99.0-286-g11f0acefe)
; #@! TF.FileFunction,Plated,1,2,PTH
FMAT,2
METRIC
T1C0.300
T2C0.400
T3C0.650
T4C0.800
T5C0.900
T6C1.000
T7C1.500
T8C3.200
%
G90
G05
T1
X216.377Y-81.661
X216.513Y-83.125
X216.779Y-80.247
X216.975Y-82.344
X217.09Y-81.1
X217.168Y-84.441
X217.316Y-83.546
X217.647Y-79.981
X217.665Y-79.074
X218.069Y-84.543
X218.254Y-85.431
X218.57Y-79.139
X218.915Y-78.3
X219.132Y-85.2
X219.625Y-85.962
X219.735Y-78.688
X220.36Y-78.03
X220.36Y-85.43
X220.985Y-78.688
X221.095Y-85.962
X221.588Y-85.2
X221.805Y-78.3
X222.15Y-79.139
X222.466Y-85.431
X222.651Y-84.543
X223.055Y-79.074
X223.073Y-79.981
X223.404Y-83.546
X223.552Y-84.441
X223.63Y-81.1
X223.745Y-82.344
X223.941Y-80.247
X224.207Y-83.125
X224.343Y-81.661
X228.377Y-81.661
X228.513Y-83.125
X228.779Y-80.247
X228.975Y-82.344
X229.09Y-81.1
X229.168Y-84.441
X229.316Y-83.546
X229.647Y-79.981
X229.665Y-79.074
X230.069Y-84.543
X230.254Y-85.431
X230.57Y-79.139
X230.915Y-78.3
X231.132Y-85.2
X231.625Y-85.962
X231.735Y-78.688
X232.36Y-78.03
X232.36Y-85.43
X232.985Y-78.688
X233.095Y-85.962
X233.588Y-85.2
X233.805Y-78.3
X234.15Y-79.139
X234.466Y-85.431
X234.651Y-84.543
X235.055Y-79.074
X235.073Y-79.981
X235.404Y-83.546
X235.552Y-84.441
X235.63Y-81.1
X235.745Y-82.344
X235.941Y-80.247
X236.207Y-83.125
X236.343Y-81.661
X190.377Y-82.161
X190.513Y-83.625
X190.779Y-80.747
X190.975Y-82.844
X191.09Y-81.6
X191.168Y-84.941
X191.316Y-84.046
X191.647Y-80.481
X191.665Y-79.574
X192.069Y-85.043
X192.254Y-85.931
X192.57Y-79.639
X192.915Y-78.8
X193.132Y-85.7
X193.625Y-86.462
X193.735Y-79.188
X194.36Y-78.53
X194.36Y-85.93
X194.985Y-79.188
X195.095Y-86.462
X195.588Y-85.7
X195.805Y-78.8
X196.15Y-79.639
X196.466Y-85.931
X196.651Y-85.043
X197.055Y-79.574
X197.073Y-80.481
X197.404Y-84.046
X197.552Y-84.941
X197.63Y-81.6
X197.745Y-82.844
X197.941Y-80.747
X198.207Y-83.625
X198.343Y-82.161
X202.877Y-81.661
X203.013Y-83.125
X203.279Y-80.247
X203.475Y-82.344
X203.59Y-81.1
X203.668Y-84.441
X203.816Y-83.546
X204.147Y-79.981
X204.165Y-79.074
X204.569Y-84.543
X204.754Y-85.431
X205.07Y-79.139
X205.415Y-78.3
X205.632Y-85.2
X206.125Y-85.962
X206.235Y-78.688
X206.86Y-78.03
X206.86Y-85.43
X207.485Y-78.688
X207.595Y-85.962
X208.088Y-85.2
X208.305Y-78.3
X208.65Y-79.139
X208.966Y-85.431
X209.151Y-84.543
X209.555Y-79.074
X209.573Y-79.981
X209.904Y-83.546
X210.052Y-84.441
X210.13Y-81.1
X210.245Y-82.344
X210.441Y-80.247
X210.707Y-83.125
X210.843Y-81.661
T2
X153.06Y-141.13
X153.56Y-165.53
X154.56Y-134.23
X154.76Y-146.23
X155.175Y-154.45
X155.175Y-158.925
X156.3Y-149.1
X157.55Y-143.65
X158.6Y-141.4
X158.85Y-144.5
X159.35Y-161.725
X159.36Y-111.33
X159.8Y-157.15
X160.06Y-120.83
X160.46Y-107.73
X160.55Y-144.4
X161.1Y-152.7
X161.225Y-168.275
X161.6Y-142.75
X161.61Y-118.28
X161.76Y-114.93
X161.76Y-130.83
X161.95Y-173.7
X162.75Y-145.375
X162.93Y-158.012
X163.2Y-140.6
X163.45Y-154.4
X163.848Y-156.944
X164.06Y-137.83
X164.1Y-139.7
X164.2Y-143.45
X164.26Y-151.43
X164.86Y-92.53
X164.96Y-123.93
X164.96Y-159.63
X164.975Y-147.6
X165.1Y-156.25
X165.61Y-118.03
X165.725Y-160.525
X166.07Y-143.24
X166.175Y-172.325
X166.19Y-156.131
X166.36Y-106.03
X166.36Y-135.63
X166.782Y-142.496
X166.86Y-89.73
X166.977Y-157.812
X167.15Y-139.0
X167.275Y-156.092
X167.48Y-154.826
X167.563Y-143.12
X167.728Y-142.134
X167.91Y-130.28
X167.96Y-97.53
X168.06Y-114.83
X168.643Y-155.481
X168.7Y-141.9
X168.79Y-125.0
X168.86Y-147.33
X169.015Y-151.646
X169.45Y-133.4
X169.5Y-134.9
X169.626Y-157.73
X169.71Y-128.13
X169.76Y-126.73
X169.95Y-138.95
X170.175Y-166.1
X170.425Y-168.35
X170.636Y-153.464
X170.7Y-167.125
X170.8Y-160.75
X170.825Y-163.375
X170.954Y-154.42
X171.1Y-143.8
X171.45Y-172.45
X171.6Y-132.7
X171.9Y-144.9
X171.95Y-139.05
X172.16Y-134.43
X172.4Y-152.75
X172.46Y-84.93
X173.435Y-147.035
X173.5Y-169.625
X173.6Y-152.35
X173.825Y-163.8
X173.86Y-112.93
X174.1Y-150.2
X174.141Y-123.242
X174.2Y-146.3
X174.7Y-149.3
X174.9Y-148.3
X175.05Y-142.15
X175.35Y-146.925
X175.65Y-121.734
X176.16Y-79.93
X176.36Y-86.03
X176.563Y-154.932
X176.594Y-167.2
X177.0Y-136.325
X177.05Y-143.5
X177.16Y-115.03
X177.243Y-154.169
X177.479Y-150.959
X177.6Y-164.3
X177.819Y-150.019
X178.3Y-156.8
X178.9Y-128.55
X179.46Y-77.83
X179.631Y-150.731
X179.75Y-163.55
X180.05Y-159.6
X180.06Y-106.33
X180.1Y-154.45
X180.65Y-150.633
X180.744Y-167.25
X180.75Y-121.634
X181.36Y-115.73
X181.5Y-143.2
X181.6Y-152.451
X182.05Y-140.35
X182.055Y-128.745
X182.175Y-164.95
X182.36Y-124.33
X182.4Y-138.65
X182.86Y-118.03
X183.3Y-160.35
X183.5Y-161.95
X183.95Y-153.725
X184.06Y-170.73
X184.3Y-159.35
X184.66Y-119.93
X184.7Y-164.7
X184.7Y-166.2
X184.76Y-107.73
X184.85Y-155.15
X185.16Y-82.63
X185.2Y-140.5
X185.211Y-160.559
X185.25Y-136.3
X185.25Y-138.4
X185.4Y-156.9
X185.41Y-158.823
X185.45Y-142.45
X185.8Y-150.1
X185.85Y-164.55
X185.85Y-162.55
X185.86Y-99.23
X186.2Y-152.375
X186.26Y-174.53
X186.46Y-79.13
X186.9Y-154.076
X187.26Y-149.33
X187.75Y-143.55
X187.9Y-151.5
X188.06Y-147.13
X188.45Y-155.95
X188.5Y-136.5
X188.65Y-150.78
X188.66Y-108.73
X188.686Y-154.436
X188.86Y-126.43
X189.0Y-138.5
X189.43Y-81.56
X189.43Y-86.56
X189.75Y-162.5
X189.76Y-102.93
X190.2Y-154.1
X190.26Y-97.43
X190.337Y-163.922
X190.35Y-157.85
X190.931Y-155.331
X191.015Y-163.186
X191.02Y-92.35
X192.26Y-165.33
X192.96Y-87.63
X193.16Y-105.73
X193.86Y-71.33
X194.36Y-115.83
X194.5Y-139.0
X194.66Y-91.73
X194.754Y-142.367
X195.0Y-146.5
X195.199Y-137.858
X196.06Y-75.23
X196.088Y-137.287
X196.46Y-170.33
X196.71Y-94.69
X196.85Y-157.7
X197.76Y-71.23
X197.802Y-137.033
X198.76Y-77.43
X200.56Y-87.63
X200.66Y-89.63
X200.76Y-121.13
X201.11Y-110.53
X201.76Y-164.93
X202.36Y-73.73
X202.675Y-160.25
X202.96Y-126.93
X203.0Y-163.65
X203.038Y-140.462
X203.094Y-164.694
X203.11Y-117.03
X204.39Y-158.278
X204.46Y-170.33
X204.46Y-174.23
X205.325Y-153.35
X205.928Y-157.972
X206.56Y-89.83
X206.607Y-159.4
X206.76Y-74.33
X207.36Y-101.43
X207.45Y-151.6
X207.65Y-148.225
X208.0Y-163.6
X208.16Y-71.23
X209.05Y-171.08
X209.46Y-125.83
X209.95Y-163.75
X210.2Y-154.8
X210.785Y-151.54
X211.35Y-165.575
X211.582Y-140.462
X211.8Y-155.3
X211.96Y-75.03
X212.287Y-134.35
X212.915Y-144.6
X213.66Y-112.63
X213.8Y-143.75
X214.16Y-135.03
X214.86Y-75.53
X215.06Y-93.93
X215.138Y-140.462
X215.3Y-156.725
X216.05Y-151.95
X217.2Y-156.45
X217.606Y-146.651
X217.76Y-75.03
X218.75Y-166.85
X218.906Y-124.984
X219.075Y-148.375
X219.16Y-69.63
X219.86Y-90.13
X220.275Y-152.275
X221.76Y-164.33
X222.86Y-127.03
X223.325Y-155.5
X223.36Y-101.03
X223.65Y-158.325
X223.86Y-75.13
X224.65Y-139.775
X225.21Y-116.83
X225.6Y-163.55
X225.86Y-170.43
X226.01Y-110.51
X226.86Y-88.53
X226.96Y-86.13
X227.06Y-73.53
X227.26Y-92.83
X227.46Y-120.43
X228.2Y-153.05
X229.16Y-171.33
X229.679Y-137.033
X229.86Y-174.23
X230.06Y-162.83
X230.85Y-156.125
X232.26Y-69.83
X232.35Y-138.85
X232.36Y-87.93
X232.53Y-99.66
X233.66Y-120.33
X234.16Y-134.13
X234.45Y-144.6
X234.505Y-137.541
X234.76Y-105.23
X235.077Y-135.826
X235.37Y-99.66
X236.16Y-103.23
X237.36Y-108.73
X238.76Y-73.33
X238.8Y-151.85
X239.1Y-165.45
X240.79Y-110.77
X241.65Y-162.775
X241.66Y-73.63
X242.14Y-138.85
X242.25Y-144.95
X242.76Y-87.53
X243.96Y-114.83
X244.15Y-123.284
X244.26Y-120.23
X244.46Y-147.93
X244.5Y-171.375
X244.76Y-83.63
X244.8Y-152.95
X245.06Y-112.33
X245.5Y-169.0
X245.86Y-128.43
X245.96Y-109.35
X246.16Y-77.53
X246.5Y-138.65
X247.0Y-121.254
X247.05Y-156.7
X247.8Y-135.83
X247.975Y-160.8
X248.4Y-175.1
X248.802Y-135.83
X248.98Y-110.31
X249.5Y-158.05
X249.96Y-128.23
X250.1Y-135.9
X250.32Y-108.07
X250.32Y-116.17
X250.352Y-133.01
X251.121Y-133.649
X251.15Y-136.05
X251.26Y-79.43
X251.4Y-127.6
X252.14Y-132.4
X252.15Y-151.9
X252.15Y-159.65
X252.8Y-155.075
X253.096Y-131.723
X253.1Y-120.814
X253.66Y-136.23
X253.72Y-129.33
X253.86Y-110.53
X254.75Y-122.74
X254.85Y-144.95
X254.86Y-173.83
X255.26Y-96.43
X255.9Y-137.35
X256.35Y-128.018
X256.36Y-86.23
X256.6Y-133.45
X256.6Y-159.3
X257.0Y-137.0
X257.1Y-141.7
X257.2Y-151.75
X257.65Y-155.45
X258.45Y-151.95
X258.46Y-148.73
X258.66Y-125.33
X258.7Y-144.95
X258.75Y-140.25
X258.86Y-114.23
X259.15Y-169.725
X259.16Y-120.43
X259.26Y-93.73
X259.26Y-109.33
X259.96Y-136.33
X260.183Y-103.89
X261.06Y-143.03
X261.5Y-150.55
X261.76Y-127.53
X262.3Y-158.95
X262.32Y-103.85
X262.36Y-100.43
X262.96Y-117.93
X263.6Y-135.45
X263.65Y-167.8
X263.66Y-106.83
X265.66Y-101.93
X266.36Y-116.73
X266.36Y-132.73
X266.46Y-112.23
X268.75Y-136.85
X269.55Y-144.65
X269.66Y-152.93
X271.56Y-134.33
X274.76Y-165.13
T3
X174.1Y-159.7
X175.37Y-159.7
X176.64Y-159.7
X177.91Y-159.7
T4
X255.3Y-147.25
X257.3Y-147.25
X194.04Y-101.949
X194.04Y-124.809
X201.66Y-101.949
X201.66Y-124.809
X220.06Y-161.66
X220.06Y-169.28
X222.6Y-161.66
X222.6Y-169.28
X226.04Y-101.949
X226.04Y-124.809
X233.66Y-101.949
X233.66Y-124.809
X208.72Y-161.36
X208.72Y-168.98
X211.26Y-161.36
X211.26Y-168.98
T5
X164.0Y-131.0
X164.0Y-164.0
X166.0Y-131.0
X166.0Y-164.0
X172.0Y-131.0
X174.0Y-131.0
X176.0Y-131.0
X178.0Y-131.0
X180.0Y-131.0
X182.0Y-131.0
X184.0Y-131.0
X186.0Y-131.0
X188.0Y-131.0
X190.0Y-131.0
X192.0Y-131.0
X194.0Y-131.0
X196.0Y-131.0
X198.0Y-131.0
X200.0Y-131.0
X202.0Y-131.0
X204.0Y-131.0
X206.0Y-131.0
X208.0Y-131.0
X210.0Y-131.0
X212.0Y-131.0
X214.0Y-131.0
X216.0Y-131.0
X218.0Y-131.0
X220.0Y-131.0
X222.0Y-131.0
X224.0Y-131.0
X226.0Y-131.0
X228.0Y-131.0
X230.0Y-131.0
X232.0Y-131.0
X234.0Y-131.0
X236.0Y-131.0
X238.0Y-131.0
X240.0Y-131.0
X242.0Y-131.0
X244.0Y-131.0
X246.0Y-131.0
X248.0Y-131.0
X250.0Y-131.0
X256.0Y-131.0
X258.0Y-131.0
X262.0Y-131.0
X262.0Y-164.0
X264.0Y-131.0
X264.0Y-164.0
T6
X232.91Y-173.75
X235.45Y-173.75
X237.99Y-173.75
X210.45Y-72.984
X212.99Y-72.984
X215.53Y-72.984
X218.07Y-72.984
X210.17Y-172.48
X212.71Y-172.48
X215.25Y-172.48
X222.02Y-172.43
X224.56Y-172.43
X227.1Y-172.43
X187.54Y-167.4
X190.08Y-167.4
X192.62Y-167.4
X195.16Y-167.4
X197.7Y-167.4
X200.24Y-167.4
X202.78Y-167.4
X167.5Y-174.725
X170.04Y-174.725
X175.85Y-174.05
X178.39Y-174.05
X180.93Y-174.05
X183.47Y-174.05
X177.68Y-145.84
X177.68Y-148.38
X180.22Y-145.84
X180.22Y-148.38
X182.76Y-145.84
X182.76Y-148.38
X185.3Y-145.84
X185.3Y-148.38
T7
X161.76Y-125.43
X265.26Y-126.23
T8
X180.86Y-96.43
X153.86Y-171.63
X273.86Y-171.63
X213.82Y-60.43
X243.76Y-96.43
X213.85Y-124.984
T0
M30
